<svg width="48" height="43" viewBox="0 0 48 43" fill="none" xmlns="http://www.w3.org/2000/svg">
<path d="M23.6617 5.59416L24.0153 5.94771L24.3688 5.59416L25.6815 4.28147C28.1014 1.86164 31.312 0.530528 34.7306 0.530528C38.1497 0.530528 41.35 1.85187 43.7694 4.27129C46.1886 6.69045 47.5098 9.90033 47.5 13.3189V13.3203C47.5 16.7389 46.1689 19.9495 43.749 22.3693L24.5986 41.4485L24.5979 41.4492C24.4332 41.6139 24.2071 41.6996 23.9848 41.6996C23.7721 41.6996 23.5429 41.6103 23.3716 41.439L4.26117 22.3286C1.84035 19.9078 0.500056 16.707 0.500058 13.2898L0.500054 13.2883C0.490261 9.87078 1.82096 6.66062 4.24082 4.24076C6.65041 1.83117 9.86098 0.5 13.2695 0.5C16.6875 0.5 19.9084 1.84088 22.3287 4.26111L23.6617 5.59416ZM42.522 21.1335L42.5227 21.1328C44.6106 19.0449 45.7631 16.2716 45.7525 13.3185C45.752 10.3686 44.6111 7.59619 42.5227 5.50779L42.5218 5.50688C40.4343 3.43006 37.6621 2.27803 34.7204 2.27803C31.779 2.27803 28.996 3.42983 26.9079 5.51796L24.6284 7.79737C24.2844 8.14143 23.736 8.14143 23.3919 7.79737L21.0922 5.49761C19.0039 3.4093 16.2207 2.25768 13.2695 2.25768C10.3283 2.25768 7.55564 3.40939 5.47785 5.4869C3.38823 7.56605 2.24756 10.3396 2.24756 13.2898C2.24756 16.2415 3.39954 19.0143 5.48749 21.1023L23.6312 39.246L23.9841 39.5988L24.3376 39.2467L42.522 21.1335Z" fill="url(#paint0_linear)" stroke="url(#paint1_linear)"/>
<defs>
<linearGradient id="paint0_linear" x1="2.90573e-07" y1="21.0998" x2="45.3171" y2="21.0998" gradientUnits="userSpaceOnUse">
<stop stop-color="#61DCFB"/>
<stop offset="1" stop-color="#61A1FB"/>
</linearGradient>
<linearGradient id="paint1_linear" x1="2.90573e-07" y1="21.0998" x2="45.3171" y2="21.0998" gradientUnits="userSpaceOnUse">
<stop stop-color="#61DCFB"/>
<stop offset="1" stop-color="#61A1FB"/>
</linearGradient>
</defs>
</svg>
