<svg xmlns="http://www.w3.org/2000/svg" xmlns:xlink="http://www.w3.org/1999/xlink" viewBox="0 0 52 48"><defs><style>.cls-1{fill:url(#linear-gradient);}.cls-2{fill:url(#linear-gradient-2);}.cls-3{fill:url(#linear-gradient-3);}.cls-4{fill:url(#linear-gradient-4);}</style><linearGradient id="linear-gradient" x1="479.61" y1="-715.66" x2="479.61" y2="-743.04" gradientTransform="matrix(0.37, 0, 0, -0.37, -170.16, -231.46)" gradientUnits="userSpaceOnUse"><stop offset="0" stop-color="#bef264"/><stop offset="1" stop-color="#6a6"/></linearGradient><linearGradient id="linear-gradient-2" x1="527.19" y1="-622.05" x2="527.19" y2="-750.88" xlink:href="#linear-gradient"/><linearGradient id="linear-gradient-3" x1="529.88" y1="-622.05" x2="529.88" y2="-750.88" xlink:href="#linear-gradient"/><linearGradient id="linear-gradient-4" x1="572.88" y1="-622.05" x2="572.88" y2="-750.88" xlink:href="#linear-gradient"/></defs><g id="Layer_2" data-name="Layer 2"><g id="Layer_1-2" data-name="Layer 1"><g id="surface154853438"><path class="cls-1" d="M5.7,35.7l6.6,6.6a1,1,0,0,1-.71,1.7H6a2,2,0,0,1-2-2V36.41A1,1,0,0,1,5.7,35.7Z"/><path class="cls-2" d="M49,12H48V6a3,3,0,0,0-3-3V2a2,2,0,0,0-2-2H9A2,2,0,0,0,7,2V3A3,3,0,0,0,4,6v6H3a3,3,0,0,0-3,3V43a5,5,0,0,0,5,5H47a5,5,0,0,0,5-5V15A3,3,0,0,0,49,12Zm0,2a1,1,0,0,1,1,1v2a5,5,0,0,0-2-.93V14ZM9,2H43V3H9ZM7,5H45a1,1,0,0,1,1,1V16H36.07a3,3,0,0,0-2.5,1.34l-2.81,4.21a1,1,0,0,1-.83.45H22.07a1,1,0,0,1-.83-.45l-2.81-4.21A3,3,0,0,0,15.93,16H6V6A1,1,0,0,1,7,5ZM3,14H4v2.1A4.9,4.9,0,0,0,2,17V15A1,1,0,0,1,3,14ZM50,43a3,3,0,0,1-3,3H5a3,3,0,0,1-3-3V21a3,3,0,0,1,3-3H15.93a1,1,0,0,1,.83.45l2.81,4.21A3,3,0,0,0,22.07,24h7.86a3,3,0,0,0,2.5-1.34l2.81-4.21a1,1,0,0,1,.83-.45H47a3,3,0,0,1,3,3Z"/><path class="cls-3" d="M15,9H39v2H15Z"/><path class="cls-4" d="M38,42H48v2H38Z"/><path class="cls-4" d="M38,38H48v2H38Z"/><path class="cls-2" d="M21,13H31v2H21Z"/><path class="cls-2" d="M23,17h6v2H23Z"/></g></g></g></svg>