<svg width="55" height="56" viewBox="0 0 55 56" fill="none" xmlns="http://www.w3.org/2000/svg">
<path d="M54.5019 32.5657C54.5019 39.7682 54.4931 46.9692 54.5164 54.1718C54.5164 54.8729 54.3343 55.1066 53.6113 55.1007C50.0317 55.0666 46.4511 55.0666 42.8696 55.1007C42.17 55.108 41.9645 54.9298 41.9659 54.2112C41.9907 46.4449 41.979 38.6785 41.9761 30.9108C41.9761 27.8872 41.9586 24.8651 41.963 21.8415C41.9703 16.291 37.6576 12.99 33.2063 13.0776C28.3019 13.1725 23.3945 13.0893 18.4856 13.1097C18.1702 13.1198 17.8565 13.061 17.566 12.9374C17.2756 12.8138 17.0155 12.6284 16.8037 12.394C13.6273 9.18057 10.4334 5.98659 7.22205 2.8121C6.74691 2.34323 6.64926 1.82323 6.82561 1.28717C7.02675 0.679538 7.55436 0.4619 8.20587 0.463361C20.0539 0.472125 31.9019 0.369879 43.747 0.520326C48.3716 0.578753 52.2121 3.11592 53.916 7.96968C54.3215 9.14376 54.5226 10.379 54.5106 11.6213C54.4902 18.6003 54.5019 25.5808 54.5019 32.5657Z" fill="url(#paint0_linear)"/>
<path d="M20.2257 55.0394C16.891 55.0394 13.5547 55.1255 10.2244 55.0189C5.57056 54.8728 1.25054 51.1029 0.291501 46.5339C0.0974155 45.6256 -0.000294303 44.6993 6.65841e-07 43.7704C0.013604 39.1021 0.013604 34.4343 6.65841e-07 29.7671C6.65841e-07 28.803 0.274011 28.0347 1.18495 27.6141C1.92827 27.2708 3.03597 27.5688 3.70059 28.2436C6.63017 31.2136 9.58257 34.1602 12.5578 37.0835C13.3434 37.862 13.9803 38.7516 14.6639 39.6134C15.6098 40.8038 16.9245 41.5575 18.3703 42.0453C19.5145 42.4324 20.7023 42.5069 21.8989 42.4996C24.7673 42.4821 27.6371 42.5069 30.5055 42.4821C31.0506 42.4821 31.2561 42.5785 31.2502 43.1905C31.2196 46.9488 31.2255 50.7085 31.2502 54.4668C31.2502 54.9853 31.1045 55.1241 30.5929 55.1212C27.1372 55.1007 23.68 55.1109 20.2243 55.1109L20.2257 55.0394Z" fill="url(#paint1_linear)"/>
<path d="M27.2469 32.5012C26.3141 32.5012 25.3823 32.5012 24.4514 32.5012C23.249 32.5012 22.5567 31.8644 22.5348 30.6885C22.5086 28.7488 22.5086 26.8075 22.5348 24.8649C22.5508 23.6642 23.2373 23.0347 24.4441 23.0317C26.3321 23.0317 28.22 23.0317 30.108 23.0317C31.2827 23.0317 32.0027 23.7124 32.0129 24.8868C32.0333 26.8032 32.0333 28.72 32.0129 30.6374C31.9998 31.8249 31.3017 32.491 30.1182 32.4983C29.1548 32.5056 28.203 32.5012 27.2469 32.5012Z" fill="url(#paint2_linear)"/>
<defs>
<linearGradient id="paint0_linear" x1="6.74365" y1="27.7692" x2="51.8462" y2="27.7692" gradientUnits="userSpaceOnUse">
<stop stop-color="#61DCFB"/>
<stop offset="1" stop-color="#61A1FB"/>
</linearGradient>
<linearGradient id="paint1_linear" x1="1.89177e-07" y1="41.2959" x2="29.5036" y2="41.2959" gradientUnits="userSpaceOnUse">
<stop stop-color="#61DCFB"/>
<stop offset="1" stop-color="#61A1FB"/>
</linearGradient>
<linearGradient id="paint2_linear" x1="22.5151" y1="27.7671" x2="31.4965" y2="27.7671" gradientUnits="userSpaceOnUse">
<stop stop-color="#61DCFB"/>
<stop offset="1" stop-color="#61A1FB"/>
</linearGradient>
</defs>
</svg>
