<svg width="138" height="36" viewBox="0 0 138 36" fill="none" xmlns="http://www.w3.org/2000/svg">
<path d="M30.3978 20.7824C30.3978 24.7689 30.393 28.7546 30.406 32.741C30.406 33.1291 30.3043 33.2585 29.9011 33.2552C27.9047 33.2364 25.9076 33.2364 23.91 33.2552C23.5199 33.2593 23.4052 33.1606 23.406 32.7629C23.4199 28.4643 23.4134 24.1658 23.4117 19.8665C23.4117 18.193 23.402 16.5203 23.4044 14.8468C23.4085 11.7747 21.0031 9.94759 18.5205 9.99609C15.7851 10.0486 13.048 10.0026 10.3102 10.0139C10.1343 10.0194 9.95927 9.98688 9.79729 9.91848C9.63531 9.85008 9.49022 9.74746 9.37208 9.61774C7.60049 7.83915 5.81915 6.07133 4.02805 4.3143C3.76305 4.05479 3.70858 3.76698 3.80694 3.47028C3.91912 3.13396 4.2134 3.01351 4.57676 3.01431C11.1849 3.01916 17.7929 2.96257 24.3994 3.04584C26.9788 3.07818 29.1208 4.48246 30.071 7.16894C30.2972 7.81878 30.4094 8.50244 30.4027 9.19007C30.3913 13.0528 30.3978 16.9164 30.3978 20.7824Z" fill="#EBA417"/>
<path d="M11.2807 33.2212C9.42074 33.2212 7.56001 33.2689 5.70252 33.2099C3.10692 33.1291 0.697472 31.0424 0.162581 28.5136C0.0543324 28.0109 -0.000164144 27.4982 3.71366e-07 26.984C0.00758748 24.4002 0.00758748 21.8167 3.71366e-07 19.2334C3.71366e-07 18.6998 0.152826 18.2746 0.660891 18.0417C1.07547 17.8518 1.69328 18.0167 2.06396 18.3902C3.6979 20.034 5.34457 21.665 7.00398 23.2829C7.44214 23.7138 7.79738 24.2062 8.17863 24.6832C8.7062 25.3421 9.43944 25.7592 10.2458 26.0292C10.884 26.2435 11.5465 26.2847 12.2139 26.2807C13.8137 26.271 15.4143 26.2847 17.0141 26.271C17.3181 26.271 17.4327 26.3243 17.4295 26.6631C17.4124 28.7432 17.4157 30.8242 17.4295 32.9043C17.4295 33.1913 17.3482 33.2681 17.0629 33.2665C15.1355 33.2552 13.2072 33.2608 11.2799 33.2608L11.2807 33.2212Z" fill="#EBA417"/>
<path d="M15.1965 20.7468C14.6762 20.7468 14.1565 20.7468 13.6373 20.7468C12.9667 20.7468 12.5805 20.3943 12.5683 19.7435C12.5537 18.6699 12.5537 17.5955 12.5683 16.5202C12.5773 15.8557 12.9602 15.5072 13.6332 15.5056C14.6862 15.5056 15.7392 15.5056 16.7922 15.5056C17.4474 15.5056 17.849 15.8824 17.8547 16.5323C17.866 17.593 17.866 18.654 17.8547 19.7152C17.8473 20.3725 17.458 20.7411 16.7979 20.7452C16.2606 20.7492 15.7297 20.7468 15.1965 20.7468Z" fill="#EBA417"/>
<path d="M44.6504 27V8.51562H51.125C53.3678 8.51562 55.069 8.94727 56.2285 9.81055C57.388 10.6654 57.9678 11.9222 57.9678 13.5811C57.9678 14.4867 57.735 15.2865 57.2695 15.9805C56.804 16.666 56.1566 17.1696 55.3271 17.4912C56.2751 17.7282 57.0199 18.2064 57.5615 18.9258C58.1117 19.6452 58.3867 20.5254 58.3867 21.5664C58.3867 23.3438 57.8197 24.6895 56.6855 25.6035C55.5514 26.5176 53.9349 26.9831 51.8359 27H44.6504ZM48.459 18.9512V23.9404H51.7217C52.6188 23.9404 53.3171 23.7288 53.8164 23.3057C54.3242 22.874 54.5781 22.2816 54.5781 21.5283C54.5781 19.8356 53.7021 18.9766 51.9502 18.9512H48.459ZM48.459 16.2598H51.2773C53.1986 16.2259 54.1592 15.46 54.1592 13.9619C54.1592 13.124 53.9137 12.5231 53.4229 12.1592C52.9404 11.7868 52.1745 11.6006 51.125 11.6006H48.459V16.2598ZM60.6934 20.0049C60.6934 18.6423 60.9557 17.4277 61.4805 16.3613C62.0052 15.2949 62.7585 14.4697 63.7402 13.8857C64.7305 13.3018 65.8773 13.0098 67.1807 13.0098C69.0342 13.0098 70.5449 13.5768 71.7129 14.7109C72.8893 15.8451 73.5452 17.3854 73.6807 19.332L73.7061 20.2715C73.7061 22.3789 73.1178 24.0716 71.9414 25.3496C70.765 26.6191 69.1865 27.2539 67.2061 27.2539C65.2256 27.2539 63.6429 26.6191 62.458 25.3496C61.2816 24.0801 60.6934 22.3535 60.6934 20.1699V20.0049ZM64.3623 20.2715C64.3623 21.5749 64.6077 22.5736 65.0986 23.2676C65.5895 23.9531 66.292 24.2959 67.2061 24.2959C68.0947 24.2959 68.7887 23.9574 69.2881 23.2803C69.7874 22.5947 70.0371 21.5029 70.0371 20.0049C70.0371 18.7269 69.7874 17.7367 69.2881 17.0342C68.7887 16.3317 68.0863 15.9805 67.1807 15.9805C66.2835 15.9805 65.5895 16.3317 65.0986 17.0342C64.6077 17.7282 64.3623 18.8073 64.3623 20.2715ZM75.6445 20.0049C75.6445 18.6423 75.9069 17.4277 76.4316 16.3613C76.9564 15.2949 77.7096 14.4697 78.6914 13.8857C79.6816 13.3018 80.8285 13.0098 82.1318 13.0098C83.9854 13.0098 85.4961 13.5768 86.6641 14.7109C87.8405 15.8451 88.4964 17.3854 88.6318 19.332L88.6572 20.2715C88.6572 22.3789 88.069 24.0716 86.8926 25.3496C85.7161 26.6191 84.1377 27.2539 82.1572 27.2539C80.1768 27.2539 78.5941 26.6191 77.4092 25.3496C76.2327 24.0801 75.6445 22.3535 75.6445 20.1699V20.0049ZM79.3135 20.2715C79.3135 21.5749 79.5589 22.5736 80.0498 23.2676C80.5407 23.9531 81.2432 24.2959 82.1572 24.2959C83.0459 24.2959 83.7399 23.9574 84.2393 23.2803C84.7386 22.5947 84.9883 21.5029 84.9883 20.0049C84.9883 18.7269 84.7386 17.7367 84.2393 17.0342C83.7399 16.3317 83.0374 15.9805 82.1318 15.9805C81.2347 15.9805 80.5407 16.3317 80.0498 17.0342C79.5589 17.7282 79.3135 18.8073 79.3135 20.2715ZM98.6064 23.2041C98.6064 22.7555 98.3822 22.4043 97.9336 22.1504C97.4935 21.888 96.7826 21.6553 95.8008 21.4521C92.5339 20.7666 90.9004 19.3786 90.9004 17.2881C90.9004 16.0693 91.404 15.0537 92.4111 14.2412C93.4268 13.4202 94.7513 13.0098 96.3848 13.0098C98.1283 13.0098 99.5205 13.4202 100.562 14.2412C101.611 15.0622 102.136 16.1286 102.136 17.4404H98.4668C98.4668 16.9157 98.2975 16.484 97.959 16.1455C97.6204 15.7985 97.0915 15.625 96.3721 15.625C95.7542 15.625 95.276 15.7646 94.9375 16.0439C94.599 16.3232 94.4297 16.6787 94.4297 17.1104C94.4297 17.5166 94.6201 17.8467 95.001 18.1006C95.3903 18.346 96.042 18.5618 96.9561 18.748C97.8701 18.9258 98.6403 19.1289 99.2666 19.3574C101.205 20.0684 102.174 21.2998 102.174 23.0518C102.174 24.3044 101.636 25.32 100.562 26.0986C99.4867 26.8688 98.0986 27.2539 96.3975 27.2539C95.2464 27.2539 94.2223 27.0508 93.3252 26.6445C92.4365 26.2298 91.7383 25.667 91.2305 24.9561C90.7227 24.2367 90.4688 23.4622 90.4688 22.6328H93.9473C93.9811 23.2845 94.2223 23.7839 94.6709 24.1309C95.1195 24.4779 95.7204 24.6514 96.4736 24.6514C97.1761 24.6514 97.7051 24.5202 98.0605 24.2578C98.4245 23.987 98.6064 23.6357 98.6064 23.2041ZM109.19 9.88672V13.2637H111.539V15.9551H109.19V22.8105C109.19 23.3184 109.288 23.6823 109.482 23.9023C109.677 24.1224 110.049 24.2324 110.6 24.2324C111.006 24.2324 111.366 24.2028 111.679 24.1436V26.9238C110.959 27.1439 110.219 27.2539 109.457 27.2539C106.884 27.2539 105.572 25.9548 105.521 23.3564V15.9551H103.516V13.2637H105.521V9.88672H109.19ZM120.155 27.2539C118.141 27.2539 116.499 26.6361 115.229 25.4004C113.968 24.1647 113.338 22.5186 113.338 20.4619V20.1064C113.338 18.7269 113.604 17.4954 114.138 16.4121C114.671 15.3203 115.424 14.4824 116.397 13.8984C117.379 13.306 118.496 13.0098 119.749 13.0098C121.628 13.0098 123.105 13.6022 124.18 14.7871C125.263 15.972 125.805 17.652 125.805 19.8271V21.3252H117.058C117.176 22.2223 117.532 22.9417 118.124 23.4834C118.725 24.0251 119.482 24.2959 120.396 24.2959C121.81 24.2959 122.914 23.7839 123.71 22.7598L125.513 24.7783C124.963 25.557 124.218 26.1663 123.278 26.6064C122.339 27.0381 121.298 27.2539 120.155 27.2539ZM119.736 15.9805C119.008 15.9805 118.416 16.2259 117.959 16.7168C117.51 17.2077 117.223 17.9102 117.096 18.8242H122.199V18.5322C122.182 17.7197 121.962 17.0934 121.539 16.6533C121.116 16.2048 120.515 15.9805 119.736 15.9805ZM135.868 16.7041C135.369 16.6364 134.929 16.6025 134.548 16.6025C133.16 16.6025 132.25 17.0723 131.818 18.0117V27H128.149V13.2637H131.615L131.717 14.9014C132.453 13.6403 133.473 13.0098 134.776 13.0098C135.183 13.0098 135.563 13.0648 135.919 13.1748L135.868 16.7041Z" fill="white"/>
</svg>
