<svg width="53" height="48" viewBox="0 0 53 48" fill="none" xmlns="http://www.w3.org/2000/svg">
<path d="M24.3735 22.8307C24.4893 22.7157 24.6459 22.6512 24.8092 22.6514C24.9729 22.6515 25.1299 22.7166 25.2457 22.8324C25.3615 22.9481 25.4266 23.1051 25.4267 23.2689C25.4269 23.4325 25.3621 23.5895 25.2466 23.7054C25.2466 23.7055 25.2465 23.7056 25.2464 23.7057L20.8156 28.1365L20.8156 28.1365C20.7582 28.1939 20.6901 28.2394 20.6151 28.2705C20.5401 28.3015 20.4598 28.3175 20.3786 28.3175C20.2975 28.3175 20.2171 28.3015 20.1421 28.2705C20.0672 28.2394 19.999 28.1939 19.9417 28.1365L19.9416 28.1365L17.9068 26.1019C17.9068 26.1019 17.9068 26.1019 17.9068 26.1019C17.7909 25.986 17.7258 25.8288 17.7258 25.6649C17.7258 25.501 17.7909 25.3438 17.9069 25.2279C18.0228 25.112 18.18 25.0469 18.3439 25.0469C18.5078 25.0469 18.665 25.112 18.7809 25.2279L20.0251 26.4721L20.3786 26.8256L20.7322 26.4721L24.3724 22.8317L24.3735 22.8307ZM24.3735 22.8307L24.3729 22.8312L24.3735 22.8307Z" stroke="url(#paint0_linear)"/>
<path d="M42.2 15.9362C42.2 16.7811 41.515 17.4661 40.6701 17.4661C39.8251 17.4661 39.1401 16.7811 39.1401 15.9362C39.1401 15.0912 39.8251 14.4062 40.6701 14.4062C41.515 14.4062 42.2 15.0912 42.2 15.9362Z" stroke="url(#paint1_linear)"/>
<path d="M32.6534 15.9362C32.6534 16.7812 31.9684 17.4661 31.1235 17.4661C30.2785 17.4661 29.5935 16.7812 29.5935 15.9362C29.5935 15.0912 30.2785 14.4062 31.1235 14.4062C31.9684 14.4062 32.6534 15.0912 32.6534 15.9362Z" stroke="url(#paint2_linear)"/>
<path d="M23.107 15.9362C23.107 16.7812 22.4221 17.4662 21.5771 17.4662C20.7321 17.4662 20.0471 16.7812 20.0471 15.9362C20.0471 15.0912 20.7321 14.4062 21.5771 14.4062C22.4221 14.4062 23.107 15.0912 23.107 15.9362Z" stroke="url(#paint3_linear)"/>
<path d="M13.5607 15.9362C13.5607 16.7812 12.8757 17.4662 12.0307 17.4662C11.1857 17.4662 10.5007 16.7812 10.5007 15.9362C10.5007 15.0912 11.1857 14.4062 12.0307 14.4062C12.8757 14.4062 13.5607 15.0912 13.5607 15.9362Z" stroke="url(#paint4_linear)"/>
<path d="M42.2 25.4831C42.2 26.328 41.515 27.013 40.6701 27.013C39.8251 27.013 39.1401 26.328 39.1401 25.4831C39.1401 24.6381 39.8251 23.9531 40.6701 23.9531C41.515 23.9531 42.2 24.6381 42.2 25.4831Z" stroke="url(#paint5_linear)"/>
<path d="M32.6534 25.4831C32.6534 26.328 31.9684 27.013 31.1235 27.013C30.2785 27.013 29.5935 26.328 29.5935 25.4831C29.5935 24.6381 30.2785 23.9531 31.1235 23.9531C31.9684 23.9531 32.6534 24.6381 32.6534 25.4831Z" stroke="url(#paint6_linear)"/>
<path d="M13.5607 25.4831C13.5607 26.3281 12.8757 27.013 12.0307 27.013C11.1857 27.013 10.5007 26.3281 10.5007 25.4831C10.5007 24.6381 11.1857 23.9531 12.0307 23.9531C12.8757 23.9531 13.5607 24.6381 13.5607 25.4831Z" stroke="url(#paint7_linear)"/>
<path d="M42.2 35.0299C42.2 35.8749 41.515 36.5599 40.6701 36.5599C39.8251 36.5599 39.1401 35.8749 39.1401 35.0299C39.1401 34.185 39.8251 33.5 40.6701 33.5C41.515 33.5 42.2 34.185 42.2 35.0299Z" stroke="url(#paint8_linear)"/>
<path d="M32.6534 35.0299C32.6534 35.8749 31.9684 36.5599 31.1234 36.5599C30.2785 36.5599 29.5935 35.8749 29.5935 35.0299C29.5935 34.185 30.2785 33.5 31.1234 33.5C31.9684 33.5 32.6534 34.185 32.6534 35.0299Z" stroke="url(#paint9_linear)"/>
<path d="M23.107 35.03C23.107 35.8749 22.4221 36.5599 21.5771 36.5599C20.7321 36.5599 20.0471 35.8749 20.0471 35.03C20.0471 34.185 20.7321 33.5 21.5771 33.5C22.4221 33.5 23.107 34.185 23.107 35.03Z" stroke="url(#paint10_linear)"/>
<path d="M13.5607 35.03C13.5607 35.8749 12.8757 36.5599 12.0307 36.5599C11.1857 36.5599 10.5007 35.8749 10.5007 35.03C10.5007 34.185 11.1857 33.5 12.0307 33.5C12.8757 33.5 13.5607 34.185 13.5607 35.03Z" stroke="url(#paint11_linear)"/>
<path d="M39.8726 3.05917V3.55917H40.3726H47.7649C48.9698 3.56071 50.1249 4.04004 50.9769 4.89205C51.829 5.74414 52.3084 6.89942 52.3098 8.10446V42.9547C52.3084 44.1598 51.829 45.315 50.9769 46.1671C50.1248 47.0192 48.9696 47.4986 47.7645 47.5H5.04528C3.84024 47.4986 2.68497 47.0192 1.83287 46.1671C0.980848 45.3151 0.501517 44.1599 0.5 42.955V8.10417C0.501519 6.89924 0.980852 5.74408 1.83288 4.89206C2.68489 4.04005 3.84001 3.56073 5.04491 3.55919H12.4372H12.9372V3.05919V2.2053C12.9372 1.98144 12.9813 1.75976 13.067 1.55294C13.1526 1.34611 13.2782 1.15819 13.4365 0.999889C13.5948 0.841592 13.7827 0.716024 13.9895 0.630354C14.1964 0.544684 14.418 0.50059 14.6419 0.50059C14.8658 0.50059 15.0874 0.544684 15.2943 0.630354C15.5011 0.716023 15.689 0.841591 15.8473 0.999889C16.0056 1.15819 16.1312 1.34611 16.2169 1.55294C16.3025 1.75976 16.3466 1.98144 16.3466 2.2053V3.05919V3.55919H16.8466H24.2138H24.7138V3.05919V2.20572C24.7141 1.75547 24.8924 1.32361 25.2097 1.00415C25.5235 0.688171 25.9482 0.507481 26.3931 0.500258L26.405 0.500976L26.4168 0.500259C26.8616 0.507511 27.2863 0.688196 27.6001 1.00415C27.9174 1.3236 28.0956 1.75546 28.096 2.20571V3.05917V3.55917H28.596H35.9632H36.4632V3.05917V2.20529C36.4632 1.75317 36.6428 1.31957 36.9625 0.999872C37.2822 0.680177 37.7158 0.500573 38.1679 0.500573C38.62 0.500573 39.0536 0.680177 39.3733 0.999872C39.693 1.31957 39.8726 1.75317 39.8726 2.20529V3.05917ZM48.9004 42.9559V42.9553L48.9004 8.10387V8.10326C48.9 7.80244 48.7803 7.51404 48.5676 7.30134C48.3549 7.08862 48.0665 6.96896 47.7657 6.9686H47.7651H40.3726H39.8726V7.4686V8.32367C39.8726 8.77579 39.693 9.20939 39.3733 9.52909C39.0536 9.84878 38.62 10.0284 38.1679 10.0284C37.7158 10.0284 37.2822 9.84878 36.9625 9.52909C36.6428 9.20939 36.4632 8.77579 36.4632 8.32367V7.4686V6.9686H35.9632H28.596H28.096V7.4686V8.32308C28.0955 8.77333 27.9172 9.20515 27.5999 9.52461C27.2856 9.84108 26.86 10.0219 26.4144 10.0288L26.405 10.0283L26.3955 10.0288C25.9498 10.0219 25.5242 9.84111 25.2099 9.5246C24.8926 9.20515 24.7143 8.77333 24.7138 8.32308V7.4686V6.9686H24.2138H16.8466H16.3466V7.4686V8.32367C16.3466 8.77579 16.167 9.20939 15.8473 9.52909C15.5276 9.84878 15.094 10.0284 14.6419 10.0284C14.1898 10.0284 13.7562 9.84878 13.4365 9.52909C13.1168 9.20939 12.9372 8.77579 12.9372 8.32367V7.4686V6.9686H12.4372L5.04469 6.9686L5.04408 6.9686C4.74326 6.96896 4.45487 7.08862 4.24216 7.30134C4.02945 7.51405 3.90979 7.80244 3.90942 8.10326V8.10387L3.90942 42.9553L3.90942 42.9559C3.90979 43.2567 4.02945 43.5451 4.24216 43.7578C4.45488 43.9706 4.74327 44.0902 5.04408 44.0906H5.04469H47.7651H47.7657C48.0665 44.0902 48.3549 43.9706 48.5676 43.7578C48.7803 43.5451 48.9 43.2567 48.9004 42.9559Z" stroke="url(#paint12_linear)"/>
<defs>
<linearGradient id="paint0_linear" x1="17.2258" y1="25.4844" x2="25.4404" y2="25.4844" gradientUnits="userSpaceOnUse">
<stop stop-color="#61DCFB"/>
<stop offset="1" stop-color="#61A1FB"/>
</linearGradient>
<linearGradient id="paint1_linear" x1="38.6401" y1="15.9362" x2="42.4731" y2="15.9362" gradientUnits="userSpaceOnUse">
<stop stop-color="#61DCFB"/>
<stop offset="1" stop-color="#61A1FB"/>
</linearGradient>
<linearGradient id="paint2_linear" x1="29.0935" y1="15.9362" x2="32.9265" y2="15.9362" gradientUnits="userSpaceOnUse">
<stop stop-color="#61DCFB"/>
<stop offset="1" stop-color="#61A1FB"/>
</linearGradient>
<linearGradient id="paint3_linear" x1="19.5471" y1="15.9362" x2="23.3801" y2="15.9362" gradientUnits="userSpaceOnUse">
<stop stop-color="#61DCFB"/>
<stop offset="1" stop-color="#61A1FB"/>
</linearGradient>
<linearGradient id="paint4_linear" x1="10.0007" y1="15.9362" x2="13.8337" y2="15.9362" gradientUnits="userSpaceOnUse">
<stop stop-color="#61DCFB"/>
<stop offset="1" stop-color="#61A1FB"/>
</linearGradient>
<linearGradient id="paint5_linear" x1="38.6401" y1="25.4831" x2="42.4731" y2="25.4831" gradientUnits="userSpaceOnUse">
<stop stop-color="#61DCFB"/>
<stop offset="1" stop-color="#61A1FB"/>
</linearGradient>
<linearGradient id="paint6_linear" x1="29.0935" y1="25.4831" x2="32.9265" y2="25.4831" gradientUnits="userSpaceOnUse">
<stop stop-color="#61DCFB"/>
<stop offset="1" stop-color="#61A1FB"/>
</linearGradient>
<linearGradient id="paint7_linear" x1="10.0007" y1="25.4831" x2="13.8337" y2="25.4831" gradientUnits="userSpaceOnUse">
<stop stop-color="#61DCFB"/>
<stop offset="1" stop-color="#61A1FB"/>
</linearGradient>
<linearGradient id="paint8_linear" x1="38.6401" y1="35.0299" x2="42.4731" y2="35.0299" gradientUnits="userSpaceOnUse">
<stop stop-color="#61DCFB"/>
<stop offset="1" stop-color="#61A1FB"/>
</linearGradient>
<linearGradient id="paint9_linear" x1="29.0935" y1="35.0299" x2="32.9265" y2="35.0299" gradientUnits="userSpaceOnUse">
<stop stop-color="#61DCFB"/>
<stop offset="1" stop-color="#61A1FB"/>
</linearGradient>
<linearGradient id="paint10_linear" x1="19.5471" y1="35.03" x2="23.3801" y2="35.03" gradientUnits="userSpaceOnUse">
<stop stop-color="#61DCFB"/>
<stop offset="1" stop-color="#61A1FB"/>
</linearGradient>
<linearGradient id="paint11_linear" x1="10.0007" y1="35.03" x2="13.8337" y2="35.03" gradientUnits="userSpaceOnUse">
<stop stop-color="#61DCFB"/>
<stop offset="1" stop-color="#61A1FB"/>
</linearGradient>
<linearGradient id="paint12_linear" x1="3.19689e-07" y1="24" x2="49.858" y2="24" gradientUnits="userSpaceOnUse">
<stop stop-color="#61DCFB"/>
<stop offset="1" stop-color="#61A1FB"/>
</linearGradient>
</defs>
</svg>
