<svg width="48" height="48" viewBox="0 0 48 48" fill="none" xmlns="http://www.w3.org/2000/svg">
<path d="M39.6215 31.7175L39.6214 31.7176C39.5314 31.809 39.436 31.8945 39.3543 31.9677C39.342 31.9787 39.33 31.9895 39.3183 32L39.3171 32.0011C39.3046 32.0122 39.203 32.1091 39.1444 32.1578C39.0933 32.2007 39.0163 32.2573 38.9705 32.2909C38.955 32.3024 38.943 32.3112 38.9369 32.3159L38.9368 32.316C38.0259 33.0163 36.9261 33.484 35.7241 33.6189L35.7184 33.6198L35.7169 33.62C35.7079 33.6215 35.6861 33.6251 35.6616 33.6277L35.6587 33.628C35.4425 33.6497 35.2219 33.6617 34.998 33.6617C34.7741 33.6617 34.5535 33.6497 34.3373 33.628L34.3315 33.6275V33.6274C34.325 33.6267 34.319 33.6259 34.3135 33.6252C34.3076 33.6244 34.3023 33.6236 34.2979 33.6229L34.2784 33.6198C34.2766 33.6195 34.2752 33.6193 34.2742 33.6191C34.2729 33.6189 34.2723 33.6188 34.2723 33.6188L39.6215 31.7175ZM39.6215 31.7175C40.7812 30.538 41.5 28.9185 41.496 27.1323L39.6215 31.7175ZM29.5 38.1862V37.6862H29H0.5V0.5H47.5V37.6862H41H40.5V38.1862V47.1147L35.2582 43.9542L35 43.7985L34.7418 43.9542L29.5 47.1147V38.1862ZM39.265 31.3669C39.1869 31.4462 39.1044 31.5202 39.0219 31.5942C39.0092 31.6055 38.9966 31.6168 38.984 31.6282L39.265 31.3669ZM38.7418 44.8789L38.8609 44.9507H39H39.002H39.502V44.4507V38.1862V34.0962V33.2198L38.7536 33.6622C38.7516 33.6632 38.7484 33.6647 38.7435 33.6668L38.7397 33.6686C38.7324 33.6718 38.7207 33.6771 38.7096 33.6823C38.6952 33.6891 38.6763 33.6982 38.6556 33.7095L38.6555 33.7095L38.649 33.7132C38.4028 33.8523 38.1507 33.9777 37.8917 34.0871L37.8885 34.0882C37.8852 34.0894 37.8794 34.0914 37.872 34.0942C37.8645 34.097 37.8554 34.1005 37.8458 34.1045C36.9672 34.4682 36.008 34.6715 35.001 34.6715C33.994 34.6715 33.0348 34.4682 32.1562 34.1045L32.1563 34.1044L32.1453 34.1001C32.1369 34.0969 32.1296 34.0942 32.1243 34.0923L32.1142 34.0887C31.8546 33.9793 31.6009 33.8523 31.3517 33.7124L31.3517 33.7124L31.3464 33.7095C31.3257 33.6982 31.3068 33.6891 31.2924 33.6823C31.2812 33.6771 31.2696 33.6718 31.2623 33.6685L31.2585 33.6668C31.2536 33.6647 31.2504 33.6632 31.2484 33.6622L30.5 33.2198V34.0962V38.1862V44.4507V45.336L31.2582 44.8789L35 42.6228L38.7418 44.8789ZM37.8962 34.0855L37.8947 34.0861C37.8966 34.0854 37.8974 34.0851 37.8962 34.0855ZM2 1.5098H1.5V2.0098V36.1764V36.6764H2H29H29.5V36.1764V32.4321V32.2441L29.3761 32.1027C28.2109 30.7723 27.5 29.036 27.5 27.1323C27.5 22.9735 30.8674 19.5931 35 19.5931C39.1326 19.5931 42.5 22.9735 42.5 27.1323C42.5 29.036 41.7891 30.7723 40.6239 32.1027L40.5 32.2441V32.4321V36.1764V36.6764H41H46H46.5V36.1764V2.0098V1.5098H46H2Z" stroke="url(#paint0_linear)"/>
<path d="M11.5 6.5293H36.5V7.53909H11.5V6.5293Z" stroke="url(#paint1_linear)"/>
<path d="M16.5 12.5586H31.5V13.5684H16.5V12.5586Z" stroke="url(#paint2_linear)"/>
<path d="M6.5 30.6465H16.5V31.6563H6.5V30.6465Z" stroke="url(#paint3_linear)"/>
<defs>
<linearGradient id="paint0_linear" x1="2.90573e-07" y1="24" x2="45.3171" y2="24" gradientUnits="userSpaceOnUse">
<stop stop-color="#61DCFB"/>
<stop offset="1" stop-color="#61A1FB"/>
</linearGradient>
<linearGradient id="paint1_linear" x1="11" y1="7.0342" x2="35.5467" y2="7.0342" gradientUnits="userSpaceOnUse">
<stop stop-color="#61DCFB"/>
<stop offset="1" stop-color="#61A1FB"/>
</linearGradient>
<linearGradient id="paint2_linear" x1="16" y1="13.0635" x2="31.1057" y2="13.0635" gradientUnits="userSpaceOnUse">
<stop stop-color="#61DCFB"/>
<stop offset="1" stop-color="#61A1FB"/>
</linearGradient>
<linearGradient id="paint3_linear" x1="6" y1="31.1514" x2="16.3852" y2="31.1514" gradientUnits="userSpaceOnUse">
<stop stop-color="#61DCFB"/>
<stop offset="1" stop-color="#61A1FB"/>
</linearGradient>
</defs>
</svg>
