<svg xmlns="http://www.w3.org/2000/svg" xmlns:xlink="http://www.w3.org/1999/xlink" viewBox="0 0 295.03 293.24"><defs><style>.cls-1{fill:#d7f277;}.cls-13,.cls-18,.cls-2{fill:#bef264;}.cls-12,.cls-13,.cls-17,.cls-2,.cls-21,.cls-27,.cls-3,.cls-30,.cls-4,.cls-7{stroke:#263238;}.cls-12,.cls-13,.cls-14,.cls-17,.cls-2,.cls-21,.cls-27,.cls-3,.cls-4,.cls-7{stroke-linecap:round;stroke-linejoin:round;}.cls-3,.cls-30,.cls-32,.cls-5{fill:#fff;}.cls-24,.cls-4{fill:#181620;}.cls-12,.cls-17,.cls-28,.cls-6{fill:#f2f2f2;}.cls-7{fill:#313b40;}.cls-29,.cls-8{opacity:0.7;}.cls-9{fill:#d36a60;}.cls-10{fill:#e8be59;}.cls-11{fill:#85c45d;}.cls-12,.cls-13{opacity:0.3;}.cls-14,.cls-21,.cls-23{fill:none;}.cls-14,.cls-23{stroke:#313b40;}.cls-15{clip-path:url(#clip-path);}.cls-16{fill:#4c4f2f;opacity:0.2;}.cls-19{clip-path:url(#clip-path-2);}.cls-20{fill:#a4c159;}.cls-22{clip-path:url(#clip-path-3);}.cls-23,.cls-30{stroke-miterlimit:10;}.cls-25{clip-path:url(#clip-path-4);}.cls-26{fill:#d6e8a7;}.cls-27{fill:#394a51;}.cls-28,.cls-32{opacity:0.1;}.cls-29{fill:#a5f257;}.cls-31{clip-path:url(#clip-path-5);}.cls-33{font-size:6.76px;fill:#263238;font-family:Ubuntu-Medium, Ubuntu;font-weight:500;}.cls-34{letter-spacing:0.01em;}</style><clipPath id="clip-path"><path class="cls-1" d="M269.26,274.2c-.74,5.69-1.58,11.85-2.54,18.54H180.88l.41-11.06c-5.13,1.24-15.1.48-15.1.48V265.81c6.06-3.43,7-2.47,7-2.47s.31-39.9,3.94-49.86a20.09,20.09,0,0,1,7.1-9.34h0a24.31,24.31,0,0,1,2.71-1.75l.13-.08c1-.53,2.21-1.09,3.59-1.67l.38-.15c13.44-5.49,42.77-11.86,70.1-.18,1.91.82,17.51,8.27,18.84,19C280.7,225.48,276.52,256,269.26,274.2Z"/></clipPath><clipPath id="clip-path-2"><path class="cls-2" d="M200.55,269.18a3.55,3.55,0,0,1,4.1-1,3.67,3.67,0,0,1,4.06-.28c2,1.32,6,16.33,2.11,19.13-1.13.81-4.25,1.56-5.21-.06a2.37,2.37,0,0,1-3.65-1.15c-1.12-2.6.92-5.82-2-13.39A3.17,3.17,0,0,1,200.55,269.18Z"/></clipPath><clipPath id="clip-path-3"><path class="cls-3" d="M235.83,195.07l-1.43-20.14-20.85,4.82-1.11,16.18c-1.31.17-2.57.35-3.79.54l5.1,12.22,10,1.31,15.94-14.69C238.36,195.21,237.08,195.13,235.83,195.07Z"/></clipPath><clipPath id="clip-path-4"><path class="cls-2" d="M211.41,195l7.7,13.86,18.49-14.6,5.68.8-12,21.16a1.63,1.63,0,0,1-2.28.56l-10.23-6.45-8,4.87a1.62,1.62,0,0,1-2.47-1.21l-2-18.05Z"/></clipPath><clipPath id="clip-path-5"><path class="cls-4" d="M167.43,269.84H62.57a5,5,0,0,1-4.78-4.26l-9.1-74.11a3.69,3.69,0,0,1,3.74-4.26H157.28a5,5,0,0,1,4.79,4.26l9.1,74.11A3.69,3.69,0,0,1,167.43,269.84Z"/></clipPath></defs><g id="Layer_2" data-name="Layer 2"><g id="Coding"><rect class="cls-5" x="13.73" y="0.5" width="266.6" height="173.2"/><polygon class="cls-6" points="280.33 0.5 13.73 0.5 13.73 173.7 41.92 173.7 86.61 173.7 280.33 173.7 280.33 0.5"/><rect class="cls-5" x="13.73" y="0.5" width="266.6" height="22.66"/><rect class="cls-7" x="13.73" y="0.5" width="266.6" height="22.66"/><rect class="cls-7" x="23.73" y="33.16" width="246.6" height="130.54" rx="5.22"/><path class="cls-6" d="M254.83,121.9H237.3a2,2,0,0,1,0-4h17.53a2,2,0,0,1,0,4Z"/><path class="cls-6" d="M254.83,135.73H205.9a2,2,0,0,1,0-4h48.93a2,2,0,0,1,0,4Z"/><path class="cls-6" d="M254.83,149.57H147a2,2,0,0,1,0-4h107.8a2,2,0,0,1,0,4Z"/><path class="cls-6" d="M42.23,108.07H34.07a2,2,0,1,1,0-4h8.16a2,2,0,0,1,0,4Z"/><path class="cls-6" d="M42.23,121.9H34.07a2,2,0,1,1,0-4h8.16a2,2,0,0,1,0,4Z"/><path class="cls-6" d="M42.23,135.73H34.07a2,2,0,1,1,0-4h8.16a2,2,0,0,1,0,4Z"/><path class="cls-6" d="M42.23,149.57H34.07a2,2,0,1,1,0-4h8.16a2,2,0,0,1,0,4Z"/><g class="cls-8"><path class="cls-6" d="M42.23,108.07H34.07a2,2,0,1,1,0-4h8.16a2,2,0,0,1,0,4Z"/></g><g class="cls-8"><path class="cls-6" d="M42.23,121.9H34.07a2,2,0,1,1,0-4h8.16a2,2,0,0,1,0,4Z"/></g><g class="cls-8"><path class="cls-6" d="M42.23,135.73H34.07a2,2,0,1,1,0-4h8.16a2,2,0,0,1,0,4Z"/></g><g class="cls-8"><path class="cls-6" d="M42.23,149.57H34.07a2,2,0,1,1,0-4h8.16a2,2,0,0,1,0,4Z"/></g><path class="cls-6" d="M205.9,94.23H34.07a2,2,0,0,1,0-4H205.9a2,2,0,0,1,0,4Z"/><path class="cls-6" d="M254.83,66.57H237.3a2,2,0,0,1,0-4h17.53a2,2,0,0,1,0,4Z"/><path class="cls-6" d="M230,66.57H213.23a2,2,0,0,1,0-4H230a2,2,0,1,1,0,4Z"/><path class="cls-6" d="M205.9,66.57H34.07a2,2,0,1,1,0-4H205.9a2,2,0,1,1,0,4Z"/><path class="cls-6" d="M254.83,108.07H237.3a2,2,0,0,1,0-4h17.53a2,2,0,0,1,0,4Z"/><path class="cls-6" d="M230,108.07H51.23a2,2,0,1,1,0-4H230a2,2,0,0,1,0,4Z"/><path class="cls-6" d="M102.56,121.9H51.23a2,2,0,1,1,0-4h51.33a2,2,0,0,1,0,4Z"/><path class="cls-6" d="M102.56,135.73H51.23a2,2,0,1,1,0-4h51.33a2,2,0,0,1,0,4Z"/><path class="cls-6" d="M102.56,149.57H51.23a2,2,0,1,1,0-4h51.33a2,2,0,0,1,0,4Z"/><circle class="cls-9" cx="27.81" cy="11.83" r="4.07"/><circle class="cls-10" cx="39.06" cy="11.83" r="4.07"/><circle class="cls-11" cx="50.15" cy="11.83" r="4.07"/></g><g id="Character_1" data-name="Character 1"><path class="cls-3" d="M113.49,276s-5.25,9-3.18,9.36,6.39-7.48,6.39-7.48l11.84-3.14-8.92-.92Z"/><path class="cls-12" d="M113.49,276s-5.25,9-3.18,9.36,6.39-7.48,6.39-7.48l11.84-3.14-8.92-.92Z"/><path class="cls-3" d="M117.48,269.89s-7.34-1.75-9.36,1.7-8,13.64-5.74,14.81,4.16-2.6,4.16-2.6Z"/><path class="cls-3" d="M147.5,280.35a33.39,33.39,0,0,1-15,1.58l-8.35,2.77s-7.34,3.62-10.76,1.79,8.7-5.84,8.7-5.84,8.15-3.52,5.72-4.37-11.63-.69-13.44.7-6.54,10.36-10,9.85,1.45-5.4,2.67-7.28,4-9.39,9.57-9.7,24.36.65,24.36.65l22.09-2.36,5.22,12.56Z"/><path class="cls-2" d="M159,283.46a3.54,3.54,0,0,0,4.21-.07,3.69,3.69,0,0,0,4-.73c1.61-1.78,1.75-17.3-2.71-19.05-1.29-.51-4.51-.46-5,1.34a2.36,2.36,0,0,0-3.24,2c-.45,2.8,2.34,5.4,1.41,13.46A3.18,3.18,0,0,0,159,283.46Z"/><path class="cls-13" d="M159,283.46a3.54,3.54,0,0,0,4.21-.07,3.69,3.69,0,0,0,4-.73c1.61-1.78,1.75-17.3-2.71-19.05-1.29-.51-4.51-.46-5,1.34a2.36,2.36,0,0,0-3.24,2c-.45,2.8,2.34,5.4,1.41,13.46A3.18,3.18,0,0,0,159,283.46Z"/><path class="cls-14" d="M164.12,279.84a30,30,0,0,0-2.64-12.27"/><path class="cls-1" d="M269.26,274.2c-.74,5.69-1.58,11.85-2.54,18.54H180.88l.41-11.06c-5.13,1.24-15.1.48-15.1.48V265.81c6.06-3.43,7-2.47,7-2.47s.31-39.9,3.94-49.86a20.09,20.09,0,0,1,7.1-9.34h0a24.31,24.31,0,0,1,2.71-1.75l.13-.08c1-.53,2.21-1.09,3.59-1.67l.38-.15c13.44-5.49,42.77-11.86,70.1-.18,1.91.82,17.51,8.27,18.84,19C280.7,225.48,276.52,256,269.26,274.2Z"/><g class="cls-15"><path class="cls-16" d="M255.66,225l-8.56,39.73c-1.33-1.05-5.16-1.12-10-.66a15.66,15.66,0,0,0,2.59-3.88C252.6,232.2,255.43,225.57,255.66,225Z"/><path class="cls-16" d="M271.3,268.66a176,176,0,0,0-4.58,24.08H180.88l.79-12.74c5.35-.76,14.74-1.54,24.49-3.27a21.76,21.76,0,0,1,.23,9.31s39.48,4.9,52.73,1.71c3.78-.91,7.2-6.19,10.13-13.46C270,272.52,270.64,270.63,271.3,268.66Z"/><path class="cls-16" d="M174.17,264.09s-1.92-1.71-8,1.72v16.35s10-.36,13.93-2.48c3.38,2.08,2.78-36.18,3.38-56.79-4.9,1.34-5.3,10.67-6.05,19.44A176.76,176.76,0,0,1,174.17,264.09Z"/></g><path class="cls-14" d="M279.94,219.34c0,.24.06.52.07.83.44,7.68-3.74,36.66-10.76,54.12-2.93,7.27-6.35,12.55-10.13,13.46-13.25,3.19-52.73-1.71-52.73-1.71a21.88,21.88,0,0,0-2.95-15.7s38.76-9.48,43.66-5.6L255.68,225"/><path class="cls-14" d="M249.8,266.9a17.59,17.59,0,0,1,6.86,5.89"/><path class="cls-3" d="M151.05,268.33s-3.61-.76-5.08.88-7.77,11.12-5.64,12.92,6.46-8.09,6.46-8.09Z"/><path class="cls-3" d="M158.31,268.16s-8-1.73-9.82.73-11.92,15.12-5.63,15.53l10.06-11.28Z"/><path class="cls-17" d="M176.46,281.64s-8.25,1.8-11.6,2.45-9.57,5-13.25,3.27,12-8.09,12-8.09L169,277.1Z"/><path class="cls-14" d="M183.14,232.27q.17-4.7.35-9.38"/><path class="cls-14" d="M180.88,292.74c1.53-18.93,2.1-56.21,2.1-56.21"/><path class="cls-3" d="M206.39,271.42H177.94s-22.08-6.62-25.76-1.47-11.52,13-9.32,14.47,11.53-9.2,11.53-9.2l8.09.08s-6.86,3-8.33,4.46-4.66,5.64-3,6.38,7.11-4.66,7.11-4.66,8.1-2,10.06-1a27.85,27.85,0,0,0,20.36,2l21.71,2.69Z"/><path class="cls-14" d="M252.71,238.74a42.14,42.14,0,0,1-.09-13.77"/><path class="cls-14" d="M259.16,214.89s13.8-18.19,20.78,4.45"/><path class="cls-18" d="M200.55,269.18a3.55,3.55,0,0,1,4.1-1,3.67,3.67,0,0,1,4.06-.28c2,1.32,6,16.33,2.11,19.13-1.13.81-4.25,1.56-5.21-.06a2.37,2.37,0,0,1-3.65-1.15c-1.12-2.6.92-5.82-2-13.39A3.17,3.17,0,0,1,200.55,269.18Z"/><g class="cls-19"><path class="cls-20" d="M200.55,269.18a3.55,3.55,0,0,1,4.1-1,3.67,3.67,0,0,1,4.06-.28c2,1.32,6,16.33,2.11,19.13-1.13.81-4.25,1.56-5.21-.06a2.37,2.37,0,0,1-3.65-1.15c-1.12-2.6.92-5.82-2-13.39A3.17,3.17,0,0,1,200.55,269.18Z"/></g><path class="cls-21" d="M200.55,269.18a3.55,3.55,0,0,1,4.1-1,3.67,3.67,0,0,1,4.06-.28c2,1.32,6,16.33,2.11,19.13-1.13.81-4.25,1.56-5.21-.06a2.37,2.37,0,0,1-3.65-1.15c-1.12-2.6.92-5.82-2-13.39A3.17,3.17,0,0,1,200.55,269.18Z"/><path class="cls-14" d="M206.87,277a25.08,25.08,0,0,1,.08,7"/><path class="cls-3" d="M219.37,232.06a1.94,1.94,0,1,1-1.83-2.06A1.95,1.95,0,0,1,219.37,232.06Z"/><path class="cls-3" d="M218,262.25a1.95,1.95,0,1,1-1.83-2.05A1.95,1.95,0,0,1,218,262.25Z"/><path class="cls-5" d="M235.83,195.07l-1.43-20.14-20.85,4.82-1.11,16.18c-1.31.17-2.57.35-3.79.54l5.1,12.22,10,1.31,15.94-14.69C238.36,195.21,237.08,195.13,235.83,195.07Z"/><g class="cls-22"><path class="cls-7" d="M213.24,186.89c.14,14.33,16.89,9.93,21.52-4.38l-.36-7.58-20.85,4.82Z"/></g><path class="cls-21" d="M235.83,195.07l-1.43-20.14-20.85,4.82-1.11,16.18c-1.31.17-2.57.35-3.79.54l5.1,12.22,10,1.31,15.94-14.69C238.36,195.21,237.08,195.13,235.83,195.07Z"/><path class="cls-7" d="M200.47,157.92s-7.62-13.18-8.75-20.14c-3.48-21.47,12-14.22,12-14.22s11-9.81,24.61-8.09,17.25,7.52,26.43,11.09c0,0-6.89,35-15.72,42.86S200.47,157.92,200.47,157.92Z"/><path class="cls-14" d="M204.48,126.75S201,118.41,209.75,112"/><path class="cls-23" d="M219.46,121.74c10.19-4.51,14.73,3,26.11,5"/><path class="cls-23" d="M211.59,126.75a12.94,12.94,0,0,1,3.3-3"/><path class="cls-23" d="M222.05,130s4.41-4.24,13.15,1.26a22.84,22.84,0,0,0,8.74,3.45"/><path class="cls-3" d="M235.53,139.17c-12.69.33-25.78-5.39-25.78-5.39-11.82,7.13-10.06,18.72-10.06,18.72,2.7,27.7,6.35,35.07,19.29,35.07s23.46-14,24.3-33.94C238.39,153.86,235.53,139.17,235.53,139.17Z"/><path class="cls-3" d="M242.2,152.5a3.34,3.34,0,0,1,2.6-1.47c2.3,0,4,3,3.18,6.74s-1.86,6.75-4.16,6.75a2.6,2.6,0,0,1-2.37-1.76"/><path class="cls-14" d="M217,166.09s1.55,2.13-1.42,3.72-5.34,1.56-6.09-.26,2.54-17,2.54-17"/><path class="cls-14" d="M211.52,155c-1.6-.81-8-3.61-14.08.21l.39,5.88s2.24,1.23,7.38,1.23a20.65,20.65,0,0,0,5-.52"/><path class="cls-14" d="M216.83,155.19l1.86,6.13s.76,1,5.91,1,6.84-1.23,6.84-1.23l-.15-5.88S223.82,150.78,216.83,155.19Z"/><line class="cls-14" x1="211.93" y1="155.19" x2="216.83" y2="155.19"/><path class="cls-14" d="M213,175.37a13.53,13.53,0,0,0,8.15-.25,11.38,11.38,0,0,0,5.07-3.82"/><path class="cls-14" d="M221.12,149.39c6.43-2.66,9.26.53,9.26.53"/><path class="cls-14" d="M204.15,149.13a6.48,6.48,0,0,1,6.87.79"/><path class="cls-24" d="M223.68,153.86c.59,0,1,.95,1,2.16s-.5,2.17-1.09,2.17-1-1-1-2.17S223.08,153.86,223.68,153.86Z"/><path class="cls-24" d="M207.71,153.59c.59,0,1,.95,1,2.16s-.5,2.17-1.09,2.17-1-1-1-2.17S207.13,153.59,207.71,153.59Z"/><path class="cls-23" d="M197,142.55a16.53,16.53,0,0,0,1,3.44"/><path class="cls-23" d="M204.72,129.34c-6.32-1.7-8.82,2.1-8.35,8.09"/><path class="cls-18" d="M211.41,195l7.7,13.86,18.49-14.6,5.68.8-12,21.16a1.63,1.63,0,0,1-2.28.56l-10.23-6.45-8,4.87a1.62,1.62,0,0,1-2.47-1.21l-2-18.05Z"/><g class="cls-25"><path class="cls-26" d="M210.73,194.9l8.38,14L237.92,194l5.67.89-12.27,21.32a1.63,1.63,0,0,1-2.28.56l-10.23-6.45-8,4.87a1.62,1.62,0,0,1-2.47-1.21l-2-18.05Z"/></g><path class="cls-21" d="M211.41,195l7.7,13.86,18.49-14.6,5.68.8-12,21.16a1.63,1.63,0,0,1-2.28.56l-10.23-6.45-8,4.87a1.62,1.62,0,0,1-2.47-1.21l-2-18.05Z"/><path class="cls-4" d="M96.76,286H147a0,0,0,0,1,0,0v6.7a0,0,0,0,1,0,0H96.76a2,2,0,0,1-2-2V288A2,2,0,0,1,96.76,286Z"/><path class="cls-27" d="M190.3,292.73H147V286l43.36,2.86a1.37,1.37,0,0,1,1.28,1.37v1.1A1.37,1.37,0,0,1,190.3,292.73Z"/><path class="cls-14" d="M231.31,156.17l10.89-3.67-1.29,1.63"/></g><g id="Desk"><path class="cls-18" d="M33.85,249.31S30.41,219.9,0,231.75c0,0,25.88-.19,30.25,22l4-.43Z"/><path class="cls-28" d="M33.85,249.31S30.41,219.9,0,231.75c0,0,25.88-.19,30.25,22l4-.43Z"/><path class="cls-18" d="M34.27,248.82s-2.64-31.36-8.36-55.74c0,0,17.5,18.51,13.5,53.37Z"/><path class="cls-28" d="M34.27,248.82s-2.64-31.36-8.36-55.74c0,0,17.5,18.51,13.5,53.37Z"/><path class="cls-29" d="M32.57,269.58s-5.05-43.2-21.84-58c0,0,30,7.46,25.58,53.35Z"/><path class="cls-29" d="M37.85,267.77S45.2,224.9,62.76,211c0,0-30.38,5.85-28.4,51.9Z"/><path class="cls-30" d="M53.26,253.75H17.76v6.17h1.18v21.76a11,11,0,0,0,11,11.05H41a11,11,0,0,0,11-11.05V259.92h1.19Z"/><path class="cls-30" d="M42.25,259.62H47"/><path class="cls-30" d="M23.75,259.62h13.7"/><path class="cls-27" d="M173.42,265.58l-9.09-74.11a5,5,0,0,0-4.79-4.26H149.1l12.05,82.63h8.54A3.69,3.69,0,0,0,173.42,265.58Z"/><path class="cls-24" d="M167.43,269.84H62.57a5,5,0,0,1-4.78-4.26l-9.1-74.11a3.69,3.69,0,0,1,3.74-4.26H157.28a5,5,0,0,1,4.79,4.26l9.1,74.11A3.69,3.69,0,0,1,167.43,269.84Z"/><g class="cls-31"><path class="cls-32" d="M167.43,269.84H62.57a5,5,0,0,1-4.78-4.26l-9.1-74.11a3.69,3.69,0,0,1,3.74-4.26H157.28a5,5,0,0,1,4.79,4.26l9.1,74.11A3.69,3.69,0,0,1,167.43,269.84Z"/></g><path class="cls-21" d="M167.43,269.84H62.57a5,5,0,0,1-4.78-4.26l-9.1-74.11a3.69,3.69,0,0,1,3.74-4.26H157.28a5,5,0,0,1,4.79,4.26l9.1,74.11A3.69,3.69,0,0,1,167.43,269.84Z"/><path class="cls-7" d="M118.54,286.68,122.72,239a2,2,0,0,0-2-2.13H94.3a2,2,0,0,0-2,1.79l-4.56,52a2,2,0,0,0,2,2.13h52.44a2,2,0,0,0,2-2h0a2,2,0,0,0-2-2H120.49A2,2,0,0,1,118.54,286.68Z"/><path class="cls-27" d="M144.14,290.77a2,2,0,0,0-2-2H120.49a2,2,0,0,1-1.95-2.13L122.72,239a2,2,0,1,0-3.89-.34l-4.56,52a2,2,0,0,0,2,2.13h25.95A2,2,0,0,0,144.14,290.77Z"/><line class="cls-14" x1="23.91" y1="292.73" x2="266.72" y2="292.73"/></g><g id="Code"><path class="cls-3" d="M289.9,125.83H270.18a4.63,4.63,0,0,0-4.63,4.64v9.59a4.63,4.63,0,0,0,4.63,4.63h5.15l1.51,8.85,7.9-8.85h5.16a4.63,4.63,0,0,0,4.63-4.63v-9.59A4.63,4.63,0,0,0,289.9,125.83Z"/><path class="cls-3" d="M192.8,87.1H174.18a4.38,4.38,0,0,0-4.38,4.38v9.06a4.38,4.38,0,0,0,4.38,4.37H179l5.08,8.36,3.81-8.36h4.87a4.37,4.37,0,0,0,4.37-4.37V91.48A4.38,4.38,0,0,0,192.8,87.1Z"/><text class="cls-33" transform="translate(174.51 98.11)">HTML</text><path class="cls-3" d="M255.42,76.7H235.71a4.63,4.63,0,0,0-4.64,4.63v9.59a4.64,4.64,0,0,0,4.64,4.64h5.15l3.91,8.85,5.5-8.85h5.15a4.64,4.64,0,0,0,4.64-4.64V81.33A4.63,4.63,0,0,0,255.42,76.7Z"/><text class="cls-33" transform="translate(239.89 88.67)"><tspan class="cls-34">C</tspan><tspan x="4.38" y="0">SS</tspan></text><text class="cls-33" transform="translate(276.53 138.45)">JS</text></g></g></svg>