<svg xmlns="http://www.w3.org/2000/svg" xmlns:xlink="http://www.w3.org/1999/xlink" viewBox="0 0 48 47.47"><defs><style>.cls-1{fill:url(#linear-gradient);}.cls-2{fill:url(#linear-gradient-2);}.cls-3{fill:url(#linear-gradient-3);}.cls-4{fill:url(#linear-gradient-4);}.cls-5{fill:url(#linear-gradient-5);}.cls-6{fill:url(#linear-gradient-6);}</style><linearGradient id="linear-gradient" x1="14.91" y1="24.64" x2="33.09" y2="24.64" gradientUnits="userSpaceOnUse"><stop offset="0" stop-color="#66a666"/><stop offset="1" stop-color="#bef264"/></linearGradient><linearGradient id="linear-gradient-2" x1="8.06" y1="42.64" x2="39.94" y2="42.64" xlink:href="#linear-gradient"/><linearGradient id="linear-gradient-3" x1="36.49" y1="21.33" x2="48" y2="21.33" xlink:href="#linear-gradient"/><linearGradient id="linear-gradient-4" x1="29.26" y1="7.23" x2="43.72" y2="7.23" xlink:href="#linear-gradient"/><linearGradient id="linear-gradient-5" x1="0" y1="21.33" x2="11.51" y2="21.33" xlink:href="#linear-gradient"/><linearGradient id="linear-gradient-6" x1="4.28" y1="7.23" x2="18.74" y2="7.23" xlink:href="#linear-gradient"/></defs><g id="Layer_2" data-name="Layer 2"><g id="Layer_1-2" data-name="Layer 1"><path class="cls-1" d="M24,15.56a9.09,9.09,0,1,0,9.09,9.08A9.11,9.11,0,0,0,24,15.56ZM24,30.7a6.06,6.06,0,1,1,6.06-6.06A6.08,6.08,0,0,1,24,30.7Z"/><path class="cls-2" d="M24,37.82A20.42,20.42,0,0,0,9.09,44.29l-1,1.1,2.2,2.08,1-1.1a17.42,17.42,0,0,1,25.44,0l1,1.1,2.2-2.08-1-1.1A20.58,20.58,0,0,0,24,37.82Z"/><path class="cls-3" d="M36.49,17.79v3a12.66,12.66,0,0,1,9.31,4.05L48,22.79A15.74,15.74,0,0,0,36.49,17.79Z"/><path class="cls-4" d="M43.72,7.23a7.23,7.23,0,1,0-7.23,7.23A7.25,7.25,0,0,0,43.72,7.23Zm-11.43,0a4.2,4.2,0,1,1,4.2,4.2A4.21,4.21,0,0,1,32.29,7.23Z"/><path class="cls-5" d="M11.51,17.79A15.74,15.74,0,0,0,0,22.79l2.2,2.08a12.6,12.6,0,0,1,9.31-4.05Z"/><path class="cls-6" d="M18.74,7.23a7.23,7.23,0,1,0-7.23,7.23A7.26,7.26,0,0,0,18.74,7.23Zm-7.23,4.2a4.2,4.2,0,1,1,4.2-4.2A4.21,4.21,0,0,1,11.51,11.43Z"/></g></g></svg>