<svg xmlns="http://www.w3.org/2000/svg" xmlns:xlink="http://www.w3.org/1999/xlink" viewBox="0 0 52 40"><defs><style>.cls-1{fill:url(#linear-gradient);}.cls-2{fill:url(#linear-gradient-2);}.cls-3{fill:url(#linear-gradient-3);}.cls-4{fill:url(#linear-gradient-4);}</style><linearGradient id="linear-gradient" x1="570.19" y1="-716.3" x2="570.19" y2="-739.6" gradientTransform="matrix(0.37, 0, 0, -0.37, -170.16, -236.95)" gradientUnits="userSpaceOnUse"><stop offset="0" stop-color="#bef264"/><stop offset="1" stop-color="#6a6"/></linearGradient><linearGradient id="linear-gradient-2" x1="511.06" y1="-636.35" x2="511.06" y2="-744.75" xlink:href="#linear-gradient"/><linearGradient id="linear-gradient-3" x1="508.38" y1="-636.35" x2="508.38" y2="-744.75" xlink:href="#linear-gradient"/><linearGradient id="linear-gradient-4" x1="527.19" y1="-636.35" x2="527.19" y2="-744.75" xlink:href="#linear-gradient"/></defs><g id="Layer_2" data-name="Layer 2"><g id="Layer_1-2" data-name="Layer 1"><g id="surface149665825"><path class="cls-1" d="M44,30H40a1,1,0,0,0-1,1v7h6V31A1,1,0,0,0,44,30Z"/><path class="cls-2" d="M19,29h2v4H19Z"/><path class="cls-3" d="M13,18H25v2H13Z"/><path class="cls-4" d="M50,20V18a2,2,0,0,0-2-2H36V14a2,2,0,0,0,2-2V10a2,2,0,0,0-2-2h-.38L32.17,1.11A2,2,0,0,0,30.38,0H7.62A2,2,0,0,0,5.83,1.11L2.38,8H2a2,2,0,0,0-2,2v2a2,2,0,0,0,2,2V38a2,2,0,0,0,2,2H48a2,2,0,0,0,2-2V26a2,2,0,0,0,2-2V22A2,2,0,0,0,50,20Zm-2-2v2H36V18ZM7.62,2H30.38l3,6H4.62ZM2,10H36v2H2Zm32,4V30H30v2h4v2H25V25a3,3,0,0,0-3-3H16a3,3,0,0,0-3,3v9H4V32H8V30H4V14ZM4,38V36h9v2Zm11,0V25a1,1,0,0,1,1-1h6a1,1,0,0,1,1,1V38Zm10,0V36h9v2Zm23,0H36V26H48Zm2-14H36V22H50Z"/></g></g></g></svg>