<svg width="649" height="488" viewBox="0 0 649 488" fill="none" xmlns="http://www.w3.org/2000/svg">
<path d="M558.526 0H125.328V281.158H558.526V0Z" fill="white"/>
<path d="M558.542 0H125.328V281.158H171.134H243.751H558.542V0Z" fill="#BFBFBF"/>
<path d="M558.526 0H125.328V36.7842H558.526V0Z" fill="white"/>
<path d="M558.526 0H125.328V36.7842H558.526V0Z" fill="#2F2D36"/>
<path d="M533.795 53.0174H150.059C145.375 53.0174 141.577 56.8112 141.577 61.4911V256.451C141.577 261.131 145.375 264.924 150.059 264.924H533.795C538.479 264.924 542.277 261.131 542.277 256.451V61.4911C542.277 56.8112 538.479 53.0174 533.795 53.0174Z" fill="#2F2D36" stroke="#263238" stroke-linecap="round" stroke-linejoin="round"/>
<path d="M517.091 197.07H488.606C487.744 197.07 486.918 196.728 486.308 196.119C485.699 195.51 485.356 194.684 485.356 193.823C485.356 192.962 485.699 192.137 486.308 191.528C486.918 190.919 487.744 190.577 488.606 190.577H517.091C517.953 190.577 518.779 190.919 519.389 191.528C519.998 192.137 520.341 192.962 520.341 193.823C520.341 194.684 519.998 195.51 519.389 196.119C518.779 196.728 517.953 197.07 517.091 197.07Z" fill="#757575"/>
<path d="M517.091 219.52H437.584C436.722 219.52 435.896 219.178 435.286 218.57C434.677 217.961 434.334 217.135 434.334 216.274C434.334 215.413 434.677 214.587 435.286 213.978C435.896 213.369 436.722 213.027 437.584 213.027H517.091C517.952 213.027 518.779 213.369 519.388 213.978C519.998 214.587 520.34 215.413 520.34 216.274C520.34 217.135 519.998 217.961 519.388 218.57C518.779 219.178 517.952 219.52 517.091 219.52Z" fill="#757575"/>
<path d="M517.091 241.987H341.943C341.081 241.987 340.255 241.645 339.645 241.036C339.036 240.427 338.693 239.602 338.693 238.74C338.693 237.879 339.036 237.054 339.645 236.445C340.255 235.836 341.081 235.494 341.943 235.494H517.091C517.953 235.494 518.779 235.836 519.389 236.445C519.998 237.054 520.341 237.879 520.341 238.74C520.341 239.602 519.998 240.427 519.389 241.036C518.779 241.645 517.953 241.987 517.091 241.987Z" fill="#757575"/>
<path d="M171.637 174.62H158.378C157.516 174.62 156.69 174.278 156.08 173.669C155.471 173.06 155.128 172.234 155.128 171.373C155.128 170.512 155.471 169.686 156.08 169.077C156.69 168.468 157.516 168.126 158.378 168.126H171.637C172.499 168.126 173.326 168.468 173.935 169.077C174.545 169.686 174.887 170.512 174.887 171.373C174.887 172.234 174.545 173.06 173.935 173.669C173.326 174.278 172.499 174.62 171.637 174.62Z" fill="#BFBFBF"/>
<path d="M171.637 197.07H158.378C157.516 197.07 156.69 196.728 156.08 196.119C155.471 195.51 155.128 194.684 155.128 193.823C155.128 192.962 155.471 192.137 156.08 191.528C156.69 190.919 157.516 190.577 158.378 190.577H171.637C172.499 190.577 173.326 190.919 173.935 191.528C174.545 192.137 174.887 192.962 174.887 193.823C174.887 194.684 174.545 195.51 173.935 196.119C173.326 196.728 172.499 197.07 171.637 197.07Z" fill="#BFBFBF"/>
<path d="M171.637 219.52H158.378C157.516 219.52 156.69 219.178 156.08 218.57C155.471 217.961 155.128 217.135 155.128 216.274C155.128 215.413 155.471 214.587 156.08 213.978C156.69 213.369 157.516 213.027 158.378 213.027H171.637C172.499 213.027 173.326 213.369 173.935 213.978C174.545 214.587 174.887 215.413 174.887 216.274C174.887 217.135 174.545 217.961 173.935 218.57C173.326 219.178 172.499 219.52 171.637 219.52Z" fill="#BFBFBF"/>
<path d="M171.637 241.987H158.378C157.516 241.987 156.69 241.645 156.08 241.036C155.471 240.427 155.128 239.602 155.128 238.74C155.128 237.879 155.471 237.054 156.08 236.445C156.69 235.836 157.516 235.494 158.378 235.494H171.637C172.499 235.494 173.326 235.836 173.935 236.445C174.545 237.054 174.887 237.879 174.887 238.74C174.887 239.602 174.545 240.427 173.935 241.036C173.326 241.645 172.499 241.987 171.637 241.987Z" fill="#BFBFBF"/>
<g opacity="0.7">
<path opacity="0.7" d="M171.637 174.62H158.378C157.516 174.62 156.69 174.278 156.08 173.669C155.471 173.06 155.128 172.234 155.128 171.373C155.128 170.512 155.471 169.686 156.08 169.077C156.69 168.468 157.516 168.126 158.378 168.126H171.637C172.499 168.126 173.326 168.468 173.935 169.077C174.545 169.686 174.887 170.512 174.887 171.373C174.887 172.234 174.545 173.06 173.935 173.669C173.326 174.278 172.499 174.62 171.637 174.62Z" fill="#BFBFBF"/>
</g>
<g opacity="0.7">
<path opacity="0.7" d="M171.637 197.07H158.378C157.516 197.07 156.69 196.728 156.08 196.119C155.471 195.51 155.128 194.684 155.128 193.823C155.128 192.962 155.471 192.137 156.08 191.528C156.69 190.919 157.516 190.577 158.378 190.577H171.637C172.499 190.577 173.326 190.919 173.935 191.528C174.545 192.137 174.887 192.962 174.887 193.823C174.887 194.684 174.545 195.51 173.935 196.119C173.326 196.728 172.499 197.07 171.637 197.07Z" fill="#BFBFBF"/>
</g>
<g opacity="0.7">
<path opacity="0.7" d="M171.637 219.52H158.378C157.516 219.52 156.69 219.178 156.08 218.57C155.471 217.961 155.128 217.135 155.128 216.274C155.128 215.413 155.471 214.587 156.08 213.978C156.69 213.369 157.516 213.027 158.378 213.027H171.637C172.499 213.027 173.326 213.369 173.935 213.978C174.545 214.587 174.887 215.413 174.887 216.274C174.887 217.135 174.545 217.961 173.935 218.57C173.326 219.178 172.499 219.52 171.637 219.52Z" fill="#BFBFBF"/>
</g>
<g opacity="0.7">
<path opacity="0.7" d="M171.637 241.987H158.378C157.516 241.987 156.69 241.645 156.08 241.036C155.471 240.427 155.128 239.602 155.128 238.74C155.128 237.879 155.471 237.054 156.08 236.445C156.69 235.836 157.516 235.494 158.378 235.494H171.637C172.499 235.494 173.326 235.836 173.935 236.445C174.545 237.054 174.887 237.879 174.887 238.74C174.887 239.602 174.545 240.427 173.935 241.036C173.326 241.645 172.499 241.987 171.637 241.987Z" fill="#BFBFBF"/>
</g>
<path d="M437.584 152.153H158.378C157.516 152.153 156.69 151.811 156.08 151.202C155.471 150.593 155.128 149.767 155.128 148.906C155.128 148.045 155.471 147.22 156.08 146.611C156.69 146.002 157.516 145.66 158.378 145.66H437.584C438.446 145.66 439.273 146.002 439.882 146.611C440.492 147.22 440.834 148.045 440.834 148.906C440.834 149.767 440.492 150.593 439.882 151.202C439.273 151.811 438.446 152.153 437.584 152.153Z" fill="#BFBFBF"/>
<path d="M517.091 107.252H488.606C487.744 107.252 486.918 106.91 486.308 106.301C485.699 105.692 485.356 104.867 485.356 104.006C485.356 103.145 485.699 102.319 486.308 101.71C486.918 101.101 487.744 100.759 488.606 100.759H517.091C517.953 100.759 518.779 101.101 519.389 101.71C519.998 102.319 520.341 103.145 520.341 104.006C520.341 104.867 519.998 105.692 519.389 106.301C518.779 106.91 517.953 107.252 517.091 107.252Z" fill="#BFBFBF"/>
<path d="M476.696 107.252H449.495C448.633 107.252 447.806 106.91 447.197 106.301C446.588 105.692 446.245 104.867 446.245 104.006C446.245 103.145 446.588 102.319 447.197 101.71C447.806 101.101 448.633 100.759 449.495 100.759H476.696C477.558 100.759 478.384 101.101 478.994 101.71C479.603 102.319 479.945 103.145 479.945 104.006C479.945 104.867 479.603 105.692 478.994 106.301C478.384 106.91 477.558 107.252 476.696 107.252Z" fill="#BFBFBF"/>
<path d="M437.584 107.252H158.378C157.516 107.252 156.69 106.91 156.08 106.301C155.471 105.692 155.128 104.867 155.128 104.006C155.128 103.145 155.471 102.319 156.08 101.71C156.69 101.101 157.516 100.759 158.378 100.759H437.584C438.446 100.759 439.273 101.101 439.882 101.71C440.492 102.319 440.834 103.145 440.834 104.006C440.834 104.867 440.492 105.692 439.882 106.301C439.273 106.91 438.446 107.252 437.584 107.252Z" fill="#BFBFBF"/>
<path d="M517.091 174.62H488.606C487.744 174.62 486.918 174.278 486.308 173.669C485.699 173.06 485.356 172.234 485.356 171.373C485.356 170.512 485.699 169.686 486.308 169.077C486.918 168.468 487.744 168.126 488.606 168.126H517.091C517.953 168.126 518.779 168.468 519.389 169.077C519.998 169.686 520.341 170.512 520.341 171.373C520.341 172.234 519.998 173.06 519.389 173.669C518.779 174.278 517.953 174.62 517.091 174.62Z" fill="#999999"/>
<path d="M476.696 174.62H186.262C185.4 174.62 184.573 174.278 183.964 173.669C183.354 173.06 183.012 172.234 183.012 171.373C183.012 170.512 183.354 169.686 183.964 169.077C184.573 168.468 185.4 168.126 186.262 168.126H476.696C477.557 168.126 478.384 168.468 478.994 169.077C479.603 169.686 479.945 170.512 479.945 171.373C479.945 172.234 479.603 173.06 478.994 173.669C478.384 174.278 477.557 174.62 476.696 174.62Z" fill="#999999"/>
<path d="M269.732 197.07H186.262C185.4 197.07 184.573 196.728 183.964 196.119C183.354 195.51 183.012 194.684 183.012 193.823C183.012 192.962 183.354 192.137 183.964 191.528C184.573 190.919 185.4 190.577 186.262 190.577H269.732C270.594 190.577 271.421 190.919 272.03 191.528C272.64 192.137 272.982 192.962 272.982 193.823C272.982 194.684 272.64 195.51 272.03 196.119C271.421 196.728 270.594 197.07 269.732 197.07Z" fill="#999999"/>
<path d="M269.732 219.52H186.262C185.4 219.52 184.573 219.178 183.964 218.57C183.354 217.961 183.012 217.135 183.012 216.274C183.012 215.413 183.354 214.587 183.964 213.978C184.573 213.369 185.4 213.027 186.262 213.027H269.732C270.594 213.027 271.421 213.369 272.03 213.978C272.64 214.587 272.982 215.413 272.982 216.274C272.982 217.135 272.64 217.961 272.03 218.57C271.421 219.178 270.594 219.52 269.732 219.52Z" fill="#999999"/>
<path d="M269.732 241.987H186.262C185.4 241.987 184.573 241.645 183.964 241.036C183.354 240.427 183.012 239.602 183.012 238.74C183.012 237.879 183.354 237.054 183.964 236.445C184.573 235.836 185.4 235.494 186.262 235.494H269.732C270.594 235.494 271.421 235.836 272.03 236.445C272.64 237.054 272.982 237.879 272.982 238.74C272.982 239.602 272.64 240.427 272.03 241.036C271.421 241.645 270.594 241.987 269.732 241.987Z" fill="#999999"/>
<path d="M148.207 24.999C151.859 24.999 154.82 22.041 154.82 18.3921C154.82 14.7432 151.859 11.7852 148.207 11.7852C144.554 11.7852 141.593 14.7432 141.593 18.3921C141.593 22.041 144.554 24.999 148.207 24.999Z" fill="#D36A60"/>
<path d="M166.486 24.999C170.139 24.999 173.1 22.041 173.1 18.3921C173.1 14.7432 170.139 11.7852 166.486 11.7852C162.834 11.7852 159.873 14.7432 159.873 18.3921C159.873 22.041 162.834 24.999 166.486 24.999Z" fill="#E8BE59"/>
<path d="M184.507 24.999C188.159 24.999 191.12 22.041 191.12 18.3921C191.12 14.7432 188.159 11.7852 184.507 11.7852C180.854 11.7852 177.894 14.7432 177.894 18.3921C177.894 22.041 180.854 24.999 184.507 24.999Z" fill="#85C45D"/>
<path d="M184.409 460.079C184.409 460.079 175.879 474.689 179.242 475.273C182.606 475.858 189.625 463.131 189.625 463.131L208.864 458.034L194.37 456.54L184.409 460.079Z" fill="white" stroke="#263238" stroke-linecap="round" stroke-linejoin="round"/>
<path opacity="0.3" d="M184.409 460.079C184.409 460.079 175.879 474.689 179.242 475.273C182.606 475.858 189.625 463.131 189.625 463.131L208.864 458.034L194.37 456.54L184.409 460.079Z" fill="black" stroke="#263238" stroke-linecap="round" stroke-linejoin="round"/>
<path d="M190.893 450.096C190.893 450.096 178.966 447.255 175.684 452.855C172.402 458.456 162.685 474.997 166.357 476.897C170.029 478.796 173.117 472.676 173.117 472.676L190.893 450.096Z" fill="white" stroke="#263238" stroke-linecap="round" stroke-linejoin="round"/>
<path d="M239.672 467.076C231.85 469.777 223.513 470.654 215.299 469.64L201.731 474.137C201.731 474.137 189.804 480.013 184.247 477.043C178.69 474.072 198.384 467.563 198.384 467.563C198.384 467.563 211.627 461.848 207.678 460.469C203.73 459.089 188.781 459.349 185.84 461.605C182.898 463.861 175.213 478.423 169.591 477.595C163.968 476.767 171.947 468.829 173.929 465.777C175.911 462.725 180.429 450.534 189.479 450.031C198.53 449.528 229.062 451.086 229.062 451.086L264.956 447.255L273.438 467.644L239.672 467.076Z" fill="white" stroke="#263238" stroke-linecap="round" stroke-linejoin="round"/>
<path d="M258.358 472.124C259.361 472.839 260.566 473.214 261.798 473.194C263.029 473.173 264.221 472.758 265.199 472.01C266.28 472.471 267.472 472.604 268.627 472.393C269.783 472.182 270.851 471.637 271.699 470.825C274.315 467.936 274.542 442.742 267.295 439.901C265.199 439.073 259.967 439.155 259.171 442.093C258.612 441.866 258.009 441.775 257.408 441.825C256.808 441.875 256.227 442.066 255.715 442.383C255.202 442.699 254.771 443.131 254.457 443.645C254.142 444.159 253.954 444.739 253.906 445.339C253.175 449.885 257.708 454.105 256.197 467.189C256.068 468.131 256.201 469.09 256.582 469.961C256.964 470.831 257.578 471.58 258.358 472.124V472.124Z" fill="#BEF264" stroke="#263238" stroke-linecap="round" stroke-linejoin="round"/>
<path opacity="0.3" d="M258.358 472.124C259.361 472.839 260.566 473.214 261.798 473.194C263.029 473.173 264.221 472.758 265.199 472.01C266.28 472.471 267.472 472.604 268.627 472.393C269.783 472.182 270.851 471.637 271.699 470.825C274.315 467.936 274.542 442.742 267.295 439.901C265.199 439.073 259.967 439.155 259.171 442.093C258.612 441.866 258.009 441.775 257.408 441.825C256.808 441.875 256.227 442.066 255.715 442.383C255.202 442.699 254.771 443.131 254.457 443.645C254.142 444.159 253.954 444.739 253.906 445.339C253.175 449.885 257.708 454.105 256.197 467.189C256.068 468.131 256.201 469.09 256.582 469.961C256.964 470.831 257.578 471.58 258.358 472.124V472.124Z" fill="black" stroke="#263238" stroke-linecap="round" stroke-linejoin="round"/>
<path d="M266.678 466.248C266.658 459.408 265.197 452.649 262.388 446.411" stroke="#263238" stroke-linecap="round" stroke-linejoin="round"/>
<path d="M437.52 457.092C436.317 466.329 434.952 476.328 433.392 487.188H293.911L294.577 469.235C286.242 471.247 270.042 470.014 270.042 470.014V443.473C279.888 437.905 281.416 439.463 281.416 439.463C281.416 439.463 281.92 374.693 287.818 358.525C290.068 352.437 294.085 347.158 299.355 343.363V343.363C300.758 342.32 302.229 341.371 303.758 340.522L303.969 340.392C305.594 339.532 307.56 338.623 309.803 337.681L310.42 337.438C332.259 328.526 379.917 318.185 424.325 337.146C427.429 338.477 452.777 350.57 454.939 367.989C456.108 378.004 449.316 427.58 437.52 457.092Z" fill="#CDF26E"/>
<path opacity="0.2" d="M415.421 377.241L401.512 441.736C399.351 440.031 393.128 439.918 385.263 440.664C386.973 438.786 388.391 436.663 389.472 434.366C410.449 388.913 415.048 378.232 415.421 377.241Z" fill="black"/>
<path d="M440.835 448.034C437.448 460.875 434.961 473.937 433.393 487.123H293.912L295.195 466.442C303.888 465.209 319.146 463.943 334.989 461.134C336.204 466.086 336.331 471.242 335.363 476.247C335.363 476.247 399.514 484.201 421.044 479.023C427.186 477.546 432.743 468.975 437.504 457.173C438.722 454.365 439.762 451.281 440.835 448.034Z" fill="#A4C159"/>
<path d="M283.008 440.681C283.008 440.681 279.889 437.905 270.009 443.473V470.014C270.009 470.014 286.258 469.429 292.644 465.988C298.136 469.381 297.161 407.257 298.136 373.8C290.174 375.975 289.524 391.121 288.306 405.357C287.276 417.23 285.507 429.027 283.008 440.681Z" fill="#A4C159"/>
<path d="M454.873 368.037C454.873 368.427 454.971 368.881 454.987 369.385C455.702 381.852 448.91 428.895 437.503 457.238C432.742 469.04 427.185 477.611 421.043 479.088C399.513 484.266 335.362 476.312 335.362 476.312C337.037 467.517 335.325 458.414 330.569 450.826C330.569 450.826 393.55 435.437 401.512 441.736L415.453 377.176" stroke="#263238" stroke-linecap="round" stroke-linejoin="round"/>
<path d="M405.899 445.242C410.385 447.404 414.228 450.7 417.046 454.803" stroke="#263238" stroke-linecap="round" stroke-linejoin="round"/>
<path d="M245.441 447.563C245.441 447.563 239.575 446.33 237.186 448.992C234.798 451.654 224.561 467.043 228.022 469.965C231.483 472.887 238.519 456.832 238.519 456.832L245.441 447.563Z" fill="white" stroke="#263238" stroke-linecap="round" stroke-linejoin="round"/>
<path d="M257.237 447.287C257.237 447.287 244.238 444.479 241.281 448.472C238.323 452.466 221.912 473.017 232.133 473.682L248.479 455.371L257.237 447.287Z" fill="white" stroke="#263238" stroke-linecap="round" stroke-linejoin="round"/>
<path d="M286.729 469.137C286.729 469.137 273.324 472.059 267.88 473.114C262.437 474.169 252.33 481.231 246.35 478.422C240.371 475.614 265.849 465.29 265.849 465.29L274.607 461.767L286.729 469.137Z" fill="#BFBFBF" stroke="#263238" stroke-linecap="round" stroke-linejoin="round"/>
<path d="M297.583 389.027C297.762 383.946 297.957 378.881 298.152 373.8" stroke="#263238" stroke-linecap="round" stroke-linejoin="round"/>
<path d="M293.911 487.188C296.397 456.459 297.323 395.942 297.323 395.942" stroke="#263238" stroke-linecap="round" stroke-linejoin="round"/>
<path d="M335.362 452.579H289.134C289.134 452.579 253.256 441.833 247.277 450.193C241.297 458.553 228.558 471.296 232.133 473.682C235.708 476.069 250.868 458.748 250.868 458.748L264.013 458.878C264.013 458.878 252.866 463.748 250.478 466.118C248.089 468.488 242.906 475.273 245.603 476.475C248.3 477.676 257.156 468.91 257.156 468.91C257.156 468.91 270.318 465.663 273.503 467.287C283.722 472.511 295.544 473.672 306.586 470.533L341.862 474.916L335.362 452.579Z" fill="white" stroke="#263238" stroke-linecap="round" stroke-linejoin="round"/>
<path d="M410.628 399.529C409.352 392.137 409.303 384.585 410.481 377.177" stroke="#263238" stroke-linecap="round" stroke-linejoin="round"/>
<path d="M421.108 360.813C421.108 360.813 443.532 331.285 454.873 368.037" stroke="#263238" stroke-linecap="round" stroke-linejoin="round"/>
<path d="M325.873 448.943C326.662 447.994 327.735 447.324 328.935 447.031C330.135 446.739 331.397 446.84 332.535 447.32C333.464 446.598 334.587 446.168 335.762 446.084C336.936 446 338.109 446.266 339.132 446.849C342.382 448.992 348.881 473.358 342.56 477.903C340.724 479.218 335.655 480.435 334.095 477.822C333.606 478.18 333.039 478.418 332.44 478.516C331.842 478.615 331.228 478.57 330.65 478.387C330.072 478.203 329.545 477.886 329.113 477.46C328.681 477.035 328.356 476.514 328.164 475.939C326.344 471.718 329.659 466.491 324.914 454.203C324.576 453.322 324.487 452.366 324.656 451.439C324.825 450.511 325.246 449.648 325.873 448.943V448.943Z" fill="#BEF264"/>
<path d="M325.873 448.943C326.662 447.994 327.735 447.324 328.935 447.031C330.135 446.739 331.397 446.84 332.535 447.32C333.464 446.598 334.587 446.168 335.762 446.084C336.936 446 338.109 446.266 339.132 446.849C342.382 448.992 348.881 473.358 342.56 477.903C340.724 479.218 335.655 480.435 334.095 477.822C333.606 478.18 333.039 478.418 332.44 478.516C331.842 478.615 331.228 478.57 330.65 478.387C330.072 478.203 329.545 477.886 329.113 477.46C328.681 477.035 328.356 476.514 328.164 475.939C326.344 471.718 329.659 466.491 324.914 454.203C324.576 453.322 324.487 452.366 324.656 451.439C324.825 450.511 325.246 449.648 325.873 448.943V448.943Z" fill="#A4C159"/>
<path d="M325.873 448.943C326.662 447.994 327.735 447.324 328.935 447.031C330.135 446.739 331.397 446.84 332.535 447.32C333.464 446.598 334.587 446.168 335.762 446.084C336.936 446 338.109 446.266 339.132 446.849C342.382 448.992 348.881 473.358 342.56 477.903C340.724 479.218 335.655 480.435 334.095 477.822C333.606 478.18 333.039 478.418 332.44 478.516C331.842 478.615 331.228 478.57 330.65 478.387C330.072 478.203 329.545 477.886 329.113 477.46C328.681 477.035 328.356 476.514 328.164 475.939C326.344 471.718 329.659 466.491 324.914 454.203C324.576 453.322 324.487 452.366 324.656 451.439C324.825 450.511 325.246 449.648 325.873 448.943V448.943Z" stroke="#263238" stroke-linecap="round" stroke-linejoin="round"/>
<path d="M336.142 461.589C336.715 465.352 336.759 469.177 336.272 472.952" stroke="#263238" stroke-linecap="round" stroke-linejoin="round"/>
<path d="M356.454 388.686C356.414 389.306 356.192 389.901 355.814 390.395C355.437 390.89 354.922 391.262 354.333 391.464C353.745 391.666 353.11 391.69 352.508 391.532C351.906 391.375 351.364 391.043 350.951 390.578C350.538 390.113 350.271 389.536 350.185 388.921C350.1 388.305 350.198 387.678 350.469 387.118C350.739 386.558 351.169 386.09 351.705 385.774C352.241 385.458 352.859 385.308 353.48 385.342C353.896 385.362 354.304 385.466 354.68 385.646C355.056 385.826 355.393 386.079 355.669 386.39C355.946 386.702 356.158 387.065 356.293 387.459C356.428 387.853 356.482 388.27 356.454 388.686V388.686Z" fill="white" stroke="#263238" stroke-linecap="round" stroke-linejoin="round"/>
<path d="M354.227 437.694C354.194 438.32 353.975 438.922 353.599 439.424C353.222 439.925 352.705 440.304 352.113 440.512C351.521 440.72 350.88 440.747 350.273 440.591C349.665 440.434 349.117 440.101 348.699 439.634C348.281 439.166 348.012 438.585 347.925 437.964C347.838 437.343 347.938 436.71 348.212 436.145C348.485 435.581 348.92 435.111 349.462 434.794C350.004 434.477 350.627 434.328 351.254 434.366C352.089 434.416 352.87 434.794 353.427 435.417C353.984 436.041 354.272 436.859 354.227 437.694Z" fill="white" stroke="#263238" stroke-linecap="round" stroke-linejoin="round"/>
<path d="M383.199 328.639L380.876 295.946L346.997 303.77L345.193 330.036C343.064 330.311 341.017 330.604 339.035 330.912L347.322 350.749L363.571 352.876L389.471 329.029C387.31 328.883 385.23 328.737 383.199 328.639Z" fill="white"/>
<path d="M346.493 315.361C346.72 338.623 373.937 331.497 381.46 308.251L380.876 295.946L346.996 303.77L346.493 315.361Z" fill="#313B40" stroke="#263238" stroke-linecap="round" stroke-linejoin="round"/>
<path d="M383.199 328.639L380.876 295.946L346.997 303.77L345.193 330.036C343.064 330.311 341.017 330.604 339.035 330.912L347.322 350.749L363.571 352.876L389.471 329.029C387.31 328.883 385.23 328.737 383.199 328.639Z" stroke="#263238" stroke-linecap="round" stroke-linejoin="round"/>
<path d="M325.743 268.333C325.743 268.333 313.361 246.938 311.525 235.656C305.87 200.804 331.024 212.556 331.024 212.556C331.024 212.556 348.898 196.632 371.012 199.424C393.127 202.216 399.042 211.631 413.958 217.426C413.958 217.426 402.763 274.242 388.415 287.002C374.067 299.761 325.743 268.333 325.743 268.333Z" fill="#313B40" stroke="#263238" stroke-linecap="round" stroke-linejoin="round"/>
<path d="M332.259 217.735C332.259 217.735 326.669 204.196 340.822 193.84" stroke="#263238" stroke-linecap="round" stroke-linejoin="round"/>
<path d="M356.6 209.602C373.157 202.281 380.534 214.472 399.026 217.719" stroke="#BFBFBF" stroke-miterlimit="10"/>
<path d="M343.812 217.735C345.304 215.814 347.118 214.166 349.174 212.865" stroke="#BFBFBF" stroke-miterlimit="10"/>
<path d="M360.808 223.043C360.808 223.043 367.974 216.16 382.176 225.088C386.47 227.918 391.306 229.826 396.377 230.689" stroke="#BFBFBF" stroke-miterlimit="10"/>
<path d="M382.712 237.913C362.092 238.432 340.822 229.147 340.822 229.147C321.616 240.721 324.476 259.535 324.476 259.535C328.863 304.501 334.729 316.546 355.853 316.546C376.976 316.546 393.973 293.819 395.338 261.451C387.359 261.743 382.712 237.913 382.712 237.913Z" fill="white" stroke="#263238" stroke-linecap="round" stroke-linejoin="round"/>
<path d="M393.55 259.535C394.02 258.837 394.647 258.258 395.38 257.844C396.113 257.43 396.933 257.192 397.774 257.149C401.512 257.149 404.274 262.019 402.942 268.09C401.609 274.161 399.919 279.047 396.182 279.047C395.326 279.017 394.499 278.728 393.811 278.218C393.124 277.707 392.607 277 392.331 276.19" fill="white"/>
<path d="M393.55 259.535C394.02 258.837 394.647 258.258 395.38 257.844C396.113 257.43 396.933 257.192 397.774 257.149C401.512 257.149 404.274 262.019 402.942 268.09C401.609 274.161 399.919 279.047 396.182 279.047C395.326 279.017 394.499 278.728 393.811 278.218C393.124 277.707 392.607 277 392.331 276.19" stroke="#263238" stroke-linecap="round" stroke-linejoin="round"/>
<path d="M352.603 281.612C352.603 281.612 355.121 285.054 350.295 287.635C345.47 290.216 341.619 290.167 340.4 287.213C339.181 284.258 344.478 259.73 344.478 259.73" stroke="#263238" stroke-linecap="round" stroke-linejoin="round"/>
<path d="M343.698 263.561C341.098 262.246 330.699 257.701 320.819 263.902L321.453 273.447C321.453 273.447 325.093 275.443 333.445 275.443C336.177 275.494 338.906 275.21 341.569 274.599" stroke="#263238" stroke-linecap="round" stroke-linejoin="round"/>
<path d="M352.326 263.902L355.348 273.853C355.348 273.853 356.583 275.476 364.952 275.476C373.32 275.476 376.066 273.479 376.066 273.479L375.822 263.934C375.822 263.934 363.684 256.743 352.326 263.902Z" stroke="#263238" stroke-linecap="round" stroke-linejoin="round"/>
<path d="M344.364 263.902H352.326" stroke="#263238" stroke-linecap="round" stroke-linejoin="round"/>
<path d="M346.103 296.66C350.454 297.889 355.078 297.747 359.346 296.254C362.625 295.01 365.482 292.859 367.584 290.053" stroke="#263238" stroke-linecap="round" stroke-linejoin="round"/>
<path d="M359.297 254.487C369.745 250.169 374.343 255.347 374.343 255.347" stroke="#263238" stroke-linecap="round" stroke-linejoin="round"/>
<path d="M331.723 254.065C333.515 253.203 335.514 252.867 337.49 253.094C339.465 253.321 341.336 254.102 342.886 255.347" stroke="#263238" stroke-linecap="round" stroke-linejoin="round"/>
<path d="M363.457 261.743C364.415 261.743 365.082 263.285 365.082 265.265C365.082 267.246 364.269 268.772 363.31 268.772C362.352 268.772 361.686 267.148 361.686 265.265C361.686 263.382 362.482 261.743 363.457 261.743Z" fill="#181620"/>
<path d="M337.507 261.353C338.466 261.353 339.132 262.895 339.132 264.86C339.132 266.824 338.319 268.382 337.361 268.382C336.402 268.382 335.736 266.759 335.736 264.86C335.736 262.96 336.565 261.353 337.507 261.353Z" fill="#181620"/>
<path d="M320.104 243.383C320.442 245.298 320.987 247.17 321.729 248.967" stroke="#BFBFBF" stroke-miterlimit="10"/>
<path d="M332.649 221.939C322.379 219.18 318.317 225.348 319.081 235.072" stroke="#BFBFBF" stroke-miterlimit="10"/>
<path d="M343.52 328.526L356.031 351.025L386.076 327.325L395.305 328.623L375.806 362.973C375.629 363.282 375.391 363.552 375.106 363.767C374.821 363.981 374.495 364.136 374.149 364.221C373.802 364.306 373.442 364.32 373.09 364.261C372.738 364.203 372.402 364.074 372.101 363.882L355.479 353.411L342.48 361.317C342.1 361.553 341.667 361.69 341.22 361.713C340.774 361.736 340.329 361.645 339.927 361.448C339.525 361.251 339.18 360.956 338.925 360.589C338.669 360.223 338.511 359.797 338.466 359.353L335.216 330.052L343.52 328.526Z" fill="#BEF264"/>
<path d="M342.415 328.363L356.031 351.09L386.596 326.984L395.809 328.428L375.871 362.973C375.694 363.282 375.456 363.552 375.171 363.767C374.886 363.981 374.56 364.136 374.214 364.221C373.867 364.306 373.507 364.32 373.155 364.261C372.803 364.203 372.467 364.074 372.166 363.882L355.544 353.411L342.545 361.317C342.165 361.553 341.732 361.69 341.285 361.713C340.839 361.736 340.393 361.645 339.992 361.448C339.59 361.251 339.245 360.956 338.99 360.589C338.734 360.223 338.576 359.797 338.531 359.353L335.281 330.052L342.415 328.363Z" fill="#D6E8A7"/>
<path d="M343.52 328.526L356.031 351.025L386.076 327.325L395.305 328.623L375.806 362.973C375.629 363.282 375.391 363.552 375.106 363.767C374.821 363.981 374.495 364.136 374.149 364.221C373.802 364.306 373.442 364.32 373.09 364.261C372.738 364.203 372.402 364.074 372.101 363.882L355.479 353.411L342.48 361.317C342.1 361.553 341.667 361.69 341.22 361.713C340.774 361.736 340.329 361.645 339.927 361.448C339.525 361.251 339.18 360.956 338.925 360.589C338.669 360.223 338.511 359.797 338.466 359.353L335.216 330.052L343.52 328.526Z" stroke="#263238" stroke-linecap="round" stroke-linejoin="round"/>
<path d="M157.225 476.296H238.86V487.172H157.225C156.363 487.172 155.536 486.83 154.927 486.221C154.317 485.612 153.975 484.787 153.975 483.925V479.445C154 478.601 154.354 477.8 154.961 477.212C155.567 476.624 156.38 476.296 157.225 476.296Z" fill="#181620" stroke="#263238" stroke-linecap="round" stroke-linejoin="round"/>
<path d="M309.218 487.188H238.86V476.296L309.315 480.939C309.879 480.98 310.406 481.231 310.791 481.644C311.177 482.056 311.393 482.598 311.395 483.163V484.964C311.395 485.546 311.168 486.104 310.761 486.52C310.354 486.936 309.8 487.176 309.218 487.188V487.188Z" fill="#394A51" stroke="#263238" stroke-linecap="round" stroke-linejoin="round"/>
<path d="M375.854 265.493L393.55 259.535L391.453 262.181" stroke="#263238" stroke-linecap="round" stroke-linejoin="round"/>
<path d="M489.094 285.817C489.094 285.817 468.734 223.725 519.967 219.358C571.2 214.991 577.212 262.668 581.908 286.579C585.58 305.248 620.548 339.434 593.477 364.937C565.22 391.559 496.422 382.68 492.473 344.824C488.525 306.968 492.084 299.209 489.094 285.817Z" fill="#313B40" stroke="#263238" stroke-linecap="round" stroke-linejoin="round"/>
<path d="M548.841 295.702C548.841 295.702 546.599 323.299 560.833 346.934C560.833 346.934 541.659 353.168 521.673 347.243C522.518 339.928 522.111 332.523 520.47 325.344L519.804 322.357L534.331 309.793L548.841 295.702Z" fill="white"/>
<path d="M513.679 316.546C516.311 331.367 518.748 334.597 531.309 331.951C540.636 330.003 548.581 316.026 549.02 305.897C548.321 299.728 548.37 292.034 548.37 292.034L534.331 309.89L513.679 316.546Z" fill="#313B40" stroke="#263238" stroke-linecap="round" stroke-linejoin="round"/>
<path d="M548.841 295.702C548.841 295.702 546.599 323.299 560.833 346.934C560.833 346.934 541.659 353.168 521.673 347.243C522.518 339.928 522.111 332.523 520.47 325.344L519.804 322.357L534.331 309.793L548.841 295.702Z" stroke="#263238" stroke-linecap="round" stroke-linejoin="round"/>
<path d="M406.224 453.31C406.224 453.31 377.87 440.323 376.294 451.086C374.717 461.848 381.639 478.406 407.605 470.257L462.072 477.432C462.072 477.432 471.399 458.878 461.438 448.765C461.471 448.765 413.487 456.151 406.224 453.31Z" fill="white" stroke="#263238" stroke-linecap="round" stroke-linejoin="round"/>
<path d="M362.596 464.949C362.596 464.949 358.095 466.377 357.445 469.348C356.795 472.319 355.332 476.539 357.055 476.539C358.777 476.539 360.873 470.631 360.873 470.631L365.244 469.51L362.596 464.949Z" fill="white" stroke="#263238" stroke-linecap="round" stroke-linejoin="round"/>
<path d="M392.298 436.74L362.821 439.825L367.219 481.769L396.696 478.685L392.298 436.74Z" fill="white" stroke="#263238" stroke-linecap="round" stroke-linejoin="round"/>
<path d="M362.811 439.839L358.416 440.299L362.814 482.244L367.209 481.784L362.811 439.839Z" fill="#C67C06"/>
<path d="M384.369 430.681C382.684 430.877 381.142 431.724 380.074 433.04C379.005 434.357 378.494 436.038 378.649 437.726C378.649 437.872 378.649 438.018 378.731 438.164L380.226 438.002L381.851 437.84C381.81 437.695 381.778 437.549 381.753 437.401C381.687 436.816 381.776 436.224 382.012 435.685C382.248 435.145 382.623 434.677 383.098 434.329C383.573 433.98 384.132 433.764 384.718 433.7C385.304 433.636 385.896 433.729 386.435 433.967C386.974 434.206 387.44 434.582 387.787 435.058C388.133 435.535 388.348 436.094 388.408 436.68C388.469 437.265 388.374 437.857 388.133 438.394C387.891 438.931 387.512 439.395 387.034 439.739C387.218 440.26 387.549 440.717 387.987 441.054C388.426 441.391 388.952 441.594 389.504 441.638C390.214 440.972 390.76 440.151 391.099 439.238C391.437 438.325 391.559 437.346 391.454 436.379C391.367 435.538 391.114 434.724 390.71 433.981C390.306 433.239 389.759 432.584 389.1 432.054C388.441 431.525 387.684 431.131 386.872 430.895C386.06 430.659 385.209 430.586 384.369 430.681Z" fill="white" stroke="#263238" stroke-linecap="round" stroke-linejoin="round"/>
<path d="M368.364 448.521L378.504 447.466" stroke="#263238" stroke-linecap="round" stroke-linejoin="round"/>
<path d="M368.852 453.148L388.562 451.086" stroke="#263238" stroke-linecap="round" stroke-linejoin="round"/>
<path d="M369.339 457.774L379.186 456.735" stroke="#263238" stroke-linecap="round" stroke-linejoin="round"/>
<path d="M369.827 462.384L386.287 460.663" stroke="#263238" stroke-linecap="round" stroke-linejoin="round"/>
<path d="M370.314 467.011L380.161 465.988" stroke="#263238" stroke-linecap="round" stroke-linejoin="round"/>
<path d="M370.785 471.637L392.413 469.381" stroke="#263238" stroke-linecap="round" stroke-linejoin="round"/>
<path d="M371.273 476.263L381.412 475.192" stroke="#263238" stroke-linecap="round" stroke-linejoin="round"/>
<path d="M378.91 431.249C377.225 431.445 375.683 432.292 374.614 433.608C373.546 434.925 373.034 436.606 373.19 438.294C373.215 438.442 373.247 438.588 373.288 438.732L374.766 438.586L376.391 438.424C376.356 438.279 376.329 438.133 376.31 437.986C376.264 437.551 376.304 437.111 376.428 436.692C376.553 436.273 376.758 435.882 377.034 435.542C377.59 434.855 378.396 434.418 379.275 434.325C380.154 434.233 381.034 434.493 381.722 435.048C382.409 435.604 382.847 436.409 382.939 437.288C383.007 437.87 382.916 438.459 382.676 438.994C382.436 439.528 382.055 439.987 381.575 440.323C381.765 440.845 382.1 441.301 382.54 441.64C382.98 441.979 383.507 442.187 384.061 442.239C385.033 441.319 385.692 440.118 385.944 438.804C386.195 437.49 386.027 436.131 385.463 434.917C384.899 433.704 383.967 432.699 382.8 432.044C381.633 431.388 380.289 431.116 378.958 431.265L378.91 431.249Z" fill="white" stroke="#263238" stroke-linecap="round" stroke-linejoin="round"/>
<path d="M373.45 431.801C371.768 432.001 370.23 432.849 369.165 434.165C368.1 435.481 367.591 437.161 367.747 438.846C367.766 438.994 367.793 439.14 367.828 439.284L369.323 439.138L370.948 438.96C370.906 438.816 370.873 438.67 370.85 438.521C370.784 437.936 370.873 437.344 371.11 436.805C371.346 436.265 371.72 435.798 372.195 435.449C372.67 435.101 373.229 434.884 373.815 434.82C374.401 434.757 374.993 434.849 375.532 435.087C376.071 435.326 376.537 435.702 376.884 436.178C377.231 436.655 377.445 437.214 377.506 437.8C377.567 438.385 377.471 438.977 377.23 439.514C376.989 440.051 376.61 440.515 376.131 440.859C376.316 441.381 376.647 441.839 377.085 442.179C377.523 442.519 378.049 442.725 378.601 442.775C379.563 441.851 380.213 440.651 380.459 439.341C380.704 438.031 380.534 436.676 379.972 435.468C379.41 434.259 378.484 433.256 377.324 432.598C376.163 431.941 374.826 431.662 373.499 431.801H373.45Z" fill="white" stroke="#263238" stroke-linecap="round" stroke-linejoin="round"/>
<path d="M368.007 432.385C366.333 432.597 364.808 433.45 363.753 434.765C362.697 436.08 362.195 437.753 362.352 439.431C362.352 439.577 362.352 439.723 362.352 439.869L363.847 439.723L365.472 439.56C365.43 439.411 365.397 439.259 365.374 439.106C365.308 438.521 365.397 437.929 365.633 437.389C365.869 436.85 366.244 436.382 366.719 436.033C367.194 435.685 367.753 435.468 368.339 435.404C368.925 435.341 369.517 435.433 370.056 435.672C370.595 435.91 371.061 436.287 371.408 436.763C371.754 437.239 371.969 437.798 372.03 438.384C372.09 438.97 371.995 439.561 371.754 440.098C371.513 440.636 371.134 441.1 370.655 441.443C370.836 441.968 371.166 442.428 371.605 442.768C372.043 443.108 372.572 443.314 373.125 443.359C373.834 442.692 374.378 441.87 374.716 440.957C375.055 440.045 375.177 439.067 375.075 438.099C374.99 437.259 374.739 436.444 374.337 435.701C373.935 434.958 373.39 434.302 372.732 433.771C372.075 433.24 371.319 432.844 370.508 432.606C369.697 432.368 368.847 432.293 368.007 432.385V432.385Z" fill="white" stroke="#263238" stroke-linecap="round" stroke-linejoin="round"/>
<path d="M359.898 439.674C359.808 438.796 360.07 437.918 360.628 437.233C361.186 436.548 361.993 436.112 362.872 436.022C363.751 435.931 364.63 436.193 365.316 436.75C366.001 437.308 366.437 438.114 366.528 438.992C366.593 439.572 366.5 440.158 366.26 440.689C366.02 441.22 365.641 441.677 365.163 442.012C365.349 442.536 365.682 442.996 366.123 443.336C366.564 443.675 367.094 443.881 367.649 443.927C368.429 443.173 369.003 442.233 369.319 441.195C369.635 440.158 369.682 439.057 369.455 437.997C369.229 436.937 368.736 435.951 368.023 435.133C367.31 434.316 366.401 433.692 365.381 433.322C364.361 432.952 363.263 432.846 362.191 433.016C361.119 433.186 360.108 433.626 359.253 434.293C358.398 434.961 357.726 435.835 357.302 436.833C356.878 437.831 356.714 438.92 356.827 439.999C356.99 441.501 357.687 442.896 358.793 443.927L358.403 440.291L360.028 440.129C359.976 439.98 359.932 439.828 359.898 439.674V439.674Z" fill="white" stroke="#263238" stroke-linecap="round" stroke-linejoin="round"/>
<path d="M355.007 451.557C355.28 452.171 355.601 452.762 355.966 453.326C355.653 454.446 355.593 455.622 355.793 456.768C355.993 457.914 356.446 459.001 357.12 459.949C357.12 459.949 357.266 464.576 358.907 465.306C360.548 466.037 363.164 466.929 363.116 465.631C363.067 464.332 362.287 460.436 359.346 459.576C359.346 459.576 362.742 460.258 362.368 458.358C361.994 456.459 361.345 453.764 359.265 452.985L358.143 452.498C358.143 452.498 360.825 452.985 360.613 450.875C360.402 448.765 360.158 446.476 358.615 445.891C358.226 445.754 357.83 445.64 357.429 445.55C355.154 445.08 353.691 448.651 355.007 451.557Z" fill="white" stroke="#263238" stroke-linecap="round" stroke-linejoin="round"/>
<path d="M403.104 452.904C403.104 452.904 399.854 445.908 394.736 442.255C389.618 438.603 387.619 431.476 385.507 433.213C383.394 434.95 385.312 442.466 388.578 445.047C391.844 447.628 388.204 453.391 396.28 460.517" fill="white"/>
<path d="M403.104 452.904C403.104 452.904 399.854 445.908 394.736 442.255C389.618 438.603 387.619 431.476 385.507 433.213C383.394 434.95 385.312 442.466 388.578 445.047C391.844 447.628 388.204 453.391 396.28 460.517" stroke="#263238" stroke-linecap="round" stroke-linejoin="round"/>
<path d="M593.981 473.439C593.266 477.854 592.502 482.437 591.69 487.188H480.255C480.076 485.695 481.132 482.692 482.139 477.448C469.725 481.653 448.017 475.127 448.017 475.127C450.714 468.033 448.845 450.015 448.845 450.015L461.487 447.336C461.487 447.336 466.735 392.436 470.733 376.706C474.974 360.018 498.177 341.788 576.221 347.178C576.221 347.178 612.229 346.496 617.818 370.342C623.083 392.598 595.476 472.384 593.981 473.439Z" fill="#EBA417"/>
<path opacity="0.2" d="M482.139 477.465C473.511 480.387 460.431 478.13 453.249 476.474C455.117 475.046 456.287 472.124 456.726 468.358C462.575 467.449 468.425 458.164 472.276 415.957C473.186 406.055 475.136 399.838 477.638 395.65C475.115 405.148 475.014 415.127 477.346 424.675C478.743 430.34 483.13 443.976 483.52 449.625C484.301 458.925 483.836 468.287 482.139 477.465Z" fill="#EBA417"/>
<path d="M593.965 473.455C593.26 477.871 592.502 482.448 591.69 487.188H480.254C482.253 481.085 487.16 452.027 480.254 434.366C479.978 433.652 504.189 423.49 520.405 427.645C589.139 445.258 565.464 388.507 585.093 378.183L568.161 444.528L558.964 447.466C578.983 448.7 573.198 478.682 573.198 478.682C580.534 479.645 587.961 477.776 593.965 473.455V473.455Z" fill="#EBA417"/>
<path d="M450.925 446.93C450.925 446.93 455.15 449.187 456.515 459.105C457.88 469.024 455.783 477.562 450.259 477.432C444.734 477.302 443.759 475.127 444.913 473.098C446.067 471.069 448.455 468.309 446.538 459.819C444.247 449.187 439.502 450.079 439.502 450.079C439.502 450.079 445.888 444.106 450.925 446.93Z" fill="#C67C06"/>
<path d="M456.726 468.423C456.287 472.124 455.101 475.046 453.249 476.539C452.402 477.201 451.348 477.54 450.275 477.497C444.75 477.367 443.775 475.208 444.913 473.163C446.05 471.118 448.455 468.374 446.619 459.884C444.312 449.252 439.567 450.144 439.567 450.144C439.567 450.144 445.904 444.106 450.941 446.898C450.941 446.898 455.166 449.154 456.547 459.073C456.994 462.17 457.054 465.311 456.726 468.423V468.423Z" fill="#C67C06"/>
<path d="M557.08 327.325C557.08 327.325 529.066 335.814 516.311 331.285L513.679 348.282C513.679 348.282 526.06 359.077 565.789 345.814L557.08 327.325Z" fill="#FFA600"/>
<path d="M457.538 441.963C460.869 452.807 463.843 461.443 460.902 462.4C457.961 463.358 455.539 454.446 452.208 443.602C448.877 432.759 445.888 424.123 448.845 423.165C451.802 422.207 454.207 431.135 457.538 441.963Z" fill="#EBA417"/>
<path d="M451.721 442.223L457.051 440.599C456.271 438.035 455.54 435.616 454.825 433.441L449.527 435.064C450.242 437.255 450.99 439.674 451.721 442.223Z" fill="#181620"/>
<path d="M451.299 428.311C451.299 428.311 453.785 423.311 456.076 426.834C458.367 430.356 458.838 441.054 460.447 441.07" stroke="#263238" stroke-linecap="round" stroke-linejoin="round"/>
<path d="M484.349 375.277C482.318 381.495 479.474 388.264 477.638 395.715C475.115 405.213 475.014 415.192 477.346 424.74C478.743 430.405 483.13 444.041 483.52 449.69C484.295 458.968 483.83 468.309 482.139 477.465C481.132 482.692 480.076 485.695 480.254 487.205" stroke="#263238" stroke-linecap="round" stroke-linejoin="round"/>
<path d="M553.31 449.3C553.31 449.3 507.991 455.485 492.701 455.793C490.361 455.793 483.342 454.982 483.342 454.982L472.471 447.709C472.471 447.709 464.103 446.476 459.992 447.417L455.312 453.521C455.312 453.521 449.479 455.404 452.81 459.836C452.463 460.871 452.424 461.985 452.698 463.043C452.972 464.1 453.547 465.055 454.353 465.793C454.353 465.793 454.597 469.64 457.165 471.166C457.165 471.166 457.684 474.754 460.512 475.776C463.339 476.799 481.034 473.991 486.413 472.449C491.791 470.907 544.145 479.12 564.668 478.601C564.668 478.65 582.249 458.147 553.31 449.3Z" fill="white" stroke="#263238" stroke-linecap="round" stroke-linejoin="round"/>
<path d="M554.09 277.83C554.09 277.83 542.13 282.489 535.046 269.6C531.975 264.015 525.768 252.36 525.768 252.36C523.997 256.922 526.158 263.886 526.158 263.886C522.112 262.116 514.28 261.694 514.28 261.694C511.501 257.035 510.689 246.5 510.689 246.5C506.838 252.993 507.943 262.132 507.943 262.132C501.657 262.748 495.709 265.268 490.897 269.356C491.905 273.496 492.279 279.956 491.937 293.365C491.499 310.897 499.932 315.702 508.186 322.244C516.441 328.786 538.913 332.194 546.68 297.894C546.68 297.894 562.929 291.839 555 279.128C554.61 278.739 554.333 278.284 554.09 277.83Z" fill="white" stroke="#263238" stroke-linecap="round" stroke-linejoin="round"/>
<path d="M540.701 256.792C543.123 262.013 546.656 266.644 551.054 270.362C555.451 274.08 560.607 276.794 566.163 278.317" stroke="#BFBFBF" stroke-miterlimit="10"/>
<path d="M536.427 243.821C536.805 245.949 537.348 248.044 538.052 250.087" stroke="#BFBFBF" stroke-miterlimit="10"/>
<path d="M544.551 244.601C544.551 244.601 553.764 262.197 568.193 262.619" stroke="#BFBFBF" stroke-miterlimit="10"/>
<path d="M572.841 289.355C572.841 289.355 596.321 327.325 596.321 349.418" stroke="#BFBFBF" stroke-miterlimit="10"/>
<path d="M566.634 299.485C566.634 299.485 572.435 320.588 581.762 331.285" stroke="#BFBFBF" stroke-miterlimit="10"/>
<path d="M492.848 244.406C492.145 247.532 491.678 250.706 491.45 253.902" stroke="#BFBFBF" stroke-miterlimit="10"/>
<path d="M512.054 224.504C512.054 224.504 501.134 226.549 494.001 239.422" stroke="#BFBFBF" stroke-miterlimit="10"/>
<path d="M498.226 322.86C498.226 322.86 497.868 339.905 506.561 349.467" stroke="#BFBFBF" stroke-miterlimit="10"/>
<path d="M513.679 270.687C525.508 268.382 530.707 274.405 530.707 274.405" stroke="#263238" stroke-linecap="round" stroke-linejoin="round"/>
<path d="M493.969 275.687C495.275 274.364 496.842 273.326 498.571 272.639C500.299 271.951 502.151 271.63 504.011 271.694" stroke="#263238" stroke-linecap="round" stroke-linejoin="round"/>
<path d="M521.397 310.377C525.053 308.283 527.084 302.878 527.084 302.878L526.32 303.283C521.556 305.833 516.361 307.484 510.998 308.153V308.153C512.253 309.603 513.947 310.605 515.824 311.006C517.701 311.408 519.657 311.187 521.397 310.377V310.377Z" stroke="#263238" stroke-linecap="round" stroke-linejoin="round"/>
<path d="M506.968 299.079C505.44 298.9 501.021 296.806 500.663 293.836C500.676 293.337 500.821 292.85 501.084 292.425C501.346 292 501.717 291.652 502.158 291.417C504.053 290.084 505.577 288.29 506.586 286.205C507.595 284.121 508.057 281.814 507.926 279.502C507.926 279.161 507.926 278.966 507.926 278.966" stroke="#263238" stroke-linecap="round" stroke-linejoin="round"/>
<path d="M522.047 275.444C523.168 275.314 524.322 277.164 524.614 279.583C524.907 282.002 524.24 284.08 523.119 284.209C521.998 284.339 520.844 282.505 520.552 280.086C520.259 277.667 520.925 275.59 522.047 275.444Z" fill="#181620"/>
<path d="M502.515 282.456C502.808 284.826 502.142 286.872 501.053 287.002C499.964 287.131 498.827 285.378 498.534 282.943C498.242 280.508 498.892 278.544 499.981 278.398C501.069 278.252 502.223 280.07 502.515 282.456Z" fill="#181620"/>
<path d="M538.881 277.489C538.881 277.489 537.353 273.203 539.092 270.996" stroke="#263238" stroke-linecap="round" stroke-linejoin="round"/>
<path d="M593.965 473.455C587.944 477.792 580.491 479.662 573.134 478.682C573.134 478.682 578.902 448.7 558.899 447.466L568.129 444.528L585.06 378.232" stroke="#263238" stroke-linecap="round" stroke-linejoin="round"/>
<path d="M573.134 444.528C573.134 444.528 583.858 447.336 586.864 456.556" stroke="#263238" stroke-linecap="round" stroke-linejoin="round"/>
<path d="M529.375 337.746C539.581 337.692 549.66 335.479 558.948 331.253" stroke="#263238" stroke-linecap="round" stroke-linejoin="round"/>
<path d="M515.563 336.172C517.856 336.765 520.192 337.172 522.551 337.389" stroke="#263238" stroke-linecap="round" stroke-linejoin="round"/>
<path d="M561.239 355.181C564.132 354.158 567.154 352.973 570.339 351.609" stroke="#263238" stroke-linecap="round" stroke-linejoin="round"/>
<path d="M511.062 355.505C511.062 355.505 521.966 365.83 550.808 358.46" stroke="#263238" stroke-linecap="round" stroke-linejoin="round"/>
<path d="M520.487 406.818C520.487 406.818 522.193 431.785 540.701 441.07" stroke="#263238" stroke-linecap="round" stroke-linejoin="round"/>
<path d="M552.855 449.657C552.855 449.657 556.511 441.638 567.382 445.599C567.382 445.599 577.683 449.138 580.754 459.706C583.825 470.273 579.991 479.689 572.484 480.078C564.977 480.468 563.612 479.883 564.879 477.578C566.208 475.063 566.95 472.281 567.051 469.439C567.153 466.598 566.61 463.77 565.464 461.167C560.784 450.063 552.855 449.657 552.855 449.657Z" fill="#C67C06"/>
<g opacity="0.2">
<path opacity="0.2" d="M552.855 449.657C552.855 449.657 556.511 441.638 567.382 445.599C567.382 445.599 577.683 449.138 580.754 459.706C583.825 470.273 579.991 479.689 572.484 480.078C564.977 480.468 563.612 479.883 564.879 477.578C566.208 475.063 566.95 472.281 567.051 469.439C567.153 466.598 566.61 463.77 565.464 461.167C560.784 450.063 552.855 449.657 552.855 449.657Z" fill="#C67C06"/>
</g>
<path d="M55.0027 416.704C55.0027 416.704 49.4131 368.946 0 388.183C0 388.183 42.0523 387.874 49.1531 423.895L55.6527 423.197L55.0027 416.704Z" fill="#BEF264"/>
<path opacity="0.1" d="M55.0027 416.704C55.0027 416.704 49.4131 368.946 0 388.183C0 388.183 42.0523 387.874 49.1531 423.895L55.6527 423.197L55.0027 416.704Z" fill="black"/>
<path d="M55.6852 415.892C55.6852 415.892 51.3955 364.985 42.1011 325.409C42.1011 325.409 70.5368 355.457 64.0372 412.045L55.6852 415.892Z" fill="#BEF264"/>
<path opacity="0.1" d="M55.6852 415.892C55.6852 415.892 51.3955 364.985 42.1011 325.409C42.1011 325.409 70.5368 355.457 64.0372 412.045L55.6852 415.892Z" fill="black"/>
<path opacity="0.7" d="M52.9228 449.657C52.9228 449.657 44.7171 379.53 17.4351 355.505C17.4351 355.505 66.182 367.631 58.9999 442.109L52.9228 449.657Z" fill="#A5F257"/>
<path opacity="0.7" d="M61.5022 446.654C61.5022 446.654 73.4452 377.063 101.978 354.483C101.978 354.483 52.6141 363.979 55.8314 438.732L61.5022 446.654Z" fill="#A5F257"/>
<path d="M86.5417 423.895H28.8579V433.911H30.7753V469.234C30.7752 473.979 32.6552 478.531 36.0045 481.895C39.3537 485.26 43.8998 487.163 48.6492 487.188H66.6205C68.976 487.188 71.3082 486.723 73.4831 485.82C75.6581 484.916 77.6328 483.592 79.2938 481.924C80.9549 480.255 82.2694 478.275 83.1619 476.098C84.0544 473.92 84.5072 471.588 84.4944 469.234V433.911H86.428L86.5417 423.895Z" fill="white" stroke="#263238" stroke-miterlimit="10"/>
<path d="M68.6519 433.424H76.3701Z" fill="white"/>
<path d="M68.6519 433.424H76.3701" stroke="#263238" stroke-miterlimit="10"/>
<path d="M38.5913 433.424H60.8524Z" fill="white"/>
<path d="M38.5913 433.424H60.8524" stroke="#263238" stroke-miterlimit="10"/>
<path d="M281.789 443.164L267.019 322.86C266.738 320.979 265.805 319.257 264.383 317.993C262.96 316.729 261.139 316.004 259.236 315.945H242.272L261.852 450.079H275.729C276.606 450.1 277.477 449.927 278.28 449.574C279.083 449.221 279.799 448.696 280.377 448.037C280.955 447.377 281.381 446.599 281.625 445.757C281.869 444.915 281.925 444.03 281.789 443.164V443.164Z" fill="#394A51" stroke="#263238" stroke-linecap="round" stroke-linejoin="round"/>
<path d="M272.056 450.015H101.67C99.7794 449.954 97.9693 449.237 96.5514 447.987C95.1336 446.736 94.1969 445.031 93.9028 443.164L79.1162 322.861C78.9802 321.993 79.0367 321.106 79.2817 320.263C79.5267 319.42 79.9542 318.641 80.534 317.981C81.1138 317.322 81.8317 316.797 82.6369 316.445C83.4421 316.093 84.3148 315.923 85.1933 315.945H255.564C257.467 316.004 259.288 316.729 260.711 317.993C262.133 319.257 263.066 320.979 263.347 322.861L278.134 443.164C278.259 444.027 278.195 444.906 277.945 445.741C277.695 446.576 277.266 447.347 276.687 447.999C276.109 448.651 275.395 449.17 274.595 449.518C273.795 449.866 272.929 450.035 272.056 450.015V450.015Z" fill="#181620"/>
<path opacity="0.1" d="M272.056 450.015H101.67C99.7794 449.954 97.9693 449.237 96.5514 447.987C95.1336 446.736 94.1969 445.031 93.9028 443.164L79.1162 322.861C78.9802 321.993 79.0367 321.106 79.2817 320.263C79.5267 319.42 79.9542 318.641 80.534 317.981C81.1138 317.322 81.8317 316.797 82.6369 316.445C83.4421 316.093 84.3148 315.923 85.1933 315.945H255.564C257.467 316.004 259.288 316.729 260.711 317.993C262.133 319.257 263.066 320.979 263.347 322.861L278.134 443.164C278.259 444.027 278.195 444.906 277.945 445.741C277.695 446.576 277.266 447.347 276.687 447.999C276.109 448.651 275.395 449.17 274.595 449.518C273.795 449.866 272.929 450.035 272.056 450.015V450.015Z" fill="white"/>
<path d="M272.056 450.015H101.67C99.7794 449.954 97.9693 449.237 96.5514 447.987C95.1336 446.736 94.1969 445.031 93.9028 443.164L79.1162 322.861C78.9802 321.993 79.0367 321.106 79.2817 320.263C79.5267 319.42 79.9542 318.641 80.534 317.981C81.1138 317.322 81.8317 316.797 82.6369 316.445C83.4421 316.093 84.3148 315.923 85.1933 315.945H255.564C257.467 316.004 259.288 316.729 260.711 317.993C262.133 319.257 263.066 320.979 263.347 322.861L278.134 443.164C278.259 444.027 278.195 444.906 277.945 445.741C277.695 446.576 277.266 447.347 276.687 447.999C276.109 448.651 275.395 449.17 274.595 449.518C273.795 449.866 272.929 450.035 272.056 450.015V450.015Z" stroke="#263238" stroke-linecap="round" stroke-linejoin="round"/>
<path d="M192.615 477.351L199.407 399.87C199.436 399.427 199.374 398.982 199.223 398.563C199.073 398.145 198.838 397.761 198.534 397.437C198.229 397.113 197.861 396.855 197.452 396.678C197.043 396.502 196.603 396.412 196.158 396.413H153.228C152.422 396.408 151.643 396.703 151.043 397.24C150.442 397.777 150.063 398.518 149.978 399.319L142.569 483.731C142.537 484.176 142.598 484.623 142.747 485.043C142.897 485.464 143.131 485.849 143.436 486.175C143.741 486.501 144.11 486.76 144.52 486.938C144.93 487.115 145.372 487.206 145.818 487.205H231.028C231.89 487.205 232.716 486.863 233.326 486.254C233.935 485.645 234.278 484.819 234.278 483.958C234.278 483.097 233.935 482.271 233.326 481.662C232.716 481.053 231.89 480.711 231.028 480.711H195.784C195.354 480.701 194.931 480.605 194.539 480.43C194.146 480.255 193.792 480.004 193.498 479.692C193.203 479.379 192.973 479.012 192.822 478.61C192.67 478.208 192.6 477.78 192.615 477.351Z" fill="#181620" stroke="#263238" stroke-linecap="round" stroke-linejoin="round"/>
<path d="M234.213 483.99C234.213 483.129 233.87 482.304 233.261 481.695C232.651 481.086 231.825 480.744 230.963 480.744H195.784C195.346 480.734 194.914 480.635 194.515 480.454C194.115 480.273 193.757 480.013 193.461 479.69C193.165 479.367 192.938 478.988 192.792 478.575C192.647 478.161 192.587 477.723 192.615 477.286L199.407 399.805C199.554 399.342 199.594 398.851 199.526 398.37C199.457 397.889 199.281 397.429 199.011 397.025C198.74 396.621 198.383 396.282 197.964 396.034C197.545 395.787 197.076 395.636 196.591 395.594C196.106 395.552 195.618 395.618 195.163 395.79C194.708 395.961 194.296 396.232 193.96 396.584C193.624 396.935 193.371 397.357 193.219 397.819C193.068 398.281 193.023 398.772 193.086 399.254L185.677 483.666C185.646 484.111 185.707 484.558 185.856 484.978C186.005 485.399 186.24 485.784 186.544 486.11C186.849 486.436 187.218 486.695 187.628 486.873C188.038 487.05 188.48 487.141 188.927 487.14H231.093C231.915 487.107 232.695 486.764 233.274 486.179C233.853 485.595 234.189 484.812 234.213 483.99Z" fill="#394A51" stroke="#263238" stroke-linecap="round" stroke-linejoin="round"/>
<path d="M38.8516 487.188H648.188" stroke="#263238" stroke-linecap="round" stroke-linejoin="round"/>
<path d="M607.419 192.395H575.392C574.403 192.393 573.423 192.586 572.508 192.962C571.593 193.339 570.762 193.892 570.062 194.591C569.361 195.289 568.806 196.118 568.427 197.031C568.048 197.944 567.853 198.922 567.853 199.911V215.478C567.853 217.476 568.647 219.392 570.061 220.804C571.475 222.217 573.392 223.011 575.392 223.011H583.76L586.198 237.377L599.051 223.011H607.419C609.418 223.011 611.336 222.217 612.75 220.804C614.164 219.392 614.958 217.476 614.958 215.478V199.911C614.958 198.922 614.763 197.944 614.384 197.031C614.005 196.118 613.449 195.289 612.749 194.591C612.049 193.892 611.217 193.339 610.303 192.962C609.388 192.586 608.408 192.393 607.419 192.395V192.395Z" fill="white" stroke="#263238" stroke-linecap="round" stroke-linejoin="round"/>
<path d="M558.314 146.325H526.288C524.288 146.325 522.37 147.119 520.956 148.531C519.542 149.944 518.748 151.86 518.748 153.857V169.425C518.748 170.413 518.943 171.392 519.322 172.305C519.701 173.218 520.257 174.047 520.957 174.745C521.658 175.444 522.489 175.997 523.404 176.374C524.318 176.75 525.298 176.943 526.288 176.941H534.591L540.928 191.307L549.881 176.941H558.249C559.239 176.943 560.219 176.75 561.133 176.374C562.048 175.997 562.879 175.444 563.58 174.745C564.28 174.047 564.835 173.218 565.215 172.305C565.594 171.392 565.789 170.413 565.789 169.425V153.857C565.789 151.871 565.003 149.965 563.604 148.554C562.204 147.144 560.303 146.342 558.314 146.325Z" fill="white" stroke="#263238" stroke-linecap="round" stroke-linejoin="round"/>
<path d="M495.983 162.493H465.728C463.84 162.493 462.03 163.243 460.695 164.576C459.361 165.909 458.611 167.718 458.611 169.604V184.213C458.611 186.099 459.361 187.908 460.695 189.241C462.03 190.574 463.84 191.324 465.728 191.324H473.641L481.879 204.894L488.07 191.324H495.983C497.868 191.319 499.674 190.568 501.005 189.235C502.337 187.902 503.084 186.096 503.084 184.213V169.604C503.084 167.721 502.337 165.915 501.005 164.582C499.674 163.249 497.868 162.498 495.983 162.493V162.493Z" fill="white" stroke="#263238" stroke-linecap="round" stroke-linejoin="round"/>
<path d="M472.1 173.07H473.36V180H472.1V176.93H469.09V180H467.83V173.07H469.09V175.84H472.1V173.07ZM479.848 173.07V174.16H477.718V180H476.448V174.16H474.318V173.07H479.848ZM482.319 173.07C482.465 173.323 482.629 173.633 482.809 174C482.989 174.367 483.172 174.753 483.359 175.16C483.545 175.56 483.729 175.97 483.909 176.39C484.095 176.803 484.265 177.187 484.419 177.54C484.572 177.187 484.739 176.803 484.919 176.39C485.099 175.97 485.282 175.56 485.469 175.16C485.655 174.753 485.839 174.367 486.019 174C486.199 173.633 486.362 173.323 486.509 173.07H487.649C487.709 173.577 487.765 174.117 487.819 174.69C487.872 175.257 487.919 175.84 487.959 176.44C488.005 177.033 488.045 177.633 488.079 178.24C488.119 178.84 488.152 179.427 488.179 180H486.939C486.912 179.193 486.879 178.363 486.839 177.51C486.805 176.657 486.752 175.83 486.679 175.03C486.605 175.183 486.519 175.367 486.419 175.58C486.319 175.793 486.212 176.027 486.099 176.28C485.985 176.527 485.869 176.783 485.749 177.05C485.635 177.317 485.522 177.577 485.409 177.83C485.302 178.077 485.202 178.31 485.109 178.53C485.015 178.743 484.935 178.927 484.869 179.08H483.929C483.862 178.927 483.782 178.74 483.689 178.52C483.595 178.3 483.492 178.067 483.379 177.82C483.272 177.567 483.159 177.307 483.039 177.04C482.925 176.773 482.812 176.517 482.699 176.27C482.585 176.023 482.479 175.793 482.379 175.58C482.279 175.36 482.192 175.177 482.119 175.03C482.045 175.83 481.989 176.657 481.949 177.51C481.915 178.363 481.885 179.193 481.859 180H480.619C480.645 179.427 480.675 178.833 480.709 178.22C480.749 177.607 480.789 177 480.829 176.4C480.875 175.793 480.925 175.207 480.979 174.64C481.032 174.073 481.089 173.55 481.149 173.07H482.319ZM494.026 178.91V180H489.646V173.07H490.906V178.91H494.026Z" fill="#263238"/>
<path d="M576.48 208.176C576.48 208.448 576.451 208.701 576.392 208.936C576.333 209.171 576.229 209.376 576.08 209.552C575.936 209.728 575.739 209.867 575.488 209.968C575.243 210.069 574.931 210.12 574.552 210.12C574.2 210.12 573.893 210.072 573.632 209.976C573.376 209.875 573.179 209.768 573.04 209.656L573.4 208.864C573.533 208.955 573.696 209.043 573.888 209.128C574.085 209.208 574.285 209.248 574.488 209.248C574.829 209.248 575.077 209.163 575.232 208.992C575.387 208.821 575.464 208.528 575.464 208.112V204.456H576.48V208.176ZM579.19 209.32C579.488 209.32 579.715 209.304 579.87 209.272V208.2C579.816 208.184 579.739 208.168 579.638 208.152C579.536 208.136 579.424 208.128 579.302 208.128C579.195 208.128 579.086 208.136 578.974 208.152C578.867 208.168 578.768 208.197 578.678 208.24C578.592 208.283 578.523 208.344 578.47 208.424C578.416 208.499 578.39 208.595 578.39 208.712C578.39 208.941 578.462 209.101 578.606 209.192C578.75 209.277 578.944 209.32 579.19 209.32ZM579.11 205.712C579.43 205.712 579.699 205.752 579.918 205.832C580.136 205.912 580.31 206.024 580.438 206.168C580.571 206.312 580.664 206.488 580.718 206.696C580.776 206.899 580.806 207.123 580.806 207.368V209.904C580.656 209.936 580.43 209.973 580.126 210.016C579.827 210.064 579.488 210.088 579.11 210.088C578.859 210.088 578.63 210.064 578.422 210.016C578.214 209.968 578.035 209.891 577.886 209.784C577.742 209.677 577.627 209.539 577.542 209.368C577.462 209.197 577.422 208.987 577.422 208.736C577.422 208.496 577.467 208.293 577.558 208.128C577.654 207.963 577.782 207.829 577.942 207.728C578.102 207.621 578.286 207.547 578.494 207.504C578.707 207.456 578.928 207.432 579.158 207.432C579.264 207.432 579.376 207.44 579.494 207.456C579.611 207.467 579.736 207.488 579.87 207.52V207.36C579.87 207.248 579.856 207.141 579.83 207.04C579.803 206.939 579.755 206.851 579.686 206.776C579.622 206.696 579.534 206.635 579.422 206.592C579.315 206.549 579.179 206.528 579.014 206.528C578.79 206.528 578.584 206.544 578.398 206.576C578.211 206.608 578.059 206.645 577.942 206.688L577.822 205.904C577.944 205.861 578.123 205.819 578.358 205.776C578.592 205.733 578.843 205.712 579.11 205.712ZM582.961 210C582.695 209.451 582.42 208.821 582.137 208.112C581.86 207.397 581.607 206.632 581.377 205.816H582.409C582.468 206.051 582.535 206.304 582.609 206.576C582.689 206.843 582.772 207.112 582.857 207.384C582.948 207.651 583.039 207.912 583.129 208.168C583.225 208.419 583.313 208.645 583.393 208.848C583.473 208.645 583.559 208.419 583.649 208.168C583.74 207.912 583.828 207.651 583.913 207.384C584.004 207.112 584.089 206.843 584.169 206.576C584.249 206.304 584.319 206.051 584.377 205.816H585.377C585.148 206.632 584.892 207.397 584.609 208.112C584.332 208.821 584.06 209.451 583.793 210H582.961ZM587.572 209.32C587.871 209.32 588.098 209.304 588.252 209.272V208.2C588.199 208.184 588.122 208.168 588.02 208.152C587.919 208.136 587.807 208.128 587.684 208.128C587.578 208.128 587.468 208.136 587.356 208.152C587.25 208.168 587.151 208.197 587.06 208.24C586.975 208.283 586.906 208.344 586.852 208.424C586.799 208.499 586.772 208.595 586.772 208.712C586.772 208.941 586.844 209.101 586.988 209.192C587.132 209.277 587.327 209.32 587.572 209.32ZM587.492 205.712C587.812 205.712 588.082 205.752 588.3 205.832C588.519 205.912 588.692 206.024 588.82 206.168C588.954 206.312 589.047 206.488 589.1 206.696C589.159 206.899 589.188 207.123 589.188 207.368V209.904C589.039 209.936 588.812 209.973 588.508 210.016C588.21 210.064 587.871 210.088 587.492 210.088C587.242 210.088 587.012 210.064 586.804 210.016C586.596 209.968 586.418 209.891 586.268 209.784C586.124 209.677 586.01 209.539 585.924 209.368C585.844 209.197 585.804 208.987 585.804 208.736C585.804 208.496 585.85 208.293 585.94 208.128C586.036 207.963 586.164 207.829 586.324 207.728C586.484 207.621 586.668 207.547 586.876 207.504C587.09 207.456 587.311 207.432 587.54 207.432C587.647 207.432 587.759 207.44 587.876 207.456C587.994 207.467 588.119 207.488 588.252 207.52V207.36C588.252 207.248 588.239 207.141 588.212 207.04C588.186 206.939 588.138 206.851 588.068 206.776C588.004 206.696 587.916 206.635 587.804 206.592C587.698 206.549 587.562 206.528 587.396 206.528C587.172 206.528 586.967 206.544 586.78 206.576C586.594 206.608 586.442 206.645 586.324 206.688L586.204 205.904C586.327 205.861 586.506 205.819 586.74 205.776C586.975 205.733 587.226 205.712 587.492 205.712ZM591.422 209.304C591.678 209.304 591.864 209.275 591.982 209.216C592.099 209.152 592.158 209.045 592.158 208.896C592.158 208.757 592.094 208.643 591.966 208.552C591.843 208.461 591.638 208.363 591.35 208.256C591.174 208.192 591.011 208.125 590.862 208.056C590.718 207.981 590.592 207.896 590.486 207.8C590.379 207.704 590.294 207.589 590.23 207.456C590.171 207.317 590.142 207.149 590.142 206.952C590.142 206.568 590.283 206.267 590.566 206.048C590.848 205.824 591.232 205.712 591.718 205.712C591.963 205.712 592.198 205.736 592.422 205.784C592.646 205.827 592.814 205.869 592.926 205.912L592.75 206.696C592.643 206.648 592.507 206.605 592.342 206.568C592.176 206.525 591.984 206.504 591.766 206.504C591.568 206.504 591.408 206.539 591.286 206.608C591.163 206.672 591.102 206.773 591.102 206.912C591.102 206.981 591.112 207.043 591.134 207.096C591.16 207.149 591.203 207.2 591.262 207.248C591.32 207.291 591.398 207.336 591.494 207.384C591.59 207.427 591.707 207.472 591.846 207.52C592.075 207.605 592.27 207.691 592.43 207.776C592.59 207.856 592.72 207.949 592.822 208.056C592.928 208.157 593.006 208.275 593.054 208.408C593.102 208.541 593.126 208.701 593.126 208.888C593.126 209.288 592.976 209.592 592.678 209.8C592.384 210.003 591.963 210.104 591.414 210.104C591.046 210.104 590.75 210.072 590.526 210.008C590.302 209.949 590.144 209.901 590.054 209.864L590.222 209.056C590.366 209.115 590.536 209.171 590.734 209.224C590.936 209.277 591.166 209.304 591.422 209.304ZM593.798 207.912C593.798 207.603 593.846 207.315 593.942 207.048C594.038 206.776 594.174 206.541 594.35 206.344C594.531 206.147 594.75 205.992 595.006 205.88C595.262 205.768 595.55 205.712 595.87 205.712C596.265 205.712 596.638 205.784 596.99 205.928L596.782 206.72C596.67 206.672 596.542 206.632 596.398 206.6C596.259 206.568 596.11 206.552 595.95 206.552C595.571 206.552 595.283 206.672 595.086 206.912C594.889 207.147 594.79 207.48 594.79 207.912C594.79 208.328 594.883 208.659 595.07 208.904C595.257 209.144 595.571 209.264 596.014 209.264C596.179 209.264 596.342 209.248 596.502 209.216C596.662 209.184 596.801 209.144 596.918 209.096L597.054 209.896C596.947 209.949 596.785 209.997 596.566 210.04C596.353 210.083 596.131 210.104 595.902 210.104C595.545 210.104 595.233 210.051 594.966 209.944C594.705 209.832 594.486 209.68 594.31 209.488C594.139 209.291 594.011 209.059 593.926 208.792C593.841 208.52 593.798 208.227 593.798 207.912ZM600.188 206.688C600.108 206.661 599.996 206.635 599.852 206.608C599.713 206.576 599.55 206.56 599.364 206.56C599.257 206.56 599.142 206.571 599.02 206.592C598.902 206.613 598.82 206.632 598.772 206.648V210H597.804V206.016C597.99 205.947 598.222 205.883 598.5 205.824C598.782 205.76 599.094 205.728 599.436 205.728C599.5 205.728 599.574 205.733 599.66 205.744C599.745 205.749 599.83 205.76 599.916 205.776C600.001 205.787 600.084 205.803 600.164 205.824C600.244 205.84 600.308 205.856 600.356 205.872L600.188 206.688ZM602.006 210H601.038V205.816H602.006V210ZM602.11 204.592C602.11 204.773 602.051 204.917 601.934 205.024C601.817 205.131 601.678 205.184 601.518 205.184C601.353 205.184 601.211 205.131 601.094 205.024C600.977 204.917 600.918 204.773 600.918 204.592C600.918 204.405 600.977 204.259 601.094 204.152C601.211 204.045 601.353 203.992 601.518 203.992C601.678 203.992 601.817 204.045 601.934 204.152C602.051 204.259 602.11 204.405 602.11 204.592ZM606.017 207.928C606.017 207.496 605.918 207.16 605.721 206.92C605.529 206.68 605.217 206.56 604.785 206.56C604.694 206.56 604.598 206.565 604.497 206.576C604.401 206.581 604.305 206.597 604.209 206.624V209.016C604.294 209.075 604.406 209.131 604.545 209.184C604.689 209.232 604.841 209.256 605.001 209.256C605.353 209.256 605.609 209.136 605.769 208.896C605.934 208.656 606.017 208.333 606.017 207.928ZM607.009 207.912C607.009 208.232 606.966 208.525 606.881 208.792C606.801 209.059 606.684 209.288 606.529 209.48C606.374 209.672 606.18 209.821 605.945 209.928C605.716 210.035 605.454 210.088 605.161 210.088C604.964 210.088 604.782 210.064 604.617 210.016C604.452 209.968 604.316 209.915 604.209 209.856V211.48H603.241V205.952C603.438 205.899 603.681 205.848 603.969 205.8C604.257 205.752 604.561 205.728 604.881 205.728C605.212 205.728 605.508 205.779 605.769 205.88C606.03 205.981 606.252 206.128 606.433 206.32C606.62 206.507 606.761 206.736 606.857 207.008C606.958 207.275 607.009 207.576 607.009 207.912ZM607.959 204.712L608.927 204.552V205.816H610.415V206.624H608.927V208.328C608.927 208.664 608.98 208.904 609.087 209.048C609.193 209.192 609.375 209.264 609.631 209.264C609.807 209.264 609.961 209.245 610.095 209.208C610.233 209.171 610.343 209.136 610.423 209.104L610.583 209.872C610.471 209.92 610.324 209.968 610.143 210.016C609.961 210.069 609.748 210.096 609.503 210.096C609.204 210.096 608.953 210.056 608.751 209.976C608.553 209.896 608.396 209.781 608.279 209.632C608.161 209.477 608.079 209.293 608.031 209.08C607.983 208.861 607.959 208.613 607.959 208.336V204.712Z" fill="#263238"/>
<path d="M536.91 165.15C536.39 165.15 535.923 165.07 535.51 164.91C535.097 164.75 534.747 164.517 534.46 164.21C534.173 163.897 533.953 163.517 533.8 163.07C533.647 162.623 533.57 162.11 533.57 161.53C533.57 160.95 533.657 160.437 533.83 159.99C534.01 159.543 534.253 159.167 534.56 158.86C534.867 158.547 535.227 158.31 535.64 158.15C536.053 157.99 536.497 157.91 536.97 157.91C537.257 157.91 537.517 157.933 537.75 157.98C537.983 158.02 538.187 158.067 538.36 158.12C538.533 158.173 538.677 158.23 538.79 158.29C538.903 158.35 538.983 158.393 539.03 158.42L538.66 159.45C538.5 159.35 538.27 159.257 537.97 159.17C537.677 159.077 537.357 159.03 537.01 159.03C536.71 159.03 536.43 159.083 536.17 159.19C535.91 159.29 535.683 159.443 535.49 159.65C535.303 159.857 535.157 160.117 535.05 160.43C534.943 160.743 534.89 161.107 534.89 161.52C534.89 161.887 534.93 162.223 535.01 162.53C535.097 162.837 535.227 163.103 535.4 163.33C535.573 163.55 535.793 163.723 536.06 163.85C536.327 163.97 536.647 164.03 537.02 164.03C537.467 164.03 537.83 163.987 538.11 163.9C538.39 163.807 538.607 163.72 538.76 163.64L539.1 164.67C539.02 164.723 538.91 164.777 538.77 164.83C538.637 164.883 538.477 164.937 538.29 164.99C538.103 165.037 537.893 165.073 537.66 165.1C537.427 165.133 537.177 165.15 536.91 165.15ZM541.975 164.06C542.428 164.06 542.758 163.983 542.965 163.83C543.172 163.677 543.275 163.46 543.275 163.18C543.275 163.013 543.238 162.87 543.165 162.75C543.098 162.63 542.998 162.523 542.865 162.43C542.738 162.33 542.582 162.24 542.395 162.16C542.208 162.073 541.995 161.99 541.755 161.91C541.515 161.823 541.282 161.73 541.055 161.63C540.835 161.523 540.638 161.393 540.465 161.24C540.298 161.087 540.162 160.903 540.055 160.69C539.955 160.477 539.905 160.22 539.905 159.92C539.905 159.293 540.122 158.803 540.555 158.45C540.988 158.09 541.578 157.91 542.325 157.91C542.758 157.91 543.142 157.96 543.475 158.06C543.815 158.153 544.082 158.257 544.275 158.37L543.885 159.39C543.658 159.263 543.408 159.167 543.135 159.1C542.868 159.033 542.592 159 542.305 159C541.965 159 541.698 159.07 541.505 159.21C541.318 159.35 541.225 159.547 541.225 159.8C541.225 159.953 541.255 160.087 541.315 160.2C541.382 160.307 541.472 160.403 541.585 160.49C541.705 160.577 541.842 160.657 541.995 160.73C542.155 160.803 542.328 160.873 542.515 160.94C542.842 161.06 543.132 161.183 543.385 161.31C543.645 161.43 543.862 161.577 544.035 161.75C544.215 161.917 544.352 162.117 544.445 162.35C544.538 162.577 544.585 162.853 544.585 163.18C544.585 163.807 544.362 164.293 543.915 164.64C543.475 164.98 542.828 165.15 541.975 165.15C541.688 165.15 541.425 165.13 541.185 165.09C540.952 165.057 540.742 165.013 540.555 164.96C540.375 164.907 540.218 164.853 540.085 164.8C539.952 164.74 539.845 164.687 539.765 164.64L540.135 163.61C540.315 163.71 540.558 163.81 540.865 163.91C541.172 164.01 541.542 164.06 541.975 164.06ZM547.375 164.06C547.829 164.06 548.159 163.983 548.365 163.83C548.572 163.677 548.675 163.46 548.675 163.18C548.675 163.013 548.639 162.87 548.565 162.75C548.499 162.63 548.399 162.523 548.265 162.43C548.139 162.33 547.982 162.24 547.795 162.16C547.609 162.073 547.395 161.99 547.155 161.91C546.915 161.823 546.682 161.73 546.455 161.63C546.235 161.523 546.039 161.393 545.865 161.24C545.699 161.087 545.562 160.903 545.455 160.69C545.355 160.477 545.305 160.22 545.305 159.92C545.305 159.293 545.522 158.803 545.955 158.45C546.389 158.09 546.979 157.91 547.725 157.91C548.159 157.91 548.542 157.96 548.875 158.06C549.215 158.153 549.482 158.257 549.675 158.37L549.285 159.39C549.059 159.263 548.809 159.167 548.535 159.1C548.269 159.033 547.992 159 547.705 159C547.365 159 547.099 159.07 546.905 159.21C546.719 159.35 546.625 159.547 546.625 159.8C546.625 159.953 546.655 160.087 546.715 160.2C546.782 160.307 546.872 160.403 546.985 160.49C547.105 160.577 547.242 160.657 547.395 160.73C547.555 160.803 547.729 160.873 547.915 160.94C548.242 161.06 548.532 161.183 548.785 161.31C549.045 161.43 549.262 161.577 549.435 161.75C549.615 161.917 549.752 162.117 549.845 162.35C549.939 162.577 549.985 162.853 549.985 163.18C549.985 163.807 549.762 164.293 549.315 164.64C548.875 164.98 548.229 165.15 547.375 165.15C547.089 165.15 546.825 165.13 546.585 165.09C546.352 165.057 546.142 165.013 545.955 164.96C545.775 164.907 545.619 164.853 545.485 164.8C545.352 164.74 545.245 164.687 545.165 164.64L545.535 163.61C545.715 163.71 545.959 163.81 546.265 163.91C546.572 164.01 546.942 164.06 547.375 164.06Z" fill="#263238"/>
</svg>
