<svg width="34" height="45" viewBox="0 0 34 45" fill="none" xmlns="http://www.w3.org/2000/svg">
<path d="M18.0003 44.6728C17.9083 44.6728 17.8163 44.6617 17.7263 44.6376L3.72626 40.9267C3.33026 40.821 3.04426 40.5019 3.00426 40.1215L0.00425866 10.435C-0.0217414 10.1752 0.0722588 9.91729 0.260259 9.72433C0.450259 9.52951 0.718259 9.42004 1.00026 9.42004H33.0003C33.2823 9.42004 33.5503 9.52951 33.7403 9.72433C33.9303 9.91729 34.0223 10.1752 33.9963 10.435L30.9963 40.1215C30.9583 40.487 30.6923 40.7987 30.3163 40.9138L18.3163 44.6246C18.2143 44.6561 18.1063 44.6728 18.0003 44.6728ZM4.93226 39.3162L17.9783 42.7729L29.0663 39.3441L31.9023 11.2755H2.09826L4.93226 39.3162Z" fill="url(#paint0_linear)"/>
<path d="M18 37.2511C17.908 37.2511 17.816 37.24 17.726 37.2159L10.726 35.3605C10.382 35.2696 10.116 35.0135 10.03 34.6925L9.03 30.9817C8.896 30.4845 9.222 29.9817 9.758 29.8573C10.29 29.733 10.836 30.0336 10.97 30.5327L11.83 33.724L18 35.3586L24.08 33.7463L25.882 18.6971H8C7.448 18.6971 7 18.2815 7 17.7694C7 17.2573 7.448 16.8417 8 16.8417H27C27.284 16.8417 27.556 16.9549 27.746 17.1515C27.936 17.3482 28.026 17.6117 27.996 17.8733L25.996 34.5719C25.952 34.9467 25.666 35.2584 25.276 35.3623L18.276 37.2177C18.184 37.24 18.092 37.2511 18 37.2511Z" fill="url(#paint1_linear)"/>
<path d="M26 26.1187H9C8.448 26.1187 8 25.7031 8 25.191C8 24.6789 8.448 24.2633 9 24.2633H26C26.552 24.2633 27 24.6789 27 25.191C27 25.7031 26.552 26.1187 26 26.1187Z" fill="url(#paint2_linear)"/>
<path d="M11 5.70923H7C6.448 5.70923 6 5.29361 6 4.78151V1.07066C6 0.55856 6.448 0.142944 7 0.142944H11C11.552 0.142944 12 0.55856 12 1.07066C12 1.58276 11.552 1.99837 11 1.99837H8V3.8538H11C11.552 3.8538 12 4.26942 12 4.78151C12 5.29361 11.552 5.70923 11 5.70923Z" fill="#61DCFB"/>
<path d="M19 5.70923H15C14.448 5.70923 14 5.29361 14 4.78151C14 4.26942 14.448 3.8538 15 3.8538H16.586L14.294 1.72748C14.008 1.46215 13.922 1.06324 14.078 0.716271C14.23 0.369306 14.596 0.142944 15 0.142944H19C19.552 0.142944 20 0.55856 20 1.07066C20 1.58276 19.552 1.99837 19 1.99837H17.414L19.706 4.12469C19.992 4.39002 20.078 4.78894 19.922 5.1359C19.77 5.48287 19.404 5.70923 19 5.70923Z" fill="#61DCFB"/>
<path d="M27 5.70923H23C22.448 5.70923 22 5.29361 22 4.78151C22 4.26942 22.448 3.8538 23 3.8538H24.586L22.294 1.72748C22.008 1.46215 21.922 1.06324 22.078 0.716271C22.23 0.369306 22.596 0.142944 23 0.142944H27C27.552 0.142944 28 0.55856 28 1.07066C28 1.58276 27.552 1.99837 27 1.99837H25.414L27.706 4.12469C27.992 4.39002 28.078 4.78894 27.922 5.1359C27.77 5.48287 27.404 5.70923 27 5.70923Z" fill="#61DCFB"/>
<defs>
<linearGradient id="paint0_linear" x1="0.500001" y1="10.3477" x2="31.6354" y2="48.8451" gradientUnits="userSpaceOnUse">
<stop stop-color="#61DCFB"/>
<stop offset="1" stop-color="#61DCFB" stop-opacity="0"/>
</linearGradient>
<linearGradient id="paint1_linear" x1="6.5" y1="16.8417" x2="28.5091" y2="43.5314" gradientUnits="userSpaceOnUse">
<stop stop-color="#61DCFB"/>
<stop offset="1" stop-color="#61DCFB" stop-opacity="0"/>
</linearGradient>
<linearGradient id="paint2_linear" x1="17.5" y1="24.2633" x2="17.5" y2="26.1187" gradientUnits="userSpaceOnUse">
<stop stop-color="#61DCFB"/>
<stop offset="1" stop-color="#61DCFB" stop-opacity="0"/>
</linearGradient>
</defs>
</svg>
