<svg width="48" height="48" viewBox="0 0 48 48" fill="none" xmlns="http://www.w3.org/2000/svg">
<path d="M37.6247 47.4821L37.6251 47.4821C40.7721 47.4521 43.9182 47.4521 47.0635 47.4821C47.1995 47.4831 47.2778 47.4721 47.3203 47.4606C47.3226 47.46 47.3246 47.4594 47.3266 47.4588C47.3281 47.4537 47.3298 47.4474 47.3316 47.4397C47.3438 47.3882 47.3532 47.3038 47.3532 47.167C47.3371 42.1989 47.3384 37.2313 47.3397 32.2644C47.3401 30.91 47.3404 29.5556 47.3404 28.2013C47.3404 26.5667 47.3397 24.9321 47.339 23.2977C47.337 18.8028 47.335 14.3086 47.3481 9.81542L47.3481 9.81205C47.3581 8.77924 47.191 7.75239 46.8541 6.77633C45.4289 2.71728 42.2459 0.62133 38.3937 0.572663L38.3937 0.572663C31.1737 0.48096 23.9548 0.496267 16.7312 0.511583C13.556 0.518316 10.38 0.52505 7.20256 0.5227L7.20181 0.522699C6.96574 0.522169 6.79887 0.562375 6.68847 0.622638C6.59181 0.675406 6.51512 0.754981 6.46619 0.902529C6.41305 1.06428 6.40806 1.20029 6.43693 1.31978C6.46582 1.43932 6.53693 1.57687 6.69056 1.72847L6.69087 1.72878C9.51109 4.51663 12.316 7.32158 15.1055 10.1436L15.1133 10.1516L15.1208 10.1599C15.2581 10.3118 15.4267 10.432 15.6148 10.512C15.8029 10.5921 16.0061 10.6301 16.2103 10.6236L16.2242 10.6232L16.2242 10.6234C17.8179 10.6167 19.4066 10.6225 20.9927 10.6282C23.7107 10.6381 26.4213 10.6479 29.1379 10.5953C33.2955 10.5134 37.3409 13.6074 37.3341 18.7886V18.7887C37.332 20.2638 37.3358 21.7347 37.3396 23.2068C37.3426 24.3856 37.3456 25.5653 37.3456 26.7485L37.6247 47.4821ZM37.6247 47.4821C37.4873 47.4835 37.4058 47.4749 37.3582 47.464M37.6247 47.4821L37.3582 47.464M37.3582 47.464C37.358 47.464 37.3577 47.4639 37.3575 47.4639M37.3582 47.464L37.3575 47.4639M37.3575 47.4639C37.3464 47.4186 37.3364 47.3387 37.3367 47.2028C37.3542 41.7037 37.351 36.2045 37.3477 30.7058C37.3469 29.3867 37.3461 28.0677 37.3456 26.7487L37.3575 47.4639Z" stroke="url(#paint0_linear)"/>
<path d="M18.2627 47.4903C18.8501 47.4902 19.4378 47.4897 20.0256 47.4893C22.3015 47.4876 24.5797 47.4859 26.8567 47.4994C26.8843 47.4996 26.9083 47.4991 26.929 47.4982C26.9301 47.4776 26.9307 47.4539 26.9307 47.4265C26.909 44.1266 26.9038 40.8244 26.9307 37.5229L26.9307 37.5222C26.9312 37.4748 26.9297 37.438 26.9275 37.4101C26.8915 37.4071 26.8435 37.4052 26.779 37.4051C25.4253 37.4168 24.058 37.4159 22.6935 37.415C21.5321 37.4143 20.3727 37.4135 19.2254 37.4205C18.1571 37.427 17.0484 37.362 15.9652 36.9955C14.6382 36.5478 13.3891 35.842 12.4802 34.6981L12.4799 34.6978C12.3369 34.5175 12.1989 34.3396 12.0631 34.1645C11.6097 33.5799 11.1804 33.0264 10.6717 32.5222C8.05849 29.9547 5.46538 27.3666 2.89232 24.7581L2.89205 24.7578C2.66877 24.5311 2.36211 24.3608 2.04612 24.2799C1.72618 24.198 1.4438 24.2187 1.24974 24.3083L18.2627 47.4903ZM18.2627 47.4903L18.2639 47.4276H17.7536C16.8406 47.4276 15.9315 47.4349 15.0248 47.4421C13.0068 47.4582 11.0007 47.4743 8.99069 47.4099L8.99038 47.4099C5.1465 47.2893 1.54184 44.1543 0.745211 40.3591L0.744834 40.3573C0.581821 39.5944 0.499753 38.8163 0.500001 38.0361L0 38.036L18.2627 47.4903Z" stroke="url(#paint1_linear)"/>
<path d="M20.2804 21.4488L20.2804 21.4488C20.2862 21.0153 20.41 20.7584 20.5706 20.606C20.7345 20.4505 21.0102 20.3342 21.457 20.333H21.4661H21.4758H21.4855H21.4953H21.505H21.5147H21.5244H21.5341H21.5438H21.5535H21.5632H21.5729H21.5826H21.5924H21.6021H21.6118H21.6215H21.6312H21.6409H21.6506H21.6603H21.67H21.6797H21.6895H21.6992H21.7089H21.7186H21.7283H21.738H21.7477H21.7574H21.7671H21.7768H21.7866H21.7963H21.806H21.8157H21.8254H21.8351H21.8448H21.8545H21.8642H21.8739H21.8837H21.8934H21.9031H21.9128H21.9225H21.9322H21.9419H21.9516H21.9613H21.9711H21.9808H21.9905H22.0002H22.0099H22.0196H22.0293H22.039H22.0487H22.0584H22.0682H22.0779H22.0876H22.0973H22.107H22.1167H22.1264H22.1361H22.1458H22.1555H22.1653H22.175H22.1847H22.1944H22.2041H22.2138H22.2235H22.2332H22.2429H22.2526H22.2624H22.2721H22.2818H22.2915H22.3012H22.3109H22.3206H22.3303H22.34H22.3497H22.3595H22.3692H22.3789H22.3886H22.3983H22.408H22.4177H22.4274H22.4371H22.4468H22.4566H22.4663H22.476H22.4857H22.4954H22.5051H22.5148H22.5245H22.5342H22.5439H22.5537H22.5634H22.5731H22.5828H22.5925H22.6022H22.6119H22.6216H22.6313H22.641H22.6508H22.6605H22.6702H22.6799H22.6896H22.6993H22.709H22.7187H22.7284H22.7382H22.7479H22.7576H22.7673H22.777H22.7867H22.7964H22.8061H22.8158H22.8255H22.8353H22.845H22.8547H22.8644H22.8741H22.8838H22.8935H22.9032H22.9129H22.9226H22.9324H22.9421H22.9518H22.9615H22.9712H22.9809H22.9906H23.0003H23.01H23.0197H23.0295H23.0392H23.0489H23.0586H23.0683H23.078H23.0877H23.0974H23.1071H23.1168H23.1266H23.1363H23.146H23.1557H23.1654H23.1751H23.1848H23.1945H23.2042H23.2139H23.2237H23.2334H23.2431H23.2528H23.2625H23.2722H23.2819H23.2916H23.3013H23.311H23.3208H23.3305H23.3402H23.3499H23.3596H23.3693H23.379H23.3887H23.3984H23.4081H23.4179H23.4276H23.4373H23.447H23.4567H23.4664H23.4761H23.4858H23.4955H23.5053H23.515H23.5247H23.5344H23.5441H23.5538H23.5635H23.5732H23.5829H23.5926H23.6024H23.6121H23.6218H23.6315H23.6412H23.6509H23.6606H23.6703H23.68H23.6897H23.6995H23.7092H23.7189H23.7286H23.7383H23.748H23.7577H23.7674H23.7771H23.7868H23.7966H23.8063H23.816H23.8257H23.8354H23.8451H23.8548H23.8645H23.8742H23.8839H23.8937H23.9034H23.9131H23.9228H23.9325H23.9422H23.9519H23.9616H23.9713H23.981H23.9908H24.0005H24.0102H24.0199H24.0296H24.0393H24.049H24.0587H24.0684H24.0781H24.0879H24.0976H24.1073H24.117H24.1267H24.1364H24.1461H24.1558H24.1655H24.1752H24.185H24.1947H24.2044H24.2141H24.2238H24.2335H24.2432H24.2529H24.2626H24.2724H24.2821H24.2918H24.3015H24.3112H24.3209H24.3306H24.3403H24.35H24.3597H24.3695H24.3792H24.3889H24.3986H24.4083H24.418H24.4277H24.4374H24.4471H24.4568H24.4666H24.4763H24.486H24.4957H24.5054H24.5151H24.5248H24.5345H24.5442H24.5539H24.5637H24.5734H24.5831H24.5928H24.6025H24.6122H24.6219H24.6316H24.6413H24.651H24.6608H24.6705H24.6802H24.6899H24.6996H24.7093H24.719H24.7287H24.7384H24.7481H24.7579H24.7676H24.7773H24.787H24.7967H24.8064H24.8161H24.8258H24.8355H24.8452H24.855H24.8647H24.8744H24.8841H24.8938H24.9035H24.9132H24.9229H24.9326H24.9423H24.9521H24.9618H24.9715H24.9812H24.9909H25.0006H25.0103H25.02H25.0297H25.0395H25.0492H25.0589H25.0686H25.0783H25.088H25.0977H25.1074H25.1171H25.1268H25.1366H25.1463H25.156H25.1657H25.1754H25.1851H25.1948H25.2045H25.2142H25.2239H25.2337H25.2434H25.2531H25.2628H25.2725H25.2822H25.2919H25.3016H25.3113H25.321H25.3308H25.3405H25.3502H25.3599H25.3696H25.3793H25.389H25.3987H25.4084H25.4181H25.4279H25.4376H25.4473H25.457H25.4667H25.4764H25.4861H25.4958H25.5055H25.5152H25.525H25.5347H25.5444H25.5541H25.5638H25.5735H25.5832H25.5929H25.6026H25.6123H25.6221H25.6318H25.6415H25.6512H25.6609H25.6706H25.6803H25.69H25.6997H25.7094H25.7192H25.7289H25.7386H25.7483H25.758H25.7677H25.7774H25.7871H25.7968H25.8066H25.8163H25.826H25.8357H25.8454H25.8551H25.8648H25.8745H25.8842H25.8939H25.9037H25.9134H25.9231H25.9328H25.9425H25.9522H25.9619H25.9716H25.9813H25.991H26.0008H26.0105H26.0202H26.0299H26.0396H26.0493H26.059H26.0687H26.0784H26.0881H26.0979H26.1076H26.1173H26.127H26.1367H26.1464H26.1561H26.1658H26.1755H26.1852H26.195H26.2047H26.2144H26.2241H26.2338H26.2435H26.2532H26.2629H26.2726H26.2823H26.2921H26.3018H26.3115H26.3212H26.3309H26.3406H26.3503H26.36H26.3697H26.3794H26.3892H26.3989H26.4086H26.4183H26.428C26.848 20.333 27.1271 20.4532 27.3 20.6202C27.4711 20.7855 27.5966 21.0529 27.6001 21.4657L27.6002 21.4666C27.618 23.1452 27.618 24.8243 27.6002 26.5037C27.5954 26.9277 27.4712 27.1941 27.3048 27.3562C27.1369 27.5199 26.8618 27.6399 26.4339 27.6425L26.4332 27.6425C25.8205 27.6472 25.2142 27.6464 24.6054 27.6456C24.3763 27.6454 24.1469 27.6451 23.9166 27.6451H23.9118H23.907H23.9022H23.8974H23.8926H23.8878H23.883H23.8782H23.8734H23.8686H23.8638H23.8591H23.8543H23.8495H23.8447H23.8399H23.8351H23.8303H23.8255H23.8207H23.8159H23.8111H23.8063H23.8015H23.7967H23.7919H23.7871H23.7823H23.7775H23.7727H23.7679H23.7631H23.7583H23.7535H23.7487H23.7439H23.7391H23.7343H23.7295H23.7247H23.7199H23.7151H23.7103H23.7055H23.7007H23.696H23.6912H23.6864H23.6816H23.6768H23.672H23.6672H23.6624H23.6576H23.6528H23.648H23.6432H23.6384H23.6336H23.6288H23.624H23.6192H23.6144H23.6096H23.6048H23.6H23.5952H23.5904H23.5856H23.5808H23.576H23.5712H23.5664H23.5617H23.5569H23.5521H23.5473H23.5425H23.5377H23.5329H23.5281H23.5233H23.5185H23.5137H23.5089H23.5041H23.4993H23.4945H23.4897H23.4849H23.4801H23.4753H23.4705H23.4657H23.4609H23.4561H23.4513H23.4466H23.4418H23.437H23.4322H23.4274H23.4226H23.4178H23.413H23.4082H23.4034H23.3986H23.3938H23.389H23.3842H23.3794H23.3746H23.3698H23.365H23.3602H23.3554H23.3506H23.3458H23.341H23.3363H23.3315H23.3267H23.3219H23.3171H23.3123H23.3075H23.3027H23.2979H23.2931H23.2883H23.2835H23.2787H23.2739H23.2691H23.2643H23.2595H23.2547H23.2499H23.2451H23.2404H23.2356H23.2308H23.226H23.2212H23.2164H23.2116H23.2068H23.202H23.1972H23.1924H23.1876H23.1828H23.178H23.1732H23.1684H23.1636H23.1588H23.154H23.1493H23.1445H23.1397H23.1349H23.1301H23.1253H23.1205H23.1157H23.1109H23.1061H23.1013H23.0965H23.0917H23.0869H23.0821H23.0773H23.0725H23.0678H23.063H23.0582H23.0534H23.0486H23.0438H23.039H23.0342H23.0294H23.0246H23.0198H23.015H23.0102H23.0054H23.0006H22.9958H22.991H22.9863H22.9815H22.9767H22.9719H22.9671H22.9623H22.9575H22.9527H22.9479H22.9431H22.9383H22.9335H22.9287H22.9239H22.9191H22.9143H22.9096H22.9048H22.9H22.8952H22.8904H22.8856H22.8808H22.876H22.8712H22.8664H22.8616H22.8568H22.852H22.8472H22.8424H22.8377H22.8329H22.8281H22.8233H22.8185H22.8137H22.8089H22.8041H22.7993H22.7945H22.7897H22.7849H22.7801H22.7753H22.7706H22.7658H22.761H22.7562H22.7514H22.7466H22.7418H22.737H22.7322H22.7274H22.7226H22.7178H22.713H22.7082H22.7035H22.6987H22.6939H22.6891H22.6843H22.6795H22.6747H22.6699H22.6651H22.6603H22.6555H22.6507H22.6459H22.6412H22.6364H22.6316H22.6268H22.622H22.6172H22.6124H22.6076H22.6028H22.598H22.5932H22.5884H22.5836H22.5789H22.5741H22.5693H22.5645H22.5597H22.5549H22.5501H22.5453H22.5405H22.5357H22.5309H22.5261H22.5213H22.5166H22.5118H22.507H22.5022H22.4974H22.4926H22.4878H22.483H22.4782H22.4734H22.4686H22.4638H22.4591H22.4543H22.4495H22.4447H22.4399H22.4351H22.4303H22.4255H22.4207H22.4159H22.4111H22.4063H22.4016H22.3968H22.392H22.3872H22.3824H22.3776H22.3728H22.368H22.3632H22.3584H22.3536H22.3489H22.3441H22.3393H22.3345H22.3297H22.3249H22.3201H22.3153H22.3105H22.3057H22.3009H22.2961H22.2914H22.2866H22.2818H22.277H22.2722H22.2674H22.2626H22.2578H22.253H22.2482H22.2434H22.2387H22.2339H22.2291H22.2243H22.2195H22.2147H22.2099H22.2051H22.2003H22.1955H22.1908H22.186H22.1812H22.1764H22.1716H22.1668H22.162H22.1572H22.1524H22.1476H22.1428H22.1381H22.1333H22.1285H22.1237H22.1189H22.1141H22.1093H22.1045H22.0997H22.0949H22.0902H22.0854H22.0806H22.0758H22.071H22.0662H22.0614H22.0566H22.0518H22.047H22.0423H22.0375H22.0327H22.0279H22.0231H22.0183H22.0135H22.0087H22.0039H21.9991H21.9944H21.9896H21.9848H21.98H21.9752H21.9704H21.9656H21.9608H21.956H21.9512H21.9465H21.9417H21.9369H21.9321H21.9273H21.9225H21.9177H21.9129H21.9081H21.9034H21.8986H21.8938H21.889H21.8842H21.8794H21.8746H21.8698H21.865H21.8602H21.8555H21.8507H21.8459H21.8411H21.8363H21.8315H21.8267H21.8219H21.8171H21.8124H21.8076H21.8028H21.798H21.7932H21.7884H21.7836H21.7788H21.774H21.7693H21.7645H21.7597H21.7549H21.7501H21.7453H21.7405H21.7357H21.7309H21.7262H21.7214H21.7166H21.7118H21.707H21.7022H21.6974H21.6926H21.6878H21.6831H21.6783H21.6735H21.6687H21.6639H21.6591H21.6543H21.6495H21.6448H21.64H21.6352H21.6304H21.6256H21.6208H21.616H21.6112H21.6064H21.6017H21.5969H21.5921H21.5873H21.5825H21.5777H21.5729H21.5681H21.5634H21.5586H21.5538H21.549H21.5442H21.5394H21.5346H21.5298H21.5251H21.5203H21.5155H21.5107H21.5059H21.5011H21.4963H21.4915H21.4867H21.482H21.4772H21.4724H21.4676H21.4628C21.0198 27.6451 20.7419 27.5285 20.5753 27.372C20.4122 27.2189 20.2884 26.9645 20.2804 26.5459C20.2574 24.8481 20.2574 23.1491 20.2804 21.4488ZM28.1001 21.4613C28.118 23.1435 28.118 24.8261 28.1001 26.5091L21.4564 19.833H26.428C27.4592 19.833 28.0912 20.4305 28.1001 21.4613Z" stroke="url(#paint2_linear)"/>
<defs>
<linearGradient id="paint0_linear" x1="5.91943" y1="23.9911" x2="45.5094" y2="23.9911" gradientUnits="userSpaceOnUse">
<stop stop-color="#61DCFB"/>
<stop offset="1" stop-color="#61A1FB"/>
</linearGradient>
<linearGradient id="paint1_linear" x1="1.66055e-07" y1="35.864" x2="25.8976" y2="35.864" gradientUnits="userSpaceOnUse">
<stop stop-color="#61DCFB"/>
<stop offset="1" stop-color="#61A1FB"/>
</linearGradient>
<linearGradient id="paint2_linear" x1="19.7632" y1="23.9896" x2="27.6468" y2="23.9896" gradientUnits="userSpaceOnUse">
<stop stop-color="#61DCFB"/>
<stop offset="1" stop-color="#61A1FB"/>
</linearGradient>
</defs>
</svg>
