<svg width="48" height="27" viewBox="0 0 48 27" fill="none" xmlns="http://www.w3.org/2000/svg">
<path d="M13.591 25.1461L13.5488 25.6851H14.0895H33.8474H34.388L34.3459 25.1462C33.927 19.7871 29.4333 15.5554 23.9687 15.5554C18.5041 15.5554 14.0104 19.7871 13.591 25.1461ZM12.9995 25.9648C12.9995 19.9169 17.9208 14.9961 23.9687 14.9961C30.0161 14.9961 34.9374 19.9169 34.9374 25.9648C34.9374 26.119 34.8119 26.2444 34.6577 26.2444H13.2792C13.1246 26.2444 12.9995 26.1192 12.9995 25.9648Z" stroke="url(#paint0_linear)"/>
<path d="M30.0145 6.73307C30.0145 10.1696 27.218 12.9661 23.7814 12.9661C20.3449 12.9661 17.5483 10.1696 17.5483 6.73307C17.5483 3.29651 20.3448 0.5 23.7814 0.5C27.2175 0.5 30.0145 3.29654 30.0145 6.73307ZM29.4552 6.73307C29.4552 3.60389 26.91 1.0593 23.7814 1.0593C20.6523 1.0593 18.1076 3.60392 18.1076 6.73307C18.1076 9.86221 20.6523 12.4068 23.7814 12.4068C26.91 12.4068 29.4552 9.86169 29.4552 6.73307Z" stroke="url(#paint1_linear)"/>
<path d="M12.6134 19.3537L12.6125 19.3531C11.4375 18.6621 10.0936 18.2976 8.72585 18.2976C4.77933 18.2976 1.52141 21.2933 1.10433 25.1305L1.04411 25.6845H1.6014H10.6615C10.816 25.6845 10.9411 25.8097 10.9411 25.9641C10.9411 26.1186 10.816 26.2438 10.6615 26.2438H0.779651C0.625123 26.2438 0.5 26.1186 0.5 25.9641C0.5 21.4288 4.19051 17.7383 8.72585 17.7383C10.1938 17.7383 11.6359 18.13 12.8956 18.8709L12.8958 18.8711C13.029 18.9493 13.0735 19.1208 12.9951 19.2541L12.995 19.2543C12.9167 19.3876 12.7452 19.4315 12.6134 19.3537Z" stroke="url(#paint2_linear)"/>
<path d="M13.2927 10.7889C13.2927 13.3829 11.1813 15.4939 8.58776 15.4939C5.99378 15.4939 3.88281 13.3825 3.88281 10.7889C3.88281 8.19492 5.99375 6.08398 8.58776 6.08398C11.1818 6.08398 13.2927 8.19492 13.2927 10.7889ZM12.7334 10.7889C12.7334 8.50229 10.8738 6.64329 8.58776 6.64329C6.30116 6.64329 4.44211 8.50233 4.44211 10.7889C4.44211 13.0755 6.30116 14.9346 8.58776 14.9346C10.8744 14.9346 12.7334 13.075 12.7334 10.7889Z" stroke="url(#paint3_linear)"/>
<path d="M35.1041 18.8711L35.1042 18.8711C36.3646 18.1304 37.8068 17.7383 39.2741 17.7383C43.8095 17.7383 47.5 21.4288 47.5 25.9641C47.5 26.1184 47.3745 26.2438 47.2203 26.2438H37.3401C37.1858 26.2438 37.0604 26.1184 37.0604 25.9641C37.0604 25.8099 37.1858 25.6845 37.3401 25.6845H46.3986H46.9559L46.8956 25.1305C46.4786 21.2933 43.2206 18.2976 39.2741 18.2976C37.9068 18.2976 36.563 18.6621 35.3876 19.353L35.3866 19.3536C35.2553 19.4312 35.0834 19.3875 35.0051 19.2541L35.0048 19.2536C34.9265 19.1204 34.9708 18.9494 35.1041 18.8711Z" stroke="url(#paint4_linear)"/>
<path d="M39.413 15.4939C42.0065 15.4939 44.1179 13.3829 44.1179 10.7889C44.1179 8.19492 42.007 6.08398 39.413 6.08398C36.8189 6.08398 34.7076 8.19494 34.7075 10.7888L39.413 15.4939ZM39.413 15.4939C36.8191 15.4939 34.708 13.3825 34.7075 10.7889L39.413 15.4939ZM35.2668 10.7888V10.7889C35.2668 13.0756 37.1265 14.9346 39.413 14.9346C41.6996 14.9346 43.5586 13.075 43.5586 10.7889C43.5586 8.50229 41.699 6.64329 39.413 6.64329C37.1264 6.64329 35.2674 8.50233 35.2668 10.7888Z" stroke="url(#paint5_linear)"/>
<defs>
<linearGradient id="paint0_linear" x1="12.4995" y1="20.6203" x2="34.1553" y2="20.6203" gradientUnits="userSpaceOnUse">
<stop stop-color="#61DCFB"/>
<stop offset="1" stop-color="#61A1FB"/>
</linearGradient>
<linearGradient id="paint1_linear" x1="17.0483" y1="6.73306" x2="29.7618" y2="6.73306" gradientUnits="userSpaceOnUse">
<stop stop-color="#61DCFB"/>
<stop offset="1" stop-color="#61A1FB"/>
</linearGradient>
<linearGradient id="paint2_linear" x1="8.19287e-08" y1="21.991" x2="12.7774" y2="21.991" gradientUnits="userSpaceOnUse">
<stop stop-color="#61DCFB"/>
<stop offset="1" stop-color="#61A1FB"/>
</linearGradient>
<linearGradient id="paint3_linear" x1="3.38281" y1="10.7889" x2="13.2109" y2="10.7889" gradientUnits="userSpaceOnUse">
<stop stop-color="#61DCFB"/>
<stop offset="1" stop-color="#61A1FB"/>
</linearGradient>
<linearGradient id="paint4_linear" x1="34.4661" y1="21.991" x2="47.2435" y2="21.991" gradientUnits="userSpaceOnUse">
<stop stop-color="#61DCFB"/>
<stop offset="1" stop-color="#61A1FB"/>
</linearGradient>
<linearGradient id="paint5_linear" x1="34.2075" y1="10.7889" x2="44.0361" y2="10.7889" gradientUnits="userSpaceOnUse">
<stop stop-color="#61DCFB"/>
<stop offset="1" stop-color="#61A1FB"/>
</linearGradient>
</defs>
</svg>
