<svg width="55" height="55" viewBox="0 0 55 55" fill="none" xmlns="http://www.w3.org/2000/svg">
<path d="M54.5019 32.1282C54.5019 39.3307 54.4931 46.5317 54.5164 53.7343C54.5164 54.4354 54.3343 54.6691 53.6113 54.6632C50.0317 54.6291 46.4511 54.6291 42.8696 54.6632C42.17 54.6705 41.9645 54.4923 41.9659 53.7737C41.9907 46.0074 41.979 38.241 41.9761 30.4733C41.9761 27.4497 41.9586 24.4276 41.963 21.404C41.9703 15.8535 37.6576 12.5525 33.2063 12.6401C28.3019 12.735 23.3945 12.6518 18.4856 12.6722C18.1702 12.6823 17.8565 12.6235 17.566 12.4999C17.2756 12.3763 17.0155 12.1909 16.8037 11.9565C13.6273 8.74307 10.4334 5.54909 7.22205 2.3746C6.74691 1.90573 6.64926 1.38573 6.82561 0.849672C7.02675 0.242038 7.55436 0.0244002 8.20587 0.0258608C20.0539 0.0346248 31.9019 -0.0676213 43.747 0.0828265C48.3716 0.141253 52.2121 2.67842 53.916 7.53218C54.3215 8.70626 54.5226 9.94146 54.5106 11.1838C54.4902 18.1628 54.5019 25.1433 54.5019 32.1282Z" fill="#61DCFB"/>
<path d="M20.2257 54.6019C16.891 54.6019 13.5547 54.688 10.2244 54.5814C5.57056 54.4353 1.25054 50.6654 0.291501 46.0964C0.0974155 45.1881 -0.000294303 44.2618 6.65841e-07 43.3329C0.013604 38.6646 0.013604 33.9968 6.65841e-07 29.3296C6.65841e-07 28.3655 0.274011 27.5972 1.18495 27.1766C1.92827 26.8333 3.03597 27.1313 3.70059 27.8061C6.63017 30.7761 9.58257 33.7227 12.5578 36.646C13.3434 37.4245 13.9803 38.3141 14.6639 39.1759C15.6098 40.3663 16.9245 41.12 18.3703 41.6078C19.5145 41.9949 20.7023 42.0694 21.8989 42.0621C24.7673 42.0446 27.6371 42.0694 30.5055 42.0446C31.0506 42.0446 31.2561 42.141 31.2502 42.753C31.2196 46.5113 31.2255 50.271 31.2502 54.0293C31.2502 54.5478 31.1045 54.6866 30.5929 54.6837C27.1372 54.6632 23.68 54.6734 20.2243 54.6734L20.2257 54.6019Z" fill="#61DCFB"/>
<path d="M27.2469 32.0642C26.3141 32.0642 25.3823 32.0642 24.4514 32.0642C23.249 32.0642 22.5567 31.4273 22.5348 30.2515C22.5086 28.3118 22.5086 26.3705 22.5348 24.4279C22.5508 23.2272 23.2373 22.5976 24.4441 22.5947C26.3321 22.5947 28.22 22.5947 30.108 22.5947C31.2827 22.5947 32.0027 23.2754 32.0129 24.4498C32.0333 26.3662 32.0333 28.283 32.0129 30.2004C31.9998 31.3879 31.3017 32.054 30.1182 32.0613C29.1548 32.0686 28.203 32.0642 27.2469 32.0642Z" fill="#61DCFB"/>
</svg>
