<svg width="35" height="46" viewBox="0 0 35 46" fill="none" xmlns="http://www.w3.org/2000/svg">
<path d="M5.29516 4.83893H7.27924V6.85491H9.4494V0.834229H7.27924V2.82386H5.29516V0.834229H3.12598V6.85491H5.29516V4.83893Z" fill="#BEF264"/>
<path d="M12.3008 6.85491H14.47V2.83204H16.3786V0.834229H10.3921V2.83204H12.3008V6.85491Z" fill="#BEF264"/>
<path d="M19.4518 3.87228L20.9462 6.01181H20.9824L22.4739 3.87228V6.85491H24.6353V0.834229H22.373L20.9824 2.95287L19.5918 0.834229H17.3306V6.85491H19.4518V3.87228Z" fill="#BEF264"/>
<path d="M30.9341 4.86618H27.8835V0.834229H25.7144V6.85491H30.9341V4.86618Z" fill="#BEF264"/>
<path d="M0 9.49683L3.10246 41.7781L17.0293 45.364L30.9668 41.7799L34.0752 9.49683H0V9.49683ZM27.3444 20.0537H17.0371H11.0124L11.4021 24.1084H17.0371H26.9565L25.7863 36.267L17.0371 38.5156L17.0312 38.5174L8.28792 36.267L7.67781 29.9075H11.9613L12.2786 33.2063L17.0322 34.3982L17.0381 34.3964L21.7966 33.2044L22.2921 28.0695H17.0381H7.50055L6.3479 16.0963H17.0371H27.7253L27.3444 20.0537Z" fill="url(#paint0_linear)"/>
<defs>
<linearGradient id="paint0_linear" x1="0.0497298" y1="10.9268" x2="38.9179" y2="61.4923" gradientUnits="userSpaceOnUse">
<stop stop-color="#BEF264"/>
<stop offset="1" stop-opacity="0"/>
</linearGradient>
</defs>
</svg>
