<?xml version="1.0" encoding="UTF-8"?>
<svg xmlns="http://www.w3.org/2000/svg" xmlns:xlink="http://www.w3.org/1999/xlink" viewBox="0 0 64 64" width="64px" height="64px">
<defs>
<linearGradient id="linear0" gradientUnits="userSpaceOnUse" x1="129" y1="111.754311" x2="129" y2="135.052246" gradientTransform="matrix(0.372093,0,0,0.372093,0,0)">
<stop offset="0" style="stop-color:rgb(58.431375%,98.039216%,80.000001%);stop-opacity:1;"/>
<stop offset="1" style="stop-color:rgb(43.137255%,78.431374%,100%);stop-opacity:1;"/>
</linearGradient>
<linearGradient id="linear1" gradientUnits="userSpaceOnUse" x1="69.875" y1="31.801189" x2="69.875" y2="140.206879" gradientTransform="matrix(0.372093,0,0,0.372093,0,0)">
<stop offset="0" style="stop-color:rgb(16.470589%,96.078432%,59.607846%);stop-opacity:1;"/>
<stop offset="1" style="stop-color:rgb(0%,61.960787%,99.215686%);stop-opacity:1;"/>
</linearGradient>
<linearGradient id="linear2" gradientUnits="userSpaceOnUse" x1="67.1875" y1="31.801189" x2="67.1875" y2="140.206879" gradientTransform="matrix(0.372093,0,0,0.372093,0,0)">
<stop offset="0" style="stop-color:rgb(16.470589%,96.078432%,59.607846%);stop-opacity:1;"/>
<stop offset="1" style="stop-color:rgb(0%,61.960787%,99.215686%);stop-opacity:1;"/>
</linearGradient>
<linearGradient id="linear3" gradientUnits="userSpaceOnUse" x1="86" y1="31.801189" x2="86" y2="140.206879" gradientTransform="matrix(0.372093,0,0,0.372093,0,0)">
<stop offset="0" style="stop-color:rgb(16.470589%,96.078432%,59.607846%);stop-opacity:1;"/>
<stop offset="1" style="stop-color:rgb(0%,61.960787%,99.215686%);stop-opacity:1;"/>
</linearGradient>
</defs>
<g id="surface149665825">
<path style=" stroke:none;fill-rule:nonzero;fill:url(#linear0);" d="M 50 42 L 46 42 C 45.449219 42 45 42.449219 45 43 L 45 50 L 51 50 L 51 43 C 51 42.449219 50.550781 42 50 42 Z M 50 42 "/>
<path style=" stroke:none;fill-rule:nonzero;fill:url(#linear1);" d="M 25 41 L 27 41 L 27 45 L 25 45 Z M 25 41 "/>
<path style=" stroke:none;fill-rule:nonzero;fill:url(#linear2);" d="M 19 30 L 31 30 L 31 32 L 19 32 Z M 19 30 "/>
<path style=" stroke:none;fill-rule:nonzero;fill:url(#linear3);" d="M 56 32 L 56 30 C 56 28.898438 55.101562 28 54 28 L 42 28 L 42 26 C 43.101562 26 44 25.101562 44 24 L 44 22 C 44 20.898438 43.101562 20 42 20 L 41.617188 20 L 38.171875 13.105469 C 37.828125 12.425781 37.144531 12 36.382812 12 L 13.617188 12 C 12.855469 12 12.171875 12.425781 11.828125 13.105469 L 8.382812 20 L 8 20 C 6.898438 20 6 20.898438 6 22 L 6 24 C 6 25.101562 6.898438 26 8 26 L 8 50 C 8 51.101562 8.898438 52 10 52 L 54 52 C 55.101562 52 56 51.101562 56 50 L 56 38 C 57.101562 38 58 37.101562 58 36 L 58 34 C 58 32.898438 57.101562 32 56 32 Z M 54 30 L 54 32 L 42 32 L 42 30 Z M 13.617188 14 L 36.382812 14 L 39.382812 20 L 10.617188 20 Z M 8 22 L 42 22 L 42 24 L 8 24 Z M 40 26 L 40 42 L 36 42 L 36 44 L 40 44 L 40 46 L 31 46 L 31 37 C 31 35.347656 29.652344 34 28 34 L 22 34 C 20.347656 34 19 35.347656 19 37 L 19 46 L 10 46 L 10 44 L 14 44 L 14 42 L 10 42 L 10 26 Z M 10 50 L 10 48 L 19 48 L 19 50 Z M 21 50 L 21 37 C 21 36.449219 21.449219 36 22 36 L 28 36 C 28.550781 36 29 36.449219 29 37 L 29 50 Z M 31 50 L 31 48 L 40 48 L 40 50 Z M 54 50 L 42 50 L 42 38 L 54 38 Z M 56 36 L 42 36 L 42 34 L 56 34 Z M 56 36 "/>
</g>
</svg>
