<svg xmlns="http://www.w3.org/2000/svg" xmlns:xlink="http://www.w3.org/1999/xlink" viewBox="0 0 50 50"><defs><style>.cls-1{fill:url(#linear-gradient);}.cls-2{fill:url(#linear-gradient-2);}.cls-3{fill:url(#linear-gradient-3);}</style><linearGradient id="linear-gradient" x1="526.19" y1="-617.47" x2="526.19" y2="-755.08" gradientTransform="matrix(0.37, 0, 0, -0.37, -170.79, -230.09)" gradientUnits="userSpaceOnUse"><stop offset="0" stop-color="#bef264"/><stop offset="1" stop-color="#6a6"/></linearGradient><linearGradient id="linear-gradient-2" x1="526.19" y1="-648.37" x2="526.19" y2="-722.31" xlink:href="#linear-gradient"/><linearGradient id="linear-gradient-3" x1="563.81" y1="-633.81" x2="563.81" y2="-661.49" xlink:href="#linear-gradient"/></defs><g id="Layer_2" data-name="Layer 2"><g id="Layer_1-2" data-name="Layer 1"><g id="surface154831980"><path class="cls-1" d="M37,50H13A13,13,0,0,1,0,37V13A13,13,0,0,1,13,0H37A13,13,0,0,1,50,13V37A13,13,0,0,1,37,50ZM13,2A11,11,0,0,0,2,13V37A11,11,0,0,0,13,48H37A11,11,0,0,0,48,37V13A11,11,0,0,0,37,2Z"/><path class="cls-2" d="M25,38A13,13,0,1,1,38,25,13,13,0,0,1,25,38Zm0-22a9,9,0,1,0,9,9A9,9,0,0,0,25,16Z"/><path class="cls-3" d="M39,8a3,3,0,1,0,3,3A3,3,0,0,0,39,8Z"/></g></g></g></svg>