<svg xmlns="http://www.w3.org/2000/svg" xmlns:xlink="http://www.w3.org/1999/xlink" viewBox="0 0 48 48"><defs><style>.cls-1{fill:url(#linear-gradient);}.cls-2{fill:url(#linear-gradient-2);}.cls-3{fill:url(#linear-gradient-3);}</style><linearGradient id="linear-gradient" y1="24" x2="48" y2="24" gradientUnits="userSpaceOnUse"><stop offset="0" stop-color="#66a666"/><stop offset="1" stop-color="#bef264"/></linearGradient><linearGradient id="linear-gradient-2" x1="11.68" y1="24" x2="36.32" y2="24" xlink:href="#linear-gradient"/><linearGradient id="linear-gradient-3" x1="33.93" y1="11.19" x2="39.69" y2="11.19" xlink:href="#linear-gradient"/></defs><g id="Layer_2" data-name="Layer 2"><g id="Layer_1-2" data-name="Layer 1"><path class="cls-1" d="M24,0c-6.52,0-7.34,0-9.9.14A17.78,17.78,0,0,0,8.28,1.26,11.6,11.6,0,0,0,4,4,11.6,11.6,0,0,0,1.26,8.28,17.78,17.78,0,0,0,.14,14.1C0,16.66,0,17.48,0,24s0,7.34.14,9.9a17.78,17.78,0,0,0,1.12,5.82A11.6,11.6,0,0,0,4,44a11.6,11.6,0,0,0,4.25,2.77,17.78,17.78,0,0,0,5.82,1.12c2.56.11,3.38.14,9.9.14s7.34,0,9.9-.14a17.78,17.78,0,0,0,5.82-1.12,12.3,12.3,0,0,0,7-7,17.78,17.78,0,0,0,1.12-5.82C48,31.34,48,30.52,48,24s0-7.34-.14-9.9a17.78,17.78,0,0,0-1.12-5.82A11.6,11.6,0,0,0,44,4a11.6,11.6,0,0,0-4.25-2.77A17.78,17.78,0,0,0,33.9.14C31.34,0,30.52,0,24,0Zm0,4.32c6.41,0,7.17,0,9.7.14a13.22,13.22,0,0,1,4.45.83,7.51,7.51,0,0,1,2.76,1.8,7.51,7.51,0,0,1,1.8,2.76,13.22,13.22,0,0,1,.83,4.45c.11,2.53.14,3.29.14,9.7s0,7.17-.14,9.7a13.22,13.22,0,0,1-.83,4.45,8,8,0,0,1-4.56,4.56,13.22,13.22,0,0,1-4.45.83c-2.53.11-3.29.14-9.7.14s-7.17,0-9.7-.14a13.22,13.22,0,0,1-4.45-.83,7.51,7.51,0,0,1-2.76-1.8,7.51,7.51,0,0,1-1.8-2.76,13.22,13.22,0,0,1-.83-4.45c-.11-2.53-.14-3.29-.14-9.7s0-7.17.14-9.7a13.22,13.22,0,0,1,.83-4.45,7.51,7.51,0,0,1,1.8-2.76,7.51,7.51,0,0,1,2.76-1.8,13.22,13.22,0,0,1,4.45-.83C16.83,4.35,17.59,4.32,24,4.32Z"/><path class="cls-2" d="M24,32a8,8,0,1,1,8-8A8,8,0,0,1,24,32Zm0-20.32A12.32,12.32,0,1,0,36.32,24,12.31,12.31,0,0,0,24,11.68Z"/><path class="cls-3" d="M39.69,11.19a2.88,2.88,0,1,1-2.88-2.88A2.88,2.88,0,0,1,39.69,11.19Z"/></g></g></svg>