<svg width="23" height="22" viewBox="0 0 23 22" fill="none" xmlns="http://www.w3.org/2000/svg">
<path d="M16.1815 11.0024C16.1813 10.1753 15.9359 9.36686 15.4762 8.67924C15.0166 7.99163 14.3634 7.45575 13.5992 7.13937C12.835 6.82298 11.9942 6.74029 11.183 6.90176C10.3718 7.06323 9.62673 7.4616 9.04195 8.04651C8.45717 8.63141 8.05896 9.37658 7.89767 10.1878C7.73638 10.999 7.81926 11.8398 8.13581 12.6039C8.45237 13.3681 8.98839 14.0211 9.6761 14.4806C10.3638 14.9401 11.1723 15.1854 11.9994 15.1854C13.1084 15.1842 14.1715 14.743 14.9556 13.9588C15.7396 13.1746 16.1805 12.1113 16.1815 11.0024Z" fill="#BEF264"/>
<path d="M22.9995 17.9674V4.03347C22.9982 2.9641 22.5729 1.93888 21.8167 1.18272C21.0606 0.426567 20.0354 0.00122116 18.966 0H5.03201C3.96264 0.00122116 2.93742 0.426567 2.18126 1.18272C1.4251 1.93888 0.999756 2.9641 0.998535 4.03347V17.9674C0.999756 19.0368 1.4251 20.062 2.18126 20.8182C2.93742 21.5743 3.96264 21.9997 5.03201 22.0009H18.966C20.0354 21.9997 21.0606 21.5743 21.8167 20.8182C22.5729 20.062 22.9982 19.0368 22.9995 17.9674ZM19.4744 1.82895C19.8135 1.82895 20.145 1.92954 20.4268 2.118C20.7087 2.30646 20.9284 2.5743 21.058 2.88764C21.1875 3.20097 21.2213 3.54571 21.1548 3.87822C21.0884 4.21073 20.9248 4.51605 20.6848 4.75556C20.4448 4.99506 20.1391 5.15797 19.8065 5.22368C19.4738 5.28938 19.1292 5.25492 18.8161 5.12465C18.5031 4.99439 18.2357 4.77418 18.0478 4.49189C17.86 4.2096 17.7601 3.87793 17.7608 3.53886C17.7623 3.08517 17.9434 2.65054 18.2646 2.33008C18.5857 2.00962 19.0208 1.82944 19.4744 1.82895ZM11.9999 18.2434C10.5674 18.2434 9.16707 17.8186 7.97598 17.0227C6.78489 16.2268 5.85655 15.0957 5.30835 13.7722C4.76015 12.4487 4.61672 10.9924 4.89619 9.58744C5.17566 8.18245 5.86548 6.89189 6.87841 5.87895C7.89135 4.86602 9.18191 4.1762 10.5869 3.89673C11.9919 3.61726 13.4482 3.76069 14.7717 4.30889C16.0951 4.85709 17.2263 5.78543 18.0222 6.97652C18.818 8.16761 19.2428 9.56795 19.2428 11.0005C19.2406 12.9209 18.4767 14.762 17.1187 16.1199C15.7606 17.4777 13.9194 18.2414 11.999 18.2434H11.9999Z" fill="#BEF264"/>
</svg>
