<svg width="48" height="45" viewBox="0 0 48 45" fill="none" xmlns="http://www.w3.org/2000/svg">
<path d="M43 0.297363H5C2.19922 0.297363 0 2.33759 0 4.93588V40.1886C0 42.7869 2.19922 44.8271 5 44.8271H43C45.8008 44.8271 48 42.7869 48 40.1886V4.93588C48 2.33759 45.8008 0.297363 43 0.297363ZM46 40.1886C46 41.765 44.6992 42.9717 43 42.9717H5C3.30078 42.9717 2 41.765 2 40.1886V4.93588C2 3.35951 3.30078 2.15277 5 2.15277H43C44.6992 2.15277 46 3.35951 46 4.93588V40.1886Z" fill="url(#paint0_linear)"/>
<path d="M38.6991 32.6645L37.8983 32.3981C36.4999 31.8688 35.8983 31.5125 35.8983 30.6268C35.8983 29.9176 36.4999 29.3883 37.3983 29.3883C38.1991 29.3883 38.6991 29.6547 39.1991 30.274C39.3007 30.4504 39.6014 30.5404 39.8983 30.3605L41.6014 29.3883C41.8007 29.2984 41.8983 28.9455 41.8007 28.7691C40.8007 27.4406 39.3983 26.9078 37.4999 26.9078C34.6014 26.9078 32.8007 28.5027 32.8007 30.6268C32.8007 32.9309 34.3007 34.0829 36.6991 34.8786L37.4999 35.145C38.9999 35.6743 39.6991 36.0306 39.6991 37.0028C39.6991 37.8019 38.9999 38.4212 37.6991 38.4212C36.3007 38.4212 35.6014 37.712 34.8983 36.8263C34.6991 36.6499 34.3983 36.56 34.1991 36.7398L32.4999 37.712C32.3007 37.8019 32.1991 38.0683 32.3007 38.3312C33.3007 39.8396 34.8983 40.9882 37.6991 40.9882C40.8007 40.9882 42.9999 39.5732 42.9999 37.0028C42.9999 34.7022 41.4999 33.6401 38.6991 32.6645Z" fill="url(#paint1_linear)"/>
<path d="M30.5001 25.9078H28.1993C27.8986 25.9078 27.6994 26.0844 27.6994 26.3509V35.3012C27.6994 36.7168 27.1017 37.0733 26.0001 37.0733C25.1017 37.0733 24.3986 36.6303 23.8986 36.0073C23.8009 35.8308 23.5001 35.7443 23.1994 35.9208L21.3986 36.8933C21.1994 36.9833 21.1017 37.3364 21.1994 37.5163C22.1017 38.8454 23.8009 40.0845 26.1994 40.0845C29.1017 40.0845 31.0001 38.7554 31.0001 35.7443V26.3509C31.0001 26.0844 30.8009 25.9078 30.5001 25.9078Z" fill="url(#paint2_linear)"/>
<defs>
<linearGradient id="paint0_linear" x1="24" y1="1.26496" x2="24" y2="43.9096" gradientUnits="userSpaceOnUse">
<stop stop-color="#D9E021"/>
<stop offset="1" stop-color="#FB872B"/>
</linearGradient>
<linearGradient id="paint1_linear" x1="37.5779" y1="27.511" x2="37.5779" y2="40.3616" gradientUnits="userSpaceOnUse">
<stop stop-color="#EAEE83"/>
<stop offset="1" stop-color="#FDC599"/>
</linearGradient>
<linearGradient id="paint2_linear" x1="26.0811" y1="26.5112" x2="26.0811" y2="39.3677" gradientUnits="userSpaceOnUse">
<stop stop-color="#EAEE83"/>
<stop offset="1" stop-color="#FDC599"/>
</linearGradient>
</defs>
</svg>
