<svg xmlns="http://www.w3.org/2000/svg" viewBox="0 0 1376.93 374.42"><defs><style>.cls-1{fill:#c0da68;}.cls-2{fill:#fff;}</style></defs><g id="Layer_2" data-name="Layer 2"><g id="Layer_1-2" data-name="Layer 1"><path class="cls-1" d="M373.91,220c0,49.31-.06,98.61.1,147.92,0,4.8-1.25,6.4-6.21,6.36q-36.84-.35-73.7,0c-4.8.05-6.21-1.17-6.2-6.09.17-53.17.09-106.34.07-159.52,0-20.7-.12-41.39-.09-62.09.05-38-29.54-60.6-60.08-60-33.65.65-67.32.08-101,.22a14.93,14.93,0,0,1-11.54-4.9q-32.69-33-65.74-65.6c-3.26-3.21-3.93-6.77-2.72-10.44,1.38-4.16,5-5.65,9.47-5.64,81.29.06,162.58-.64,243.85.39,31.73.4,58.08,17.77,69.77,51a74.23,74.23,0,0,1,4.08,25C373.83,124.39,373.91,172.18,373.91,220Z"/><path class="cls-1" d="M138.74,373.86c-22.88,0-45.77.59-68.62-.14-31.93-1-61.57-26.81-68.15-58.09a90.22,90.22,0,0,1-2-18.92q.14-47.94,0-95.87c0-6.6,1.88-11.86,8.13-14.74,5.1-2.35,12.7-.31,17.26,4.31q30.15,30.5,60.77,60.52c5.39,5.33,9.76,11.42,14.45,17.32,6.49,8.15,15.51,13.31,25.43,16.65,7.85,2.65,16,3.16,24.21,3.11,19.68-.12,39.37.05,59.05-.12,3.74,0,5.15.66,5.11,4.85-.21,25.73-.17,51.47,0,77.2,0,3.55-1,4.5-4.51,4.48-23.71-.14-47.43-.07-71.14-.07Z"/><path class="cls-1" d="M186.91,219.56q-9.6,0-19.18,0c-8.25,0-13-4.36-13.15-12.41q-.27-19.92,0-39.87c.11-8.22,4.82-12.53,13.1-12.55q19.43,0,38.86,0c8.06,0,13,4.66,13.07,12.7q.21,19.68,0,39.37c-.09,8.13-4.88,12.69-13,12.74C200,219.59,193.47,219.56,186.91,219.56Z"/><path class="cls-2" d="M579.4,163c1.18-1.6.61-3.3.61-4.86.06-18.15.15-36.3,0-54.45,0-3.72.86-4.91,4.68-4.73,6.81.32,13.66.34,20.47,0,3.85-.19,4.73,1.08,4.71,4.73-.13,29-.08,57.94-.08,86.92,0,24.47-.09,49,.09,73.43,0,3.94-1,5.16-5,4.95-6.48-.34-13-.24-19.48,0-2.86.1-3.84-1.1-4.08-3.64-.35-3.74-.79-7.47-1.31-12.26-4,4.74-7.49,8.69-12.07,11.38-16.35,9.59-33.49,9-50.49,2.74-25.05-9.29-38.64-31.73-37.64-60.29.54-15.31,4.06-29.5,14.19-41.59,18.84-22.49,62.56-27.31,84.2-3A5.6,5.6,0,0,0,579.4,163ZM543.25,174c-19.61.06-33.93,14.81-33.82,34.85.1,20.23,14.71,35.07,34.41,35s34.36-15.1,34.25-35.15C578,188.92,562.91,173.93,543.25,174Z"/><path class="cls-2" d="M1329.83,219.35c-14,0-28,.17-42-.1-4.56-.08-4.94,1.56-3.69,5.19,3.24,9.43,10,15.44,19.23,18.07,15.83,4.52,31,2.69,44.79-6.85,2.07-1.44,3.18-1.56,4.92.23,4.52,4.67,9.07,9.31,13.87,13.69,2.58,2.35,2.23,3.76-.25,5.83-10.25,8.56-22.12,13.43-35.17,15.43-15.4,2.36-30.54,1.41-45-5.07-15.28-6.86-25.74-18.23-30.66-34.23-6.06-19.72-5.33-39.06,5.16-57.33,9.67-16.84,25.09-25.06,43.68-28.12a73.58,73.58,0,0,1,33,2.21c22.41,6.58,34.13,22.42,38.1,44.76,1.29,7.25,1,14.59,1,21.92,0,3.46-1.09,4.5-4.59,4.45C1358.16,219.24,1344,219.35,1329.83,219.35Zm-14-24.4c9.33,0,18.67-.19,28,.09,4.07.13,4.28-1.28,3.27-4.58-2.13-6.94-6.33-12.26-12.88-15.06-13.37-5.7-26.57-5.32-39,2.82-4.89,3.18-8,7.83-10.38,13.13-1.31,3-.55,3.7,2.53,3.65C1296.78,194.86,1306.28,195,1315.78,195Z"/><path class="cls-2" d="M710.15,219.37c-14.15,0-28.31.11-42.46-.08-3.89,0-4.59,1.21-3.41,4.62,4.11,11.75,12.89,17.9,24.65,19.9,14.46,2.45,28.2.42,40.25-8.67,1.58-1.19,2.38-1.07,3.67.23,5,5.08,10.1,10.15,15.31,15.06,2.42,2.28.59,3.36-.89,4.67-9.09,8-19.85,12.63-31.58,15-15,3.07-29.87,2.8-44.26-2.56-24.28-9-36.41-27.35-38.44-52.64-1.38-17.26,1.81-33.46,12.92-47.42,10.08-12.67,23.69-18.9,39.25-21.44A75.17,75.17,0,0,1,716.73,148c22.18,5.85,37,23.18,39.65,46.05a195,195,0,0,1,.89,20.92c0,3.43-1.17,4.53-4.66,4.49-14.15-.19-28.3-.08-42.46-.08Zm18-24.42c-1.21-10.11-6.37-16.84-15.25-20.29-11.69-4.54-23.4-4.16-34.61,1.8-5.92,3.14-10,8.12-12.88,14.11-1.58,3.23-1.35,4.56,2.82,4.47,11-.25,21.94-.09,32.91-.09Z"/><path class="cls-2" d="M942.7,164.81c8.08-7.25,15.89-13.09,25.58-15.78,25.84-7.19,55,5.28,62.75,38.79a72,72,0,0,1,1.9,16.77q-.17,30,0,60c0,3.48-.85,4.59-4.4,4.46-7.16-.28-14.33-.25-21.49,0-3.26.11-4.17-.84-4.14-4.12q.22-31,0-62c-.07-17-13.57-29.78-30.15-28.83-15,.86-28.33,14.13-28.63,29.37-.4,20.15-.39,40.3-.22,60.45,0,4.31-1.3,5.29-5.32,5.1-7-.32-14-.17-21,0-2.51,0-3.48-.58-3.48-3.31q.12-56.72,0-113.43c0-2.67.83-3.41,3.41-3.36,6.66.16,13.33.19,20,0,2.86-.08,3.75,1,3.9,3.68C941.7,156.31,942.22,160.06,942.7,164.81Z"/><path class="cls-2" d="M1142.32,164.44c2.89-2.29,5.26-4.27,7.72-6.13,33-24.81,75.65-6.76,81.17,34.31,1.77,13.11.69,26.26.93,39.38.21,10.82-.16,21.65.15,32.47.11,3.92-1.17,4.69-4.76,4.54-6.82-.29-13.67-.36-20.47,0-4.17.24-4.86-1.29-4.83-5.06q.27-30,0-59.94c-.09-13.67-6.8-24-17.8-28a30.2,30.2,0,0,0-40.53,25.58c-1.83,18.59-.45,37.26-.73,55.9-.17,11.41,0,11.41-11.31,11.42-4.83,0-9.66-.13-14.48,0-2.47.09-3.48-.41-3.47-3.21q.13-56.94,0-113.88c0-2.51.87-3,3.16-3,6.65.13,13.32.21,20,0,3-.11,3.68,1.44,3.94,3.82C1141.42,156.4,1141.85,160.12,1142.32,164.44Z"/><path class="cls-2" d="M766.53,148.93c10.53,0,20.19.14,29.83-.08,3.34-.07,3.63,2.23,4.51,4.28,11.93,27.72,22.62,55.9,32.47,84.44,1.87-.61,1.82-2.35,2.26-3.61q14.21-40.87,30.95-80.76c1.37-3.27,2.92-4.47,6.49-4.37,9.11.28,18.23.09,27.9.09-6.74,15.89-13.26,31.28-19.79,46.66-9.92,23.32-19.92,46.61-29.66,70-1.25,3-2.69,3.92-5.79,3.84-7.83-.2-15.67-.27-23.48.08-3.52.16-4.92-1.26-6.16-4.21q-22.87-54-45.94-108C769,154.71,767.92,152.16,766.53,148.93Z"/><path class="cls-2" d="M1058.07,208.74c0-18.49.12-37-.1-55.48,0-3.84,1-4.75,4.71-4.59,7.15.31,14.33.18,21.49.06,2.6,0,3.84.36,3.83,3.46q-.15,56.73,0,113.47c0,2.19-.38,3.36-3,3.31-8-.13-16-.2-24,0-3.69.1-2.93-2.23-2.93-4.26Q1058.05,236.74,1058.07,208.74Z"/><path class="cls-2" d="M1090.45,115.47c0,10.51-7,17.41-17.58,17.37-10.06,0-17.92-7.92-17.65-17.68.28-10.06,7.79-17.1,18.19-17C1083.62,98.18,1090.47,105.16,1090.45,115.47Z"/></g></g></svg>