<svg xmlns="http://www.w3.org/2000/svg" viewBox="0 0 897.17 601.57"><defs><style>.cls-1{fill:#c0da68;}.cls-2{fill:#fff;}</style></defs><g id="Layer_2" data-name="Layer 2"><g id="Layer_1-2" data-name="Layer 1"><path class="cls-1" d="M635.49,220c0,49.31-.06,98.61.1,147.92,0,4.8-1.25,6.4-6.2,6.36q-36.85-.35-73.71,0c-4.8.05-6.21-1.17-6.19-6.09.16-53.17.09-106.34.06-159.52,0-20.7-.12-41.39-.09-62.09,0-38-29.54-60.6-60.08-60-33.65.65-67.31.08-101,.22a14.93,14.93,0,0,1-11.54-4.9q-32.69-33-65.74-65.6c-3.26-3.21-3.93-6.77-2.72-10.44,1.38-4.16,5-5.65,9.48-5.64,81.28.06,162.57-.64,243.84.39,31.74.4,58.08,17.77,69.78,51a74.23,74.23,0,0,1,4.07,25C635.41,124.39,635.5,172.18,635.49,220Z"/><path class="cls-1" d="M400.32,373.86c-22.88,0-45.77.59-68.62-.14-31.93-1-61.57-26.81-68.14-58.09a89.57,89.57,0,0,1-2-18.92q.15-47.94,0-95.87c0-6.6,1.88-11.86,8.13-14.74,5.1-2.35,12.7-.31,17.26,4.31q30.15,30.5,60.77,60.52c5.39,5.33,9.76,11.42,14.45,17.32,6.49,8.15,15.51,13.31,25.43,16.65,7.86,2.65,16,3.16,24.22,3.11,19.68-.12,39.36.05,59-.12,3.74,0,5.15.66,5.11,4.85-.21,25.73-.17,51.47,0,77.2,0,3.55-1,4.5-4.5,4.48-23.72-.14-47.44-.07-71.15-.07Z"/><path class="cls-1" d="M448.49,219.56q-9.58,0-19.18,0c-8.25,0-13-4.36-13.15-12.41q-.27-19.92,0-39.87c.12-8.22,4.82-12.53,13.1-12.55q19.42,0,38.86,0c8.06,0,13,4.66,13.07,12.7q.22,19.68,0,39.37c-.09,8.13-4.88,12.69-13,12.74C461.61,219.59,455.05,219.56,448.49,219.56Z"/><path class="cls-2" d="M99.65,492.5c1.18-1.61.61-3.31.61-4.86,0-18.15.15-36.31-.05-54.45,0-3.72.86-4.92,4.67-4.73,6.82.32,13.67.34,20.48,0,3.85-.2,4.72,1.08,4.71,4.72-.14,29-.08,57.95-.08,86.92,0,24.48-.09,49,.09,73.43,0,4-1,5.17-5,5-6.48-.34-13-.25-19.48,0-2.86.1-3.84-1.1-4.08-3.64-.35-3.74-.79-7.47-1.32-12.26-4,4.73-7.49,8.69-12.06,11.38-16.35,9.59-33.5,9-50.49,2.73-25-9.28-38.64-31.73-37.64-60.28.54-15.32,4.06-29.5,14.18-41.59,18.85-22.49,62.57-27.31,84.21-3A5.24,5.24,0,0,0,99.65,492.5ZM63.49,503.44c-19.6.06-33.92,14.81-33.81,34.85.1,20.22,14.71,35.06,34.41,35s34.36-15.1,34.25-35.15C98.24,518.38,83.16,503.38,63.49,503.44Z"/><path class="cls-2" d="M850.08,548.81c-14,0-28,.17-42-.1-4.56-.09-4.94,1.56-3.7,5.19,3.25,9.43,10,15.43,19.24,18.07,15.83,4.51,31,2.69,44.79-6.86,2.07-1.43,3.18-1.55,4.92.24,4.52,4.66,9.07,9.31,13.87,13.68,2.58,2.35,2.23,3.77-.25,5.84-10.25,8.55-22.12,13.43-35.17,15.43-15.4,2.36-30.54,1.4-45-5.08C791.54,588.37,781.07,577,776.16,561c-6.06-19.72-5.33-39.07,5.16-57.33,9.67-16.84,25.09-25.06,43.67-28.13a73.9,73.9,0,0,1,33,2.21c22.41,6.59,34.12,22.43,38.1,44.76,1.29,7.26,1,14.59,1,21.93,0,3.46-1.09,4.5-4.59,4.45C878.4,548.7,864.24,548.81,850.08,548.81ZM836,524.41c9.33,0,18.66-.19,28,.09,4.07.12,4.28-1.28,3.27-4.58-2.14-6.94-6.33-12.27-12.88-15.06-13.37-5.7-26.57-5.32-39,2.81-4.89,3.19-8,7.83-10.38,13.13-1.31,3-.55,3.7,2.53,3.66C817,524.32,826.53,524.41,836,524.41Z"/><path class="cls-2" d="M230.4,548.82c-14.16,0-28.31.12-42.47-.07-3.88,0-4.59,1.21-3.4,4.61,4.11,11.76,12.89,17.91,24.65,19.91,14.46,2.45,28.2.42,40.25-8.67,1.58-1.2,2.38-1.07,3.67.23,5,5.08,10.1,10.14,15.31,15,2.42,2.29.59,3.37-.89,4.68-9.09,8-19.86,12.63-31.58,15-14.95,3.08-29.87,2.81-44.27-2.55-24.27-9-36.4-27.35-38.43-52.65-1.38-17.25,1.81-33.45,12.92-47.41,10.07-12.67,23.68-18.9,39.25-21.44A75,75,0,0,1,237,477.43c22.18,5.85,37,23.18,39.65,46.05a192.39,192.39,0,0,1,.88,20.92c0,3.42-1.16,4.53-4.65,4.48-14.15-.18-28.31-.07-42.46-.07Zm17.95-24.41c-1.21-10.11-6.37-16.84-15.25-20.29-11.69-4.55-23.4-4.17-34.61,1.8-5.92,3.14-10,8.12-12.88,14.11-1.58,3.23-1.35,4.56,2.82,4.46,11-.24,21.94-.08,32.91-.08Z"/><path class="cls-2" d="M463,494.27c8.08-7.25,15.89-13.09,25.58-15.79,25.84-7.18,55,5.29,62.75,38.79a72.1,72.1,0,0,1,1.9,16.78q-.16,30,0,60c0,3.48-.86,4.59-4.41,4.45-7.15-.27-14.32-.25-21.48,0-3.27.11-4.17-.84-4.14-4.13q.21-31,0-62c-.07-17-13.57-29.77-30.15-28.83-15,.86-28.33,14.14-28.64,29.38-.4,20.14-.38,40.3-.21,60.45,0,4.31-1.3,5.29-5.32,5.1-7-.32-14-.17-21,0-2.51.05-3.49-.58-3.48-3.32q.12-56.7,0-113.42c0-2.67.83-3.42,3.41-3.36,6.65.15,13.32.19,20,0,2.86-.09,3.75,1,3.9,3.67C462,485.76,462.47,489.51,463,494.27Z"/><path class="cls-2" d="M662.57,493.9c2.89-2.3,5.26-4.28,7.72-6.13,33-24.81,75.65-6.76,81.17,34.31,1.77,13.11.69,26.25.93,39.38.2,10.82-.16,21.65.15,32.46.11,3.93-1.18,4.7-4.76,4.55-6.82-.29-13.67-.36-20.48,0-4.16.23-4.85-1.29-4.82-5.07q.27-30,0-59.93c-.09-13.68-6.81-24-17.8-28a30.2,30.2,0,0,0-40.53,25.58c-1.83,18.59-.46,37.26-.74,55.89-.17,11.42,0,11.42-11.3,11.43-4.83,0-9.66-.13-14.48,0-2.48.09-3.48-.42-3.48-3.21q.15-56.94,0-113.88c0-2.51.87-3,3.15-3,6.66.13,13.33.21,20,0,3-.1,3.68,1.45,3.94,3.83C661.67,485.86,662.09,489.58,662.57,493.9Z"/><path class="cls-2" d="M286.78,478.39c10.53,0,20.18.14,29.83-.08,3.33-.07,3.63,2.23,4.51,4.28,11.92,27.72,22.62,55.9,32.47,84.43,1.87-.61,1.82-2.34,2.26-3.6q14.2-40.87,30.95-80.76c1.37-3.27,2.92-4.48,6.49-4.37,9.1.27,18.23.09,27.9.09-6.74,15.89-13.26,31.28-19.8,46.65-9.91,23.33-19.91,46.61-29.65,70-1.25,3-2.69,3.91-5.79,3.84-7.83-.2-15.67-.27-23.49.08-3.51.16-4.91-1.26-6.16-4.21q-22.87-54-45.94-108C289.27,484.17,288.17,481.62,286.78,478.39Z"/><path class="cls-2" d="M578.32,538.2c0-18.49.12-37-.1-55.48-.05-3.84,1-4.75,4.71-4.59,7.15.31,14.33.18,21.49.05,2.59,0,3.84.37,3.83,3.46q-.16,56.75,0,113.47c0,2.2-.38,3.36-3,3.32-8-.13-16-.2-24,0-3.7.1-2.93-2.23-2.93-4.26Q578.3,566.2,578.32,538.2Z"/><path class="cls-2" d="M610.7,444.93c0,10.5-7,17.41-17.59,17.37-10.06-.05-17.92-7.92-17.64-17.68.27-10.06,7.79-17.1,18.19-17C603.87,427.64,610.71,434.62,610.7,444.93Z"/></g></g></svg>