<svg width="55" height="55" viewBox="0 0 55 55" fill="none" xmlns="http://www.w3.org/2000/svg">
<path d="M54.5019 31.8831C54.5019 39.0307 54.4931 46.1768 54.5164 53.3243C54.5164 54.0201 54.3343 54.252 53.6113 54.2462C50.0317 54.2124 46.4511 54.2124 42.8696 54.2462C42.17 54.2535 41.9645 54.0766 41.9659 53.3635C41.9907 45.6564 41.979 37.9493 41.9761 30.2408C41.9761 27.2403 41.9586 24.2413 41.963 21.2408C41.9703 15.7326 37.6576 12.4567 33.2063 12.5437C28.3019 12.6379 23.3945 12.5553 18.4856 12.5756C18.1702 12.5855 17.8565 12.5272 17.566 12.4045C17.2756 12.2819 17.0155 12.0979 16.8037 11.8653C13.6273 8.67637 10.4334 5.50676 7.22205 2.35648C6.74691 1.89119 6.64926 1.37516 6.82561 0.84319C7.02675 0.240192 7.55436 0.024214 8.20587 0.0256635C20.0539 0.0343606 31.9019 -0.0671054 43.747 0.0821946C48.3716 0.140175 52.2121 2.65798 53.916 7.47472C54.3215 8.63985 54.5226 9.86562 54.5106 11.0985C54.4902 18.0243 54.5019 24.9515 54.5019 31.8831Z" fill="#BEF264"/>
<path d="M20.2257 54.1853C16.891 54.1853 13.5547 54.2708 10.2244 54.165C5.57057 54.0201 1.25054 50.2789 0.291501 45.7448C0.0974155 44.8434 -0.000294303 43.9241 6.65842e-07 43.0023C0.013604 38.3697 0.013604 33.7375 6.65842e-07 29.1058C6.65842e-07 28.1491 0.274011 27.3867 1.18495 26.9692C1.92827 26.6286 3.03597 26.9243 3.70059 27.594C6.63017 30.5413 9.58258 33.4655 12.5578 36.3664C13.3434 37.139 13.9803 38.0218 14.6639 38.877C15.6098 40.0583 16.9245 40.8063 18.3703 41.2904C19.5145 41.6746 20.7023 41.7485 21.8989 41.7412C24.7673 41.7238 27.6371 41.7485 30.5055 41.7238C31.0506 41.7238 31.2561 41.8195 31.2503 42.4269C31.2196 46.1565 31.2255 49.8875 31.2503 53.6171C31.2503 54.1317 31.1045 54.2694 30.5929 54.2665C27.1372 54.2462 23.68 54.2564 20.2243 54.2564L20.2257 54.1853Z" fill="#BEF264"/>
<path d="M27.2469 31.8193C26.3141 31.8193 25.3823 31.8193 24.4514 31.8193C23.249 31.8193 22.5567 31.1873 22.5348 30.0205C22.5086 28.0955 22.5086 26.1691 22.5348 24.2412C22.5508 23.0497 23.2373 22.425 24.4441 22.4221C26.3321 22.4221 28.22 22.4221 30.108 22.4221C31.2827 22.4221 32.0027 23.0976 32.0129 24.263C32.0333 26.1648 32.0333 28.067 32.0129 29.9697C31.9998 31.1482 31.3017 31.8092 30.1182 31.8164C29.1548 31.8237 28.203 31.8193 27.2469 31.8193Z" fill="#BEF264"/>
</svg>
