<svg width="42" height="45" viewBox="0 0 42 45" fill="none" xmlns="http://www.w3.org/2000/svg">
<path d="M41.6178 13.6137L21.3834 0.124173C21.1351 -0.0413911 20.8118 -0.0413911 20.5635 0.124173L0.329158 13.6137C0.123681 13.7507 0 13.9818 0 14.2287C0 14.4755 0.123188 14.7066 0.329158 14.8436L3.40245 16.8925V27.6901C3.40245 27.9419 3.53056 28.1765 3.74244 28.3125L20.6926 39.1791C20.8143 39.257 20.9528 39.2959 21.0917 39.2959C21.2371 39.2959 21.3829 39.253 21.5081 39.1673L30.3515 33.1341V37.3412L27.057 43.9302C26.9426 44.1594 26.955 44.4319 27.089 44.6497C27.2235 44.867 27.462 45 27.7177 45H34.463C34.7192 45 34.9572 44.867 35.0918 44.6497C35.2258 44.4319 35.2386 44.1594 35.1238 43.9302L31.8293 37.3412V32.1254L37.4353 28.3007C37.6368 28.1632 37.7575 27.9346 37.7575 27.6901V17.4168L41.6173 14.8436C41.8227 14.7066 41.9464 14.4755 41.9464 14.2287C41.9464 13.9818 41.8232 13.7507 41.6178 13.6137ZM28.9141 43.5217L31.0906 39.1688L33.2671 43.5217H28.9141ZM21.0789 37.6708L4.8807 27.2861V17.878L20.5635 28.3337C20.6877 28.4165 20.8306 28.4579 20.9735 28.4579C21.1164 28.4579 21.2593 28.4165 21.3834 28.3337L30.3515 22.3546V31.3444L21.0789 37.6708ZM36.2798 27.2999L31.8298 30.3362V21.3691L36.2798 18.4023V27.2999ZM36.7622 16.3041C36.6533 16.3446 36.5572 16.4091 36.4793 16.4929L31.0906 20.0855L21.3834 13.6137C21.0429 13.3871 20.5847 13.4792 20.3585 13.8187C20.1323 14.1582 20.224 14.6175 20.5635 14.8436L29.7582 20.9735L20.9735 26.8303L2.07153 14.2287L20.9735 1.62756L39.8754 14.2287L36.7622 16.3041Z" fill="url(#paint0_linear)"/>
<defs>
<linearGradient id="paint0_linear" x1="2.53927e-07" y1="22.5" x2="39.6019" y2="22.5" gradientUnits="userSpaceOnUse">
<stop stop-color="#61DCFB"/>
<stop offset="1" stop-color="#61A1FB"/>
</linearGradient>
</defs>
</svg>
