<svg width="335" height="521" viewBox="0 0 335 521" fill="none" xmlns="http://www.w3.org/2000/svg">
<g clip-path="url(#clip0)">
<path d="M222.1 184.05C222.1 184.05 240.88 224.13 240.88 226.24C240.88 228.35 224.21 237.42 221 239.32C218.539 240.726 216.001 241.994 213.4 243.12L215.31 261.68C215.31 261.68 244 255.14 256 248.6C268 242.06 267.6 234.67 264.81 223.7C262.02 212.73 243.5 170.35 243.5 170.35L222.1 184.05Z" fill="#E1E1E6"/>
<g opacity="0.5">
<path opacity="0.5" d="M256 248.6C268 242.06 267.6 234.67 264.81 223.7C262.02 212.73 243.49 170.35 243.49 170.35L240.49 172.25L239.49 174.01C239.49 174.01 256.79 216.47 257.83 230.61C258.54 240.12 239.41 251.97 226.76 258.74C236.2 256.25 249 252.43 256 248.6Z" fill="#BBBBBF"/>
</g>
<path d="M222.1 184.05C222.1 184.05 240.88 224.13 240.88 226.24C240.88 228.35 224.21 237.42 221 239.32C218.539 240.726 216.001 241.994 213.4 243.12L215.31 261.68C215.31 261.68 244 255.14 256 248.6C268 242.06 267.6 234.67 264.81 223.7C262.02 212.73 243.5 170.35 243.5 170.35L222.1 184.05Z" stroke="#263238" stroke-linecap="round" stroke-linejoin="round"/>
<path d="M86.6101 175.2C86.6101 175.2 72.9101 225.4 72.5001 234.26C72.0901 243.12 99.7101 260.62 100.72 261.68C101.73 262.74 99.1501 231.18 99.1501 231.18L108.51 185.33L86.6101 175.2Z" fill="#E1E1E6"/>
<g opacity="0.5">
<path opacity="0.5" d="M92.8901 179.3L92.5901 177.95L86.5901 175.2C86.5901 175.2 72.8901 225.4 72.4801 234.26C72.0701 243.12 99.6901 260.62 100.7 261.68C101.1 262.11 100.94 257.38 100.61 251.54C92.3901 244.54 80.6101 234.78 79.2201 230.65" fill="#BBBBBF"/>
</g>
<path d="M86.6101 175.2C86.6101 175.2 72.9101 225.4 72.5001 234.26C72.0901 243.12 99.7101 260.62 100.72 261.68C101.73 262.74 99.1501 231.18 99.1501 231.18L108.51 185.33L86.6101 175.2Z" stroke="#263238" stroke-linecap="round" stroke-linejoin="round"/>
<path d="M151 124.77C151 124.77 145.71 128.58 135.4 129C125.09 129.42 124.59 122 111.77 122C96.23 122 76.77 171.14 76.77 171.14C76.77 171.14 86.47 180.64 95.97 184.64C101.224 186.951 106.752 188.581 112.42 189.49L113.9 221.78H218.47L219.72 189.49L252.43 168.28C252.43 168.28 236.38 139.59 228.59 128.84C220.8 118.09 207.69 122.08 203.69 124.84C199.69 127.6 187.82 128.22 183.45 127.59C177.746 126.345 172.109 124.813 166.56 123C166.56 123 159.82 117.27 151 124.77Z" fill="#BEF264" stroke="#263238" stroke-linecap="round" stroke-linejoin="round"/>
<path fill-rule="evenodd" clip-rule="evenodd" d="M113 189.5L114 136L101.5 186.3L113 189.5Z" fill="#1AA831"/>
<path fill-rule="evenodd" clip-rule="evenodd" d="M205.69 221.86V159C205.69 143.05 192.21 138.11 174.22 131.51C167.96 129.22 161.16 126.73 154.22 123.51L153.53 123.37C161.36 118.27 167.08 123.02 167.08 123.02C172.638 124.852 178.285 126.401 184 127.66C188.37 128.3 200.24 127.66 204.24 124.91C208.24 122.16 221.34 118.18 229.14 128.91C236.94 139.64 253 168.36 253 168.36L220.29 189.57L219 221.86H205.69Z" fill="#1AA831"/>
<path d="M113.41 136.16L113 189.74" stroke="#263238" stroke-width="0.5" stroke-linecap="round" stroke-linejoin="round"/>
<path d="M117.2 141C117.2 141 118.68 167.15 124.26 181.72" stroke="#263238" stroke-width="0.5" stroke-linecap="round" stroke-linejoin="round"/>
<path d="M125.22 183.84C126.429 187.392 127.91 190.846 129.65 194.17" stroke="#263238" stroke-width="0.5" stroke-linecap="round" stroke-linejoin="round"/>
<path d="M120.57 138.06C122.56 147.569 125.381 156.885 129 165.9" stroke="#263238" stroke-width="0.5" stroke-linecap="round" stroke-linejoin="round"/>
<path d="M211.52 142.7C211.52 142.7 206.46 163.38 202.01 172.7" stroke="#263238" stroke-width="0.5" stroke-linecap="round" stroke-linejoin="round"/>
<path d="M219.72 189.53L219.51 147.76" stroke="#263238" stroke-width="0.5" stroke-linecap="round" stroke-linejoin="round"/>
<path d="M217.41 148.61C217.41 148.61 213.6 175.05 204.32 188.9" stroke="#263238" stroke-width="0.5" stroke-linecap="round" stroke-linejoin="round"/>
<path d="M212.77 183.62C212.77 183.62 208.54 191.62 205.59 195.86" stroke="#263238" stroke-width="0.5" stroke-linecap="round" stroke-linejoin="round"/>
<path d="M145 127.94C145 127.94 148 146.09 152.18 155.36C156.36 164.63 163.78 166.54 170.11 163.8C176.44 161.06 181.11 147.55 180.69 130.3" stroke="#263238" stroke-width="0.5" stroke-linecap="round" stroke-linejoin="round"/>
<path d="M130.07 90C130.07 90 126.07 83 122.9 86.63C119.73 90.26 125.44 98.45 128.59 101.18C131.74 103.91 134.08 102.24 133.88 99.29C133.68 96.34 130.07 90 130.07 90Z" fill="#E1E1E6" stroke="#263238" stroke-linecap="round" stroke-linejoin="round"/>
<path d="M130.07 90C130.07 90 126.07 83 122.9 86.63C119.73 90.26 125.44 98.45 128.59 101.18C131.74 103.91 134.08 102.24 133.88 99.29C133.68 96.34 130.07 90 130.07 90Z" stroke="#263238" stroke-linecap="round" stroke-linejoin="round"/>
<path d="M193.89 90C193.89 90 197.89 83 201.06 86.63C204.23 90.26 198.52 98.45 195.37 101.18C192.22 103.91 189.87 102.24 190.08 99.29C190.29 96.34 193.89 90 193.89 90Z" fill="#E1E1E6" stroke="#263238" stroke-linecap="round" stroke-linejoin="round"/>
<path d="M193.89 90C193.89 90 197.89 83 201.06 86.63C204.23 90.26 198.52 98.45 195.37 101.18C192.22 103.91 189.87 102.24 190.08 99.29C190.29 96.34 193.89 90 193.89 90Z" stroke="#263238" stroke-linecap="round" stroke-linejoin="round"/>
<path d="M149.05 123.3C151.041 132.306 153.579 141.183 156.65 149.88C160.46 159.36 167.65 159.36 170.58 153.24C173.51 147.12 175.43 124.33 175.43 124.33C175.43 124.33 155.59 127.09 149.05 123.3Z" fill="#E1E1E6" stroke="#263238" stroke-linecap="round" stroke-linejoin="round"/>
<path d="M130.5 92.29C130.5 92.29 135.98 111.68 146.37 123.09C156.76 134.5 160.47 137.2 165.99 136.37C171.51 135.54 177.38 128.37 185.6 113.45C193.82 98.53 194.41 87.09 195.1 86.03C195.79 84.97 193.34 63.88 181.6 54.8C169.86 45.72 156.7 41.74 145.31 51.65C133.92 61.56 126.69 77.72 130.5 92.29Z" fill="#E1E1E6"/>
<path d="M130.5 92.29C130.5 92.29 135.98 111.68 146.37 123.09C156.76 134.5 160.47 137.2 165.99 136.37C171.51 135.54 177.38 128.37 185.6 113.45C193.82 98.53 194.41 87.09 195.1 86.03C195.79 84.97 193.34 63.88 181.6 54.8C169.86 45.72 156.7 41.74 145.31 51.65C133.92 61.56 126.69 77.72 130.5 92.29Z" stroke="#263238" stroke-linecap="round" stroke-linejoin="round"/>
<path d="M165.94 102.41C165.287 106.529 164.933 110.69 164.88 114.86C165.09 119.07 166.36 120.34 164.46 120.76C162.56 121.18 160.46 118.22 160.46 118.22" stroke="#263238" stroke-linecap="round" stroke-linejoin="round"/>
<path d="M144.83 105.79C146.052 106.676 147.513 107.171 149.021 107.21C150.529 107.249 152.014 106.831 153.28 106.01" stroke="#263238" stroke-linecap="round" stroke-linejoin="round"/>
<path d="M171.63 105.79C172.85 106.678 174.311 107.173 175.82 107.21C177.321 107.239 178.797 106.822 180.06 106.01" stroke="#263238" stroke-linecap="round" stroke-linejoin="round"/>
<path d="M158.3 98.69C158.3 98.69 154.3 88.76 141.01 93.4" stroke="#263238" stroke-linecap="round" stroke-linejoin="round"/>
<path d="M169.36 97.47C169.36 97.47 172.73 87.76 184.75 93.47" stroke="#263238" stroke-linecap="round" stroke-linejoin="round"/>
<path d="M160.86 106.52C160.86 111.95 154.64 116.34 146.95 116.34C139.26 116.34 133 112 133 106.52C133 101.04 138.82 98.83 146.5 98.83C154.18 98.83 160.86 101.1 160.86 106.52Z" stroke="#263238" stroke-linecap="round" stroke-linejoin="round"/>
<path d="M192.93 106.52C192.93 111.95 186.69 116.34 179 116.34C171.31 116.34 165.09 111.95 165.09 106.52C165.09 101.09 170.89 98.83 178.58 98.83C186.27 98.83 192.93 101.1 192.93 106.52Z" stroke="#263238" stroke-linecap="round" stroke-linejoin="round"/>
<path d="M180.36 36.6C182.46 36.16 186.96 34.44 189.99 27.4C190.038 27.2932 190.062 27.1771 190.06 27.06C190.06 26.944 190.04 26.829 190 26.72C189.96 26.6125 189.898 26.514 189.82 26.43C189.693 26.2996 189.529 26.2122 189.35 26.18C189.172 26.1415 188.987 26.159 188.82 26.23C188.709 26.268 188.609 26.3334 188.53 26.42C188.444 26.4977 188.376 26.5933 188.33 26.7C185.54 33.15 181.56 34.58 179.9 34.89C182.86 31.3002 184.498 26.8028 184.54 22.15C184.58 9.91 173.24 0 159.26 0C145.28 0 133.94 9.91 133.94 22.15C133.95 26.6173 135.438 30.9559 138.17 34.49C135.51 34.35 131.01 35.49 125.31 42.12C125.15 42.2906 125.061 42.5159 125.061 42.75C125.061 42.9841 125.15 43.2094 125.31 43.38C125.476 43.5094 125.679 43.5829 125.89 43.59C126.022 43.5899 126.152 43.5591 126.27 43.5C126.386 43.4465 126.488 43.368 126.57 43.27C133.85 34.79 138.66 36.22 139.63 36.6C137.986 37.509 136.443 38.5919 135.03 39.83C126.9 47.15 122 61 122.58 72.52C123.287 80.1664 126.051 87.4787 130.58 93.68C136.483 89.4707 141.38 84.0066 144.92 77.68C147.567 73.0094 149.931 68.184 152 63.23C152 68.4 152.67 74.64 155.39 79.1C157.35 82.6222 160.219 85.5538 163.698 87.589C167.178 89.6241 171.139 90.6881 175.17 90.67C176.561 90.6888 177.95 90.5512 179.31 90.26C179.431 90.2316 179.543 90.177 179.64 90.1C179.738 90.0238 179.82 89.9286 179.88 89.82C186.68 91.27 193.46 91.14 194.5 89.7C196.17 87.39 198.5 80.17 199.34 71.36C200.78 56.41 191.37 43.43 180.36 36.6ZM157 78C153.58 72.41 153.68 63.3 154.09 58.06L154.32 57.46C154.479 62.8463 155.849 68.1277 158.33 72.9113C160.811 77.6949 164.339 81.8576 168.65 85.09C171.029 86.7377 173.67 87.9718 176.46 88.74C172.16 89.06 163.28 88.23 157 78Z" fill="#263238"/>
<path d="M157.32 50.27C157.32 50.27 155.87 61 169.45 71.43C183.03 81.86 195.9 77.78 195.9 77.78" stroke="#E1E1E6" stroke-width="0.5" stroke-linecap="round" stroke-linejoin="round"/>
<path d="M159.31 46.74C159.31 46.74 173.61 67.57 193.36 62.14" stroke="#E1E1E6" stroke-width="0.5" stroke-linecap="round" stroke-linejoin="round"/>
<path d="M152.24 39.81C149.98 38.6713 147.453 38.17 144.93 38.36C142.406 38.5486 139.984 39.4311 137.93 40.91C130.33 45.97 126.52 57.91 126.52 57.91" stroke="#E1E1E6" stroke-width="0.5" stroke-linecap="round" stroke-linejoin="round"/>
<path d="M152.61 45.62C152.61 45.62 146.46 43.98 142.61 47.78C140.751 49.4596 139.162 51.416 137.9 53.58" stroke="#E1E1E6" stroke-width="0.5" stroke-linecap="round" stroke-linejoin="round"/>
<path d="M23.43 269.85L22.53 461.27C22.5304 461.579 22.6022 461.884 22.74 462.16C22.8708 462.439 23.0621 462.685 23.3 462.88C23.8292 463.309 24.4887 463.545 25.17 463.55C25.8385 463.554 26.488 463.328 27.01 462.91C27.2445 462.719 27.4354 462.481 27.57 462.21C27.7103 461.944 27.7889 461.65 27.8 461.35L34.16 270.12L23.43 269.85Z" fill="#E1E1E6" stroke="#263238" stroke-linecap="round" stroke-linejoin="round"/>
<path d="M9.56005 314.31L8.78005 512.08C8.77876 512.4 8.8542 512.715 9.00005 513C9.12175 513.279 9.29862 513.531 9.52005 513.74C9.74501 513.953 10.0101 514.12 10.3 514.23C10.5941 514.341 10.9057 514.399 11.22 514.4C11.8351 514.402 12.4294 514.178 12.89 513.77C13.1104 513.576 13.2876 513.337 13.41 513.07C13.5366 512.803 13.6112 512.515 13.63 512.22L19.39 314.61L9.56005 314.31Z" fill="#E1E1E6" stroke="#263238" stroke-linecap="round" stroke-linejoin="round"/>
<path d="M311.49 269.85L312.31 461.27C312.319 461.569 312.261 461.866 312.14 462.14C312.018 462.419 311.841 462.671 311.62 462.88C311.393 463.091 311.129 463.257 310.84 463.37C310.548 463.49 310.236 463.551 309.92 463.55C309.304 463.549 308.709 463.321 308.25 462.91C308.029 462.71 307.849 462.469 307.72 462.2C307.594 461.933 307.523 461.644 307.51 461.35L301.74 270.12L311.49 269.85Z" fill="#E1E1E6" stroke="#263238" stroke-linecap="round" stroke-linejoin="round"/>
<path d="M325.24 314.31L326.06 512.08C326.066 512.38 326.004 512.677 325.88 512.95C325.758 513.229 325.581 513.481 325.36 513.69C325.135 513.903 324.87 514.07 324.58 514.18C324.286 514.291 323.974 514.349 323.66 514.35C323.048 514.351 322.457 514.127 322 513.72C321.78 513.526 321.602 513.287 321.48 513.02C321.352 512.754 321.28 512.465 321.27 512.17L315.49 314.56L325.24 314.31Z" fill="#E1E1E6" stroke="#263238" stroke-linecap="round" stroke-linejoin="round"/>
<path d="M107.61 322.77L107.15 497.66C107.099 498.096 107.221 498.534 107.49 498.88C107.601 499.071 107.76 499.23 107.951 499.34C108.142 499.45 108.359 499.508 108.58 499.508C108.801 499.508 109.018 499.45 109.209 499.34C109.4 499.23 109.559 499.071 109.67 498.88C109.944 498.551 110.077 498.127 110.04 497.7L113.48 323L107.61 322.77Z" fill="#E1E1E6" stroke="#263238" stroke-linecap="round" stroke-linejoin="round"/>
<path d="M228.25 316.42L228.75 470.42C228.767 470.603 228.743 470.787 228.68 470.96C228.622 471.132 228.527 471.29 228.4 471.42C228.111 471.728 227.72 471.92 227.3 471.96C226.881 471.919 226.492 471.723 226.21 471.41C226.087 471.277 225.992 471.12 225.93 470.95C225.872 470.776 225.849 470.593 225.86 470.41L222.42 316.53L228.25 316.42Z" fill="#E1E1E6" stroke="#263238" stroke-linecap="round" stroke-linejoin="round"/>
<path d="M105.57 316.42L106.07 470.42C106.082 470.603 106.058 470.786 106 470.96C105.935 471.131 105.836 471.287 105.71 471.42C105.42 471.721 105.035 471.912 104.62 471.96C104.199 471.917 103.807 471.721 103.52 471.41C103.393 471.28 103.298 471.122 103.24 470.95C103.181 470.777 103.16 470.592 103.18 470.41L99.73 316.55L105.57 316.42Z" fill="#E1E1E6" stroke="#263238" stroke-linecap="round" stroke-linejoin="round"/>
<path d="M225 322.77L225.58 497.66C225.602 497.879 225.578 498.101 225.51 498.31C225.341 498.738 225.026 499.093 224.62 499.31C224.396 499.42 224.15 499.479 223.9 499.48C223.657 499.478 223.417 499.42 223.2 499.31C222.975 499.206 222.779 499.048 222.63 498.85C222.478 498.697 222.362 498.513 222.29 498.31C222.211 498.107 222.18 497.887 222.2 497.67L218.2 322.91L225 322.77Z" fill="#E1E1E6" stroke="#263238" stroke-linecap="round" stroke-linejoin="round"/>
<path d="M165.21 336C207.43 336 241.66 328.23 241.66 318.64C241.66 309.05 207.43 301.28 165.21 301.28C122.99 301.28 88.75 309.05 88.75 318.64C88.75 328.23 123 336 165.21 336Z" fill="#E1E1E6" stroke="#263238" stroke-linecap="round" stroke-linejoin="round"/>
<path d="M128 466C128 466 124 471.7 126.86 474.53C129.72 477.36 132.58 476.24 132.29 479.09C132 481.94 127.43 491.61 123.43 501.85C119.43 512.09 127.72 522.33 135.43 519.5C143.14 516.67 142.3 488.19 143.43 483.07C144.56 477.95 145.43 477.07 145.15 472.26C144.87 467.45 144.58 462.31 140.85 461.73C137.12 461.15 129.7 464 128 466Z" fill="#E1E1E6" stroke="#263238" stroke-linecap="round" stroke-linejoin="round"/>
<path d="M140.26 511.67C135.11 509.72 127.2 510.11 122.75 510.56C124.25 516.99 129.97 521.56 135.43 519.56C137.72 518.68 139.21 515.65 140.26 511.67Z" fill="#BEF264" stroke="#263238" stroke-linecap="round" stroke-linejoin="round"/>
<path d="M119.11 453.51C119.11 453.51 127.41 467.45 129.7 471.14C131.99 474.83 139.7 473.7 140.59 468.58C141.48 463.46 137.43 449.24 137.43 449.24L120.25 453.51H119.11Z" fill="#E1E1E6" stroke="#263238" stroke-linecap="round" stroke-linejoin="round"/>
<path d="M99.3499 431.31C99.3499 431.31 97.0499 435.02 98.1999 437.58C99.3499 440.14 102.5 447.53 104.51 451.23C106.52 454.93 115.68 457.23 126.26 455.5C136.84 453.77 142.87 448.95 143.16 444.68C143.45 440.41 141.45 434.73 140 427.9C138.55 421.07 134.85 421.36 129.7 421.36C124.55 421.36 103.65 427.33 99.3499 431.31Z" fill="#E1E1E6" stroke="#263238" stroke-linecap="round" stroke-linejoin="round"/>
<path d="M130.28 347.66C130.43 340.66 134.51 337.21 134.82 332.42C135.3 326.077 134.77 319.697 133.25 313.52L125.42 302.88C102.88 303.17 86.73 303.55 86.47 303.63C85.61 303.9 85.03 308.75 84.47 312.73C84.47 312.73 74.9 313.94 76.62 340.4C76.86 344.09 86.51 386.75 87.22 391.62C91.51 421.34 101.08 436.23 101.08 436.23C101.08 436.23 101.94 439.93 113.08 439.08C124.22 438.23 135.41 430.83 135.41 430.83C135.41 430.83 129.7 373 130.28 347.66Z" fill="#263238" stroke="#263238" stroke-linecap="round" stroke-linejoin="round"/>
<path d="M103.93 313.52C111.469 313.904 118.95 315.046 126.26 316.93C136 319.78 153.18 325.47 157.18 325.47C161.18 325.47 160.05 310.67 160.05 307.83C160.05 304.99 108.51 303.27 102.21 303.27C95.9101 303.27 103.93 313.52 103.93 313.52Z" fill="#E1E1E6" stroke="#263238" stroke-linecap="round" stroke-linejoin="round"/>
<path d="M160.05 307.83C160.05 307.83 155.46 310.1 153.75 318.64C152.04 327.18 149.75 331.73 153.18 334C156.61 336.27 171.51 338 173.8 335.71C176.09 333.42 182.39 322.05 183.54 314.71C184.69 307.37 160.05 307.83 160.05 307.83Z" fill="#E1E1E6" stroke="#263238" stroke-linecap="round" stroke-linejoin="round"/>
<path d="M179.52 310.67C176.857 313.701 174.73 317.164 173.23 320.91C172.015 324.827 171.056 328.819 170.36 332.86C175.83 334.352 181.179 336.258 186.36 338.56C195.53 342.56 211 345.39 225.87 348.8C240.74 352.21 244.77 355.63 249.93 355.63C255.09 355.63 261.39 351.63 269.41 341.98C277.43 332.33 270.54 311.81 262.54 305.54C254.54 299.27 211.54 294.17 205.84 295.88C200.14 297.59 179.52 310.67 179.52 310.67Z" fill="#263238" stroke="#263238" stroke-linecap="round" stroke-linejoin="round"/>
<path d="M129.4 335.18C129.4 335.18 123.49 398.02 111.4 407.8" stroke="#49606B" stroke-width="0.5" stroke-linecap="round" stroke-linejoin="round"/>
<path d="M125.23 394.83C125.23 394.83 120.54 415.32 108.23 423.46" stroke="#49606B" stroke-width="0.5" stroke-linecap="round" stroke-linejoin="round"/>
<path d="M201.29 323.76C201.29 323.76 183 324.9 195 332.86C207 340.82 228.77 346 228.77 346" stroke="#49606B" stroke-width="0.5" stroke-linecap="round" stroke-linejoin="round"/>
<path d="M334.36 306.47L328.18 300.93L313.88 270.2C313.201 268.797 312.135 267.617 310.808 266.799C309.481 265.98 307.949 265.557 306.39 265.58H28.76C27.2006 265.567 25.669 265.993 24.3408 266.81C23.0125 267.627 21.9414 268.802 21.25 270.2L3.44 308.48L0.5 307.4V316.16L0.64 316.06C0.812151 317.233 1.41024 318.301 2.32 319.06C3.23009 319.821 4.38372 320.229 5.57 320.21H329.57C330.818 320.238 332.029 319.783 332.95 318.94C333.876 318.1 334.434 316.929 334.5 315.68L334.36 306.47Z" fill="#5E5E61" stroke="#263238" stroke-linecap="round" stroke-linejoin="round"/>
<path d="M329.57 312.2H5.56991C4.76688 312.231 3.96906 312.059 3.24991 311.7C2.53161 311.347 1.91799 310.813 1.46991 310.15C1.01091 309.495 0.725346 308.735 0.639915 307.94C0.558212 307.145 0.68218 306.343 0.999915 305.61L21.2499 262.2C21.9312 260.794 22.9998 259.611 24.3301 258.791C25.6605 257.97 27.1973 257.547 28.7599 257.57H306.39C307.953 257.552 309.49 257.979 310.82 258.8C312.143 259.619 313.204 260.798 313.88 262.2L334.11 305.61C334.431 306.342 334.559 307.144 334.48 307.94C334.398 308.733 334.12 309.492 333.67 310.15C333.219 310.81 332.606 311.344 331.89 311.7C331.171 312.059 330.373 312.231 329.57 312.2Z" fill="#E1E1E6" stroke="#263238" stroke-linecap="round" stroke-linejoin="round"/>
<g opacity="0.5">
<path opacity="0.5" d="M22 283C22 283 14.66 288 19.25 289.83C23.84 291.66 76.56 290.29 82.98 288.47C89.4 286.65 96.73 269.79 96.73 267.06C96.73 264.33 87.49 262.36 84.08 262.21C80.67 262.06 35.74 264.77 35.74 264.77L22 283Z" fill="#A8A8A8"/>
</g>
<g opacity="0.5">
<path opacity="0.5" d="M284.25 291.7C294.63 291.7 303.04 288.23 303.04 283.95C303.04 279.67 294.63 276.2 284.25 276.2C273.87 276.2 265.45 279.67 265.45 283.95C265.45 288.23 273.87 291.7 284.25 291.7Z" fill="#A8A8A8"/>
</g>
<g opacity="0.5">
<path opacity="0.5" d="M164.59 301.28C201.81 301.28 231.99 295.67 231.99 288.74C231.99 281.81 201.81 276.21 164.59 276.21C127.37 276.21 97.1899 281.83 97.1899 288.74C97.1899 295.65 127.36 301.28 164.59 301.28Z" fill="#A8A8A8"/>
</g>
<path d="M270.5 253.46C270.5 253.46 269.27 248.56 265.16 250.2C261.05 251.84 261.47 262.66 262.27 268.79C263.07 274.92 268.65 272.05 268.65 272.05V268.38C268.65 268.38 266.65 270 265.57 267.76C264.49 265.52 264.75 254.28 265.78 254.48C266.81 254.68 268.86 258.15 268.86 258.15C268.86 258.15 269.47 257.76 270.5 253.46Z" fill="#EBA417" stroke="#263238" stroke-linecap="round" stroke-linejoin="round"/>
<path d="M267.55 254.28V281.11C267.55 284.27 274.85 286.83 283.87 286.83C292.89 286.83 300.17 284.27 300.17 281.11V254.28H267.55Z" fill="#EBA417" stroke="#263238" stroke-linecap="round" stroke-linejoin="round"/>
<path d="M300.17 254.28C300.17 257.01 292.87 259.21 283.87 259.21C274.87 259.21 267.55 257.01 267.55 254.28C267.55 251.55 274.85 249.34 283.87 249.34C292.89 249.34 300.17 251.56 300.17 254.28Z" fill="#E1E1E6" stroke="#263238" stroke-linecap="round" stroke-linejoin="round"/>
<path d="M298 254.28C298 256.65 291.65 258.56 283.83 258.56C276.01 258.56 269.64 256.65 269.64 254.28C269.64 251.91 276 250 283.87 250C291.74 250 298 251.9 298 254.28Z" fill="#E1E1E6" stroke="#263238" stroke-linecap="round" stroke-linejoin="round"/>
<path d="M272.93 257C280.073 259.07 287.657 259.07 294.8 257C287.657 254.93 280.073 254.93 272.93 257Z" fill="#263238" stroke="#263238" stroke-linecap="round" stroke-linejoin="round"/>
<path d="M20 266.54L20.2 275.72L82.48 276.33V265.71L20 266.54Z" fill="#E1E1E6" stroke="#263238" stroke-linecap="round" stroke-linejoin="round"/>
<path d="M82.43 276.33L91.49 256.94V251.22L82 267.56L82.43 276.33Z" fill="#E1E1E6" stroke="#263238" stroke-linecap="round" stroke-linejoin="round"/>
<path d="M20 274.9L20.2 284.1L82.48 284.72V274.1L20 274.9Z" fill="#E1E1E6" stroke="#263238" stroke-linecap="round" stroke-linejoin="round"/>
<path d="M82.43 284.72L91.49 265.31V259.59L82 275.92L82.43 284.72Z" fill="#E1E1E6" stroke="#263238" stroke-linecap="round" stroke-linejoin="round"/>
<path d="M43.9999 243.25C43.9999 243.25 45.4399 240.4 43.3799 239.17C41.3199 237.94 39.0699 240.88 37.8299 241.82C36.5899 242.76 10.6999 259.82 9.87991 262.45C9.05991 265.08 9.87991 270.99 15.4299 271.64C20.9799 272.29 25.9099 268.58 28.4299 267.97L31.8699 267.15L48.9299 244.27L43.9999 243.25Z" fill="#EBA417" stroke="#263238" stroke-linecap="round" stroke-linejoin="round"/>
<path d="M15.4301 271.66C20.9801 272.27 25.9101 268.6 28.4301 267.99L31.8701 267.17L32.4901 266.33L16.4901 263.09C15.6195 262.272 14.5 261.768 13.3101 261.66C12.1184 261.547 10.9229 261.832 9.91006 262.47C9.06006 265.1 9.88006 271 15.4301 271.66Z" fill="#E1E1E6" stroke="#263238" stroke-linecap="round" stroke-linejoin="round"/>
<path d="M16.46 263.12H64.56C79.56 263.12 84.1 262.3 84.1 262.3L93.34 243.3C93.34 243.3 64.14 245.14 55.12 244.53C51.3862 244.42 47.6674 244.009 44 243.3L16.46 263.12Z" fill="#EBA417" stroke="#263238" stroke-linecap="round" stroke-linejoin="round"/>
<path d="M16.46 263.12L17.28 266.79C17.28 266.79 56.34 267 66.61 267C76.88 267 84.7 267.41 84.7 267.41L84.08 262.28L16.46 263.12Z" fill="#E1E1E6" stroke="#263238" stroke-linecap="round" stroke-linejoin="round"/>
<path d="M84.7001 267.35L93.3201 247.74V243.25L84.0801 262.25L84.7001 267.35Z" fill="#E1E1E6" stroke="#263238" stroke-linecap="round" stroke-linejoin="round"/>
<path d="M223.45 290.3H105.68C105.419 290.3 105.161 290.249 104.92 290.15C104.674 290.061 104.452 289.917 104.27 289.73C104.083 289.549 103.937 289.331 103.84 289.09C103.737 288.853 103.683 288.598 103.68 288.34C103.683 288.079 103.737 287.82 103.84 287.58C103.937 287.339 104.083 287.121 104.27 286.94C104.452 286.753 104.674 286.609 104.92 286.52C105.161 286.421 105.419 286.37 105.68 286.37H223.45C223.973 286.37 224.476 286.574 224.85 286.94C225.033 287.123 225.179 287.341 225.28 287.58C225.47 288.065 225.47 288.605 225.28 289.09C225.179 289.329 225.033 289.547 224.85 289.73C224.476 290.096 223.973 290.3 223.45 290.3Z" fill="#161E22" stroke="#263238" stroke-linecap="round" stroke-linejoin="round"/>
<path d="M224.58 286.34H104.8C104.363 286.338 103.943 286.174 103.62 285.88C103.301 285.579 103.108 285.168 103.08 284.73L96.57 207C96.5432 206.761 96.567 206.519 96.64 206.29C96.7078 206.054 96.8312 205.838 97 205.66C97.1591 205.478 97.3574 205.334 97.58 205.24C97.8035 205.141 98.0454 205.09 98.29 205.09H231.11C231.355 205.09 231.597 205.141 231.82 205.24C232.043 205.334 232.241 205.478 232.4 205.66C232.569 205.838 232.692 206.054 232.76 206.29C232.833 206.519 232.857 206.761 232.83 207L226.32 284.76C226.293 285.2 226.096 285.613 225.77 285.91C225.442 286.198 225.017 286.352 224.58 286.34Z" fill="#161E22" stroke="#263238" stroke-linecap="round" stroke-linejoin="round"/>
<path d="M292.91 186.3C294.742 184.875 296.033 182.868 296.57 180.61C296.951 178.919 296.909 177.161 296.45 175.49" stroke="#6C7D85" stroke-linecap="round" stroke-linejoin="round"/>
<path d="M279.2 247.18C279.2 247.18 290.62 240.35 286.89 232.54C283.16 224.73 270.55 219.54 270.55 207.41C270.55 196.93 281.77 193.06 289.09 188.86" stroke="#6C7D85" stroke-linecap="round" stroke-linejoin="round"/>
<path d="M289.75 247C289.75 247 296.12 242.79 296.12 236.09C296.12 231.6 291.29 228.67 284.92 221.45" stroke="#6C7D85" stroke-linecap="round" stroke-linejoin="round"/>
<path d="M281.4 217C281.4 217 277.22 213.74 280.3 207.61" stroke="#6C7D85" stroke-linecap="round" stroke-linejoin="round"/>
<path fill-rule="evenodd" clip-rule="evenodd" d="M176.71 241.3C182.13 242.93 185.66 245.57 185.66 248.36C185.66 251.15 182.14 253.77 176.76 255.36C178.02 260.79 177.48 265.12 175.04 266.51C174.427 266.842 173.737 267.007 173.04 266.99C170.65 266.99 167.53 265.32 164.37 262.43C161.21 265.34 158.09 267.02 155.7 267.02C155.002 267.048 154.309 266.882 153.7 266.54C151.26 265.15 150.7 260.82 151.95 255.37C146.54 253.73 143.01 251.09 143.01 248.31C143.01 245.53 146.52 242.9 151.91 241.25C150.66 235.82 151.2 231.49 153.64 230.11C154.251 229.773 154.942 229.607 155.64 229.63C158.03 229.63 161.15 231.29 164.31 234.19C167.47 231.27 170.59 229.59 172.97 229.59C173.648 229.576 174.317 229.742 174.91 230.07C177.41 231.51 178 235.85 176.71 241.3ZM173 231.54C171.19 231.54 168.54 232.97 165.72 235.54C167.017 236.888 168.223 238.322 169.33 239.83C171.185 240.02 173.026 240.33 174.84 240.76C175.03 239.9 175.18 239.05 175.28 238.24C175.68 234.97 175.17 232.43 173.99 231.76C173.682 231.598 173.338 231.518 172.99 231.53L173 231.54ZM163 235.54C160.17 232.96 157.51 231.54 155.71 231.54C155.363 231.522 155.017 231.598 154.71 231.76C153.54 232.44 153.04 234.98 153.45 238.26C153.56 239.09 153.71 239.92 153.9 240.74C155.716 240.297 157.56 239.983 159.42 239.8C160.512 238.307 161.708 236.893 163 235.57V235.54ZM173.19 246C173.64 244.86 174.04 243.72 174.36 242.61C173.23 242.34 172.04 242.11 170.8 241.93C171.23 242.59 171.65 243.25 172.05 243.93C172.45 244.61 172.84 245.34 173.19 246ZM168.3 255C169.02 254 169.71 252.88 170.39 251.73C171.07 250.58 171.64 249.46 172.18 248.31C171.64 247.16 171.04 246.02 170.38 244.9C169.72 243.78 169 242.66 168.28 241.64C167 241.54 165.69 241.48 164.38 241.48C163.07 241.48 161.75 241.54 160.45 241.65C159.73 242.65 159.04 243.77 158.36 244.92C157.68 246.07 157.11 247.19 156.57 248.34C157.11 249.49 157.71 250.63 158.37 251.75C159.03 252.87 159.75 253.99 160.47 255.01C161.76 255.11 163.07 255.17 164.38 255.17C165.689 255.188 166.998 255.132 168.3 255ZM174.39 254C174.06 252.89 173.66 251.74 173.19 250.59C172.84 251.28 172.46 251.97 172.06 252.66C171.66 253.35 171.24 254.03 170.81 254.66C172.018 254.561 173.216 254.36 174.39 254.06V254ZM162 257C162.8 258 163.61 258.92 164.41 259.75C165.257 258.878 166.055 257.96 166.8 257C166.01 257.05 165.2 257.06 164.39 257.06C163.58 257.06 162.78 257.06 162.02 257.06L162 257ZM154.4 254C155.54 254.28 156.73 254.5 157.96 254.68C157.53 254.03 157.12 253.36 156.71 252.68C156.3 252 155.93 251.31 155.57 250.63C155.12 251.83 154.72 253 154.4 254.07V254ZM166.78 239.59C166.028 238.633 165.223 237.718 164.37 236.85C163.523 237.718 162.725 238.633 161.98 239.59C162.77 239.59 163.58 239.53 164.4 239.53C165.22 239.53 166.02 239.62 166.78 239.66V239.59ZM156.68 244C157.08 243.31 157.51 242.63 157.93 242C156.69 242.18 155.49 242.42 154.35 242.68C154.69 243.837 155.091 244.975 155.55 246.09C155.91 245.37 156.28 244.68 156.68 244ZM145 248.36C145 249.7 147 251.36 150.06 252.69C150.81 253.01 151.63 253.3 152.49 253.57C153.009 251.794 153.651 250.057 154.41 248.37C153.629 246.68 152.961 244.939 152.41 243.16C151.595 243.402 150.793 243.689 150.01 244.02C147 245.31 145 247 145 248.36ZM153.43 258.45C153.03 261.72 153.55 264.27 154.73 264.94C155.04 265.096 155.383 265.175 155.73 265.17C157.53 265.17 160.19 263.75 163.01 261.17C161.713 259.822 160.507 258.388 159.4 256.88C157.548 256.69 155.711 256.38 153.9 255.95C153.71 256.8 153.55 257.64 153.45 258.45H153.43ZM174 264.9C175.17 264.23 175.67 261.68 175.26 258.41C175.16 257.568 175.01 256.734 174.81 255.91C172.998 256.368 171.157 256.702 169.3 256.91C168.2 258.412 167 259.838 165.71 261.18C168.54 263.76 171.2 265.18 173 265.18C173.353 265.179 173.698 265.082 174 264.9ZM176.2 253.56C177.04 253.29 177.86 253.01 178.6 252.69C181.68 251.41 183.66 249.69 183.67 248.36C183.68 247.03 181.67 245.36 178.61 244.02C177.81 243.687 177 243.397 176.18 243.15C175.658 244.923 175.013 246.657 174.25 248.34C175.04 250.03 175.709 251.775 176.25 253.56H176.2ZM168.27 248.36C168.286 249.154 168.065 249.934 167.636 250.602C167.207 251.27 166.588 251.795 165.86 252.11C165.131 252.43 164.322 252.52 163.54 252.37C162.954 252.265 162.399 252.03 161.915 251.683C161.432 251.336 161.032 250.886 160.744 250.365C160.457 249.843 160.289 249.265 160.254 248.67C160.219 248.076 160.316 247.482 160.54 246.93C160.839 246.194 161.351 245.564 162.01 245.12C162.56 244.76 163.187 244.535 163.841 244.464C164.494 244.393 165.155 244.477 165.77 244.71C166.257 244.902 166.701 245.189 167.075 245.555C167.449 245.921 167.747 246.358 167.95 246.84C168.152 247.322 168.257 247.838 168.26 248.36H168.27Z" fill="#61DCFB"/>
</g>
<defs>
<clipPath id="clip0">
<rect width="335" height="520.53" fill="white"/>
</clipPath>
</defs>
</svg>
