<svg width="128" height="36" viewBox="0 0 128 36" fill="none" xmlns="http://www.w3.org/2000/svg">
<path d="M30.3978 20.7824C30.3978 24.7689 30.393 28.7546 30.406 32.741C30.406 33.1291 30.3043 33.2585 29.9011 33.2552C27.9047 33.2364 25.9076 33.2364 23.91 33.2552C23.5199 33.2593 23.4052 33.1606 23.406 32.7629C23.4199 28.4643 23.4134 24.1658 23.4117 19.8665C23.4117 18.193 23.402 16.5203 23.4044 14.8468C23.4085 11.7747 21.0031 9.94759 18.5205 9.99609C15.7851 10.0486 13.048 10.0026 10.3102 10.0139C10.1343 10.0194 9.95927 9.98688 9.79729 9.91848C9.63531 9.85008 9.49022 9.74746 9.37208 9.61774C7.60049 7.83915 5.81915 6.07133 4.02805 4.3143C3.76305 4.05479 3.70858 3.76698 3.80694 3.47028C3.91912 3.13396 4.2134 3.01351 4.57676 3.01431C11.1849 3.01916 17.7929 2.96257 24.3994 3.04584C26.9788 3.07818 29.1208 4.48246 30.071 7.16894C30.2972 7.81878 30.4094 8.50244 30.4027 9.19007C30.3913 13.0528 30.3978 16.9164 30.3978 20.7824Z" fill="#BEF264"/>
<path d="M11.2807 33.2212C9.42074 33.2212 7.56001 33.2689 5.70252 33.2099C3.10692 33.1291 0.697472 31.0424 0.162581 28.5136C0.0543324 28.0109 -0.000164144 27.4982 3.71366e-07 26.984C0.00758748 24.4002 0.00758748 21.8167 3.71366e-07 19.2334C3.71366e-07 18.6998 0.152826 18.2746 0.660891 18.0417C1.07547 17.8518 1.69328 18.0167 2.06396 18.3902C3.6979 20.034 5.34457 21.665 7.00398 23.2829C7.44214 23.7138 7.79738 24.2062 8.17863 24.6832C8.7062 25.3421 9.43944 25.7592 10.2458 26.0292C10.884 26.2435 11.5465 26.2847 12.2139 26.2807C13.8137 26.271 15.4143 26.2847 17.0141 26.271C17.3181 26.271 17.4327 26.3243 17.4295 26.6631C17.4124 28.7432 17.4157 30.8242 17.4295 32.9043C17.4295 33.1913 17.3482 33.2681 17.0629 33.2665C15.1355 33.2552 13.2072 33.2608 11.2799 33.2608L11.2807 33.2212Z" fill="#BEF264"/>
<path d="M15.1965 20.7468C14.6762 20.7468 14.1565 20.7468 13.6373 20.7468C12.9667 20.7468 12.5805 20.3943 12.5683 19.7435C12.5537 18.6699 12.5537 17.5955 12.5683 16.5202C12.5773 15.8557 12.9602 15.5072 13.6332 15.5056C14.6862 15.5056 15.7392 15.5056 16.7922 15.5056C17.4474 15.5056 17.849 15.8824 17.8547 16.5323C17.866 17.593 17.866 18.654 17.8547 19.7152C17.8473 20.3725 17.458 20.7411 16.7979 20.7452C16.2606 20.7492 15.7297 20.7468 15.1965 20.7468Z" fill="#BEF264"/>
<path d="M54.2354 22.1504C54.2354 21.431 53.9814 20.8809 53.4736 20.5C52.9658 20.1107 52.0518 19.7044 50.7314 19.2812C49.4111 18.8496 48.3659 18.4264 47.5957 18.0117C45.4967 16.8776 44.4473 15.3499 44.4473 13.4287C44.4473 12.43 44.7266 11.5413 45.2852 10.7627C45.8522 9.97559 46.6605 9.36198 47.71 8.92188C48.7679 8.48177 49.9528 8.26172 51.2646 8.26172C52.585 8.26172 53.7614 8.50293 54.7939 8.98535C55.8265 9.45931 56.6263 10.1322 57.1934 11.0039C57.7689 11.8757 58.0566 12.8659 58.0566 13.9746H54.248C54.248 13.1283 53.9814 12.4723 53.4482 12.0068C52.915 11.5329 52.166 11.2959 51.2012 11.2959C50.2702 11.2959 49.5465 11.4948 49.0303 11.8926C48.514 12.2819 48.2559 12.7982 48.2559 13.4414C48.2559 14.0423 48.5563 14.5459 49.1572 14.9521C49.7666 15.3584 50.6595 15.7393 51.8359 16.0947C54.0026 16.7464 55.5811 17.5547 56.5713 18.5195C57.5615 19.4844 58.0566 20.6862 58.0566 22.125C58.0566 23.7246 57.4515 24.9814 56.2412 25.8955C55.0309 26.8011 53.4017 27.2539 51.3535 27.2539C49.9316 27.2539 48.6367 26.9958 47.4688 26.4795C46.3008 25.9548 45.4079 25.2396 44.79 24.334C44.1807 23.4284 43.876 22.3789 43.876 21.1855H47.6973C47.6973 23.2253 48.916 24.2451 51.3535 24.2451C52.2591 24.2451 52.9658 24.0632 53.4736 23.6992C53.9814 23.3268 54.2354 22.8105 54.2354 22.1504ZM65.0479 9.88672V13.2637H67.3965V15.9551H65.0479V22.8105C65.0479 23.3184 65.1452 23.6823 65.3398 23.9023C65.5345 24.1224 65.9069 24.2324 66.457 24.2324C66.8633 24.2324 67.223 24.2028 67.5361 24.1436V26.9238C66.8167 27.1439 66.0762 27.2539 65.3145 27.2539C62.7415 27.2539 61.4297 25.9548 61.3789 23.3564V15.9551H59.373V13.2637H61.3789V9.88672H65.0479ZM77.6504 27C77.4811 26.6699 77.3584 26.2594 77.2822 25.7686C76.3936 26.7588 75.2383 27.2539 73.8164 27.2539C72.4707 27.2539 71.3535 26.8646 70.4648 26.0859C69.5846 25.3073 69.1445 24.3255 69.1445 23.1406C69.1445 21.6849 69.682 20.5677 70.7568 19.7891C71.8402 19.0104 73.4017 18.6169 75.4414 18.6084H77.1299V17.8213C77.1299 17.1865 76.9648 16.6787 76.6348 16.2979C76.3132 15.917 75.8011 15.7266 75.0986 15.7266C74.4808 15.7266 73.9941 15.8747 73.6387 16.1709C73.2917 16.4671 73.1182 16.8734 73.1182 17.3896H69.4492C69.4492 16.5941 69.6947 15.8577 70.1855 15.1807C70.6764 14.5036 71.3704 13.9746 72.2676 13.5938C73.1647 13.2044 74.1719 13.0098 75.2891 13.0098C76.9818 13.0098 78.3232 13.4372 79.3135 14.292C80.3122 15.1383 80.8115 16.3317 80.8115 17.8721V23.8262C80.82 25.1296 81.002 26.1156 81.3574 26.7842V27H77.6504ZM74.6162 24.4482C75.1579 24.4482 75.6572 24.3298 76.1143 24.0928C76.5713 23.8473 76.9098 23.5215 77.1299 23.1152V20.7539H75.7588C73.9222 20.7539 72.9447 21.3887 72.8262 22.6582L72.8135 22.874C72.8135 23.3311 72.9743 23.7077 73.2959 24.0039C73.6175 24.3001 74.0576 24.4482 74.6162 24.4482ZM91.5986 16.7041C91.0993 16.6364 90.6592 16.6025 90.2783 16.6025C88.8903 16.6025 87.9805 17.0723 87.5488 18.0117V27H83.8799V13.2637H87.3457L87.4473 14.9014C88.1836 13.6403 89.2035 13.0098 90.5068 13.0098C90.9131 13.0098 91.2939 13.0648 91.6494 13.1748L91.5986 16.7041ZM98.6533 9.88672V13.2637H101.002V15.9551H98.6533V22.8105C98.6533 23.3184 98.7507 23.6823 98.9453 23.9023C99.14 24.1224 99.5124 24.2324 100.062 24.2324C100.469 24.2324 100.828 24.2028 101.142 24.1436V26.9238C100.422 27.1439 99.6816 27.2539 98.9199 27.2539C96.347 27.2539 95.0352 25.9548 94.9844 23.3564V15.9551H92.9785V13.2637H94.9844V9.88672H98.6533ZM109.618 27.2539C107.604 27.2539 105.962 26.6361 104.692 25.4004C103.431 24.1647 102.801 22.5186 102.801 20.4619V20.1064C102.801 18.7269 103.067 17.4954 103.601 16.4121C104.134 15.3203 104.887 14.4824 105.86 13.8984C106.842 13.306 107.959 13.0098 109.212 13.0098C111.091 13.0098 112.568 13.6022 113.643 14.7871C114.726 15.972 115.268 17.652 115.268 19.8271V21.3252H106.521C106.639 22.2223 106.994 22.9417 107.587 23.4834C108.188 24.0251 108.945 24.2959 109.859 24.2959C111.273 24.2959 112.377 23.7839 113.173 22.7598L114.976 24.7783C114.425 25.557 113.681 26.1663 112.741 26.6064C111.802 27.0381 110.761 27.2539 109.618 27.2539ZM109.199 15.9805C108.471 15.9805 107.879 16.2259 107.422 16.7168C106.973 17.2077 106.686 17.9102 106.559 18.8242H111.662V18.5322C111.645 17.7197 111.425 17.0934 111.002 16.6533C110.579 16.2048 109.978 15.9805 109.199 15.9805ZM125.331 16.7041C124.832 16.6364 124.392 16.6025 124.011 16.6025C122.623 16.6025 121.713 17.0723 121.281 18.0117V27H117.612V13.2637H121.078L121.18 14.9014C121.916 13.6403 122.936 13.0098 124.239 13.0098C124.646 13.0098 125.026 13.0648 125.382 13.1748L125.331 16.7041Z" fill="white"/>
</svg>
