<svg width="114" height="115" viewBox="0 0 114 115" fill="none" xmlns="http://www.w3.org/2000/svg">
<path d="M88.2988 37.0293C88.2988 45.3306 88.2887 53.6301 88.3158 61.9314C88.3158 62.7394 88.1042 63.0088 87.2646 63.002C83.1072 62.9628 78.9486 62.9628 74.789 63.002C73.9765 63.0105 73.7378 62.8051 73.7395 61.9768C73.7682 53.0257 73.7547 44.0747 73.7513 35.1219C73.7513 31.6371 73.731 28.154 73.7361 24.6692C73.7446 18.272 68.7357 14.4673 63.566 14.5683C57.8699 14.6778 52.1704 14.5818 46.4692 14.6054C46.103 14.6169 45.7385 14.5492 45.4012 14.4067C45.0639 14.2643 44.7618 14.0506 44.5158 13.7805C40.8267 10.0768 37.1173 6.3956 33.3877 2.73684C32.8358 2.19644 32.7224 1.59713 32.9272 0.979288C33.1608 0.278961 33.7736 0.0281224 34.5303 0.0298059C48.2906 0.0399067 62.051 -0.0779368 75.808 0.0954616C81.1791 0.162801 85.6395 3.087 87.6184 8.68121C88.0893 10.0344 88.3229 11.458 88.309 12.8899C88.2853 20.9336 88.2988 28.9789 88.2988 37.0293Z" fill="#BEF264"/>
<path d="M48.4903 62.9324C44.6173 62.9324 40.7426 63.0318 36.8747 62.9089C31.4697 62.7405 26.4524 58.3955 25.3386 53.1295C25.1131 52.0827 24.9997 51.015 25 49.9444C25.0158 44.564 25.0158 39.1841 25 33.8049C25 32.6938 25.3182 31.8083 26.3762 31.3234C27.2395 30.9278 28.526 31.2712 29.2979 32.049C32.7003 35.4721 36.1293 38.8682 39.5848 42.2374C40.4972 43.1347 41.2369 44.16 42.0308 45.1532C43.1294 46.5252 44.6562 47.3939 46.3355 47.9562C47.6643 48.4023 49.0439 48.4882 50.4336 48.4798C53.765 48.4596 57.098 48.4882 60.4293 48.4596C61.0624 48.4596 61.3011 48.5707 61.2943 49.276C61.2588 53.6076 61.2655 57.9409 61.2943 62.2725C61.2943 62.8702 61.125 63.0301 60.5309 63.0267C56.5174 63.0031 52.5022 63.0149 48.4886 63.0149L48.4903 62.9324Z" fill="#BEF264"/>
<path d="M56.6442 36.956C55.5608 36.956 54.4786 36.956 53.3975 36.956C52.001 36.956 51.1969 36.222 51.1715 34.8668C51.1411 32.6311 51.1411 30.3938 51.1715 28.1548C51.1902 26.7709 51.9874 26.0454 53.389 26.042C55.5817 26.042 57.7744 26.042 59.9671 26.042C61.3314 26.042 62.1676 26.8265 62.1795 28.18C62.2032 30.3887 62.2032 32.598 62.1795 34.8079C62.1643 36.1765 61.3534 36.9442 59.9789 36.9526C58.86 36.961 57.7546 36.956 56.6442 36.956Z" fill="#BEF264"/>
<path d="M15.5566 101.967C15.5566 100.971 15.2051 100.209 14.502 99.6816C13.7988 99.1426 12.5332 98.5801 10.7051 97.9941C8.87695 97.3965 7.42969 96.8105 6.36328 96.2363C3.45703 94.666 2.00391 92.5508 2.00391 89.8906C2.00391 88.5078 2.39062 87.2773 3.16406 86.1992C3.94922 85.1094 5.06836 84.2598 6.52148 83.6504C7.98633 83.041 9.62695 82.7363 11.4434 82.7363C13.2715 82.7363 14.9004 83.0703 16.3301 83.7383C17.7598 84.3945 18.8672 85.3262 19.6523 86.5332C20.4492 87.7402 20.8477 89.1113 20.8477 90.6465H15.5742C15.5742 89.4746 15.2051 88.5664 14.4668 87.9219C13.7285 87.2656 12.6914 86.9375 11.3555 86.9375C10.0664 86.9375 9.06445 87.2129 8.34961 87.7637C7.63477 88.3027 7.27734 89.0176 7.27734 89.9082C7.27734 90.7402 7.69336 91.4375 8.52539 92C9.36914 92.5625 10.6055 93.0898 12.2344 93.582C15.2344 94.4844 17.4199 95.6035 18.791 96.9395C20.1621 98.2754 20.8477 99.9395 20.8477 101.932C20.8477 104.146 20.0098 105.887 18.334 107.152C16.6582 108.406 14.4023 109.033 11.5664 109.033C9.59766 109.033 7.80469 108.676 6.1875 107.961C4.57031 107.234 3.33398 106.244 2.47852 104.99C1.63477 103.736 1.21289 102.283 1.21289 100.631H6.50391C6.50391 103.455 8.19141 104.867 11.5664 104.867C12.8203 104.867 13.7988 104.615 14.502 104.111C15.2051 103.596 15.5566 102.881 15.5566 101.967ZM30.4316 84.9863V89.6621H33.6836V93.3887H30.4316V102.881C30.4316 103.584 30.5664 104.088 30.8359 104.393C31.1055 104.697 31.6211 104.85 32.3828 104.85C32.9453 104.85 33.4434 104.809 33.877 104.727V108.576C32.8809 108.881 31.8555 109.033 30.8008 109.033C27.2383 109.033 25.4219 107.234 25.3516 103.637V93.3887H22.5742V89.6621H25.3516V84.9863H30.4316ZM47.7852 108.682C47.5508 108.225 47.3809 107.656 47.2754 106.977C46.0449 108.348 44.4453 109.033 42.4766 109.033C40.6133 109.033 39.0664 108.494 37.8359 107.416C36.6172 106.338 36.0078 104.979 36.0078 103.338C36.0078 101.322 36.752 99.7754 38.2402 98.6973C39.7402 97.6191 41.9023 97.0742 44.7266 97.0625H47.0645V95.9727C47.0645 95.0938 46.8359 94.3906 46.3789 93.8633C45.9336 93.3359 45.2246 93.0723 44.252 93.0723C43.3965 93.0723 42.7227 93.2773 42.2305 93.6875C41.75 94.0977 41.5098 94.6602 41.5098 95.375H36.4297C36.4297 94.2734 36.7695 93.2539 37.4492 92.3164C38.1289 91.3789 39.0898 90.6465 40.332 90.1191C41.5742 89.5801 42.9688 89.3105 44.5156 89.3105C46.8594 89.3105 48.7168 89.9023 50.0879 91.0859C51.4707 92.2578 52.1621 93.9102 52.1621 96.043V104.287C52.1738 106.092 52.4258 107.457 52.918 108.383V108.682H47.7852ZM43.584 105.148C44.334 105.148 45.0254 104.984 45.6582 104.656C46.291 104.316 46.7598 103.865 47.0645 103.303V100.033H45.166C42.623 100.033 41.2695 100.912 41.1055 102.67L41.0879 102.969C41.0879 103.602 41.3105 104.123 41.7559 104.533C42.2012 104.943 42.8105 105.148 43.584 105.148ZM67.002 94.4258C66.3105 94.332 65.7012 94.2852 65.1738 94.2852C63.252 94.2852 61.9922 94.9355 61.3945 96.2363V108.682H56.3145V89.6621H61.1133L61.2539 91.9297C62.2734 90.1836 63.6855 89.3105 65.4902 89.3105C66.0527 89.3105 66.5801 89.3867 67.0723 89.5391L67.002 94.4258ZM76.6738 84.9863V89.6621H79.9258V93.3887H76.6738V102.881C76.6738 103.584 76.8086 104.088 77.0781 104.393C77.3477 104.697 77.8633 104.85 78.625 104.85C79.1875 104.85 79.6855 104.809 80.1191 104.727V108.576C79.123 108.881 78.0977 109.033 77.043 109.033C73.4805 109.033 71.6641 107.234 71.5938 103.637V93.3887H68.8164V89.6621H71.5938V84.9863H76.6738ZM91.7598 109.033C88.9707 109.033 86.6973 108.178 84.9395 106.467C83.1934 104.756 82.3203 102.477 82.3203 99.6289V99.1367C82.3203 97.2266 82.6895 95.5215 83.4277 94.0215C84.166 92.5098 85.209 91.3496 86.5566 90.541C87.916 89.7207 89.4629 89.3105 91.1973 89.3105C93.7988 89.3105 95.8438 90.1309 97.332 91.7715C98.832 93.4121 99.582 95.7383 99.582 98.75V100.824H87.4707C87.6348 102.066 88.127 103.062 88.9473 103.812C89.7793 104.562 90.8281 104.938 92.0938 104.938C94.0508 104.938 95.5801 104.229 96.6816 102.811L99.1777 105.605C98.416 106.684 97.3848 107.527 96.084 108.137C94.7832 108.734 93.3418 109.033 91.7598 109.033ZM91.1797 93.4238C90.1719 93.4238 89.3516 93.7637 88.7188 94.4434C88.0977 95.123 87.6992 96.0957 87.5234 97.3613H94.5898V96.957C94.5664 95.832 94.2617 94.9648 93.6758 94.3555C93.0898 93.7344 92.2578 93.4238 91.1797 93.4238ZM113.42 94.4258C112.729 94.332 112.119 94.2852 111.592 94.2852C109.67 94.2852 108.41 94.9355 107.812 96.2363V108.682H102.732V89.6621H107.531L107.672 91.9297C108.691 90.1836 110.104 89.3105 111.908 89.3105C112.471 89.3105 112.998 89.3867 113.49 89.5391L113.42 94.4258Z" fill="white"/>
</svg>
