<svg width="49" height="48" viewBox="0 0 49 48" fill="none" xmlns="http://www.w3.org/2000/svg">
<path d="M42.4426 18.1717L42.4543 18.5635L42.8376 18.6457C44.4802 18.9977 45.7529 19.9015 46.6257 21.3081C47.5061 22.7267 47.9951 24.6844 47.9951 27.1496C47.9951 29.5653 47.523 31.4949 46.672 32.9068C45.8277 34.3074 44.5975 35.2225 43.0139 35.6088L42.6579 35.6956L42.6335 36.0612C42.4955 38.124 41.7077 40.2687 39.5509 41.9599C37.3771 43.6644 33.756 44.953 27.8608 45.1551L27.5507 45.1657L27.4225 45.4484C27.1007 46.1586 26.5505 46.7408 25.8595 47.1022C25.1685 47.4635 24.3765 47.5834 23.6095 47.4426C22.8426 47.3018 22.1447 46.9084 21.6272 46.3252C21.1096 45.7419 20.802 45.0023 20.7534 44.2241C20.7048 43.4458 20.918 42.6736 21.359 42.0305C21.8 41.3874 22.4434 40.9103 23.1869 40.6752C23.9304 40.4401 24.7311 40.4604 25.4617 40.733C26.1923 41.0056 26.8107 41.5148 27.2184 42.1795L27.3699 42.4265L27.6596 42.4178C31.5929 42.3001 34.63 41.6893 36.6998 40.5415C38.8055 39.3739 39.9138 37.6428 39.9138 35.3879L39.9138 35.3823L39.7264 18.7456C39.7264 18.7445 39.7264 18.7434 39.7264 18.7423C39.7289 16.7098 39.331 14.6966 38.5555 12.8177C37.7796 10.9379 36.6408 9.22934 35.2043 7.78978C33.7678 6.35021 32.0617 5.20783 30.1835 4.42791C28.3053 3.64799 26.2919 3.24582 24.2582 3.2444C22.2245 3.24297 20.2104 3.64231 18.3312 4.41959C16.4519 5.19687 14.7442 6.33686 13.3056 7.77441C11.8671 9.21195 10.726 10.9189 9.94742 12.7976C9.16906 14.6759 8.76836 16.6892 8.76821 18.7223C8.76821 18.7228 8.76821 18.7233 8.76821 18.7239L8.67496 34.4597C8.67282 34.8223 8.52728 35.1693 8.27014 35.425C8.01299 35.6806 7.66514 35.8241 7.30257 35.8241C5.11349 35.8241 3.44053 35.0419 2.30222 33.6118C1.15095 32.1654 0.5 29.997 0.5 27.1496C0.5 24.6886 0.986642 22.732 1.86354 21.3127C2.73295 19.9055 4.00093 18.9998 5.63767 18.6448L6.0198 18.5619L6.03145 18.171C6.17258 13.4365 8.15257 8.94312 11.5515 5.6441C14.9503 2.34508 19.5007 0.499914 24.2374 0.5C28.974 0.500086 33.5243 2.34541 36.9231 5.64456C40.3219 8.9437 42.3017 13.4371 42.4426 18.1717Z" stroke="url(#paint0_linear)"/>
<path d="M20.6408 25.9007L20.6418 25.9043C20.6655 25.9879 20.6727 26.0753 20.6631 26.1616C20.6533 26.2492 20.6263 26.3339 20.5838 26.411C20.5412 26.4881 20.4838 26.5561 20.415 26.6111C20.3461 26.666 20.2671 26.7068 20.1825 26.7312C20.0978 26.7556 20.0092 26.763 19.9217 26.7531C19.8342 26.7432 19.7494 26.7162 19.6724 26.6735C19.5953 26.6309 19.5274 26.5734 19.4725 26.5045C19.4177 26.4356 19.377 26.3565 19.3527 26.2718L19.3525 26.271C19.1034 25.4079 19.0871 24.4943 19.3051 23.6228C19.523 22.7513 19.9676 21.953 20.5936 21.3088C21.2196 20.6645 22.0049 20.1972 22.8698 19.9544C23.7346 19.7115 24.6483 19.7016 25.5182 19.9258C26.3881 20.1499 27.1833 20.6001 27.8231 21.2307C28.4629 21.8613 28.9245 22.6499 29.1613 23.5165C29.398 24.383 29.4014 25.2968 29.171 26.1651C28.9407 27.0333 28.4849 27.8253 27.8498 28.4606C27.8498 28.4606 27.8498 28.4606 27.8498 28.4606L25.0645 31.2463L24.9181 31.3927V31.5998V36.6026C24.9181 36.7804 24.8475 36.9508 24.7218 37.0765C24.5961 37.2022 24.4256 37.2728 24.2478 37.2728C24.0701 37.2728 23.8996 37.2022 23.7739 37.0765C23.6482 36.9508 23.5776 36.7804 23.5776 36.6026V30.8378L26.9021 27.5128C27.3703 27.0446 27.7063 26.461 27.876 25.821C28.0458 25.181 28.0433 24.5075 27.8688 23.8689C27.6943 23.2302 27.354 22.649 26.8824 22.1843C26.4108 21.7196 25.8246 21.3878 25.1834 21.2227C24.5423 21.0577 23.8688 21.0651 23.2314 21.2442C22.594 21.4234 22.0153 21.768 21.5541 22.243C21.0928 22.718 20.7654 23.3065 20.605 23.9489C20.4446 24.5913 20.4569 25.2646 20.6408 25.9007Z" stroke="url(#paint1_linear)"/>
<defs>
<linearGradient id="paint0_linear" x1="2.93569e-07" y1="24" x2="45.7845" y2="24" gradientUnits="userSpaceOnUse">
<stop stop-color="#61DCFB"/>
<stop offset="1" stop-color="#61A1FB"/>
</linearGradient>
<linearGradient id="paint1_linear" x1="18.6528" y1="28.5187" x2="29.216" y2="28.5187" gradientUnits="userSpaceOnUse">
<stop stop-color="#61DCFB"/>
<stop offset="1" stop-color="#61A1FB"/>
</linearGradient>
</defs>
</svg>
