<svg width="48" height="63" viewBox="0 0 48 63" fill="none" xmlns="http://www.w3.org/2000/svg">
<path d="M12.8611 13.691L12.5301 14.1849C11.0652 16.3703 10.2658 18.9616 10.2658 21.6089C10.2658 28.9601 16.2474 34.9424 23.5986 34.9424C30.9504 34.9424 36.9321 28.9601 36.9321 21.6089C36.9321 18.9895 36.1475 16.4225 34.711 14.2511L34.385 13.7583L34.925 13.5183L42.2561 10.2605L42.9592 9.9481V10.7174V23.8428V23.9489L42.9161 24.0458L40.9489 28.4742L40.9486 28.475C40.8727 28.6452 40.8881 28.8428 40.9905 29.0002C41.0928 29.1575 41.2671 29.2521 41.4542 29.2521H45.4363C45.6211 29.2521 45.7937 29.1598 45.8958 29.0072C45.9981 28.853 46.0173 28.658 45.947 28.4871C45.9469 28.4869 45.9469 28.4867 45.9468 28.4865L44.1036 24.0493L44.0653 23.9573V23.8575V9.75033C44.0653 9.44537 43.8176 9.19761 43.5126 9.19761C43.5146 9.19761 43.5119 9.19744 43.4994 9.19889L43.4752 9.20206L43.4381 9.20719L43.2035 9.23871L43.0304 9.07717C42.9743 9.02481 42.9265 8.99256 42.8821 8.97275L12.8611 13.691ZM12.8611 13.691L12.3178 13.4496L4.51823 9.98278C4.31796 9.89357 4.18945 9.69574 4.18945 9.47802C4.18945 9.25952 4.31795 9.06165 4.51785 8.97274C4.51787 8.97273 4.5179 8.97272 4.51792 8.9727L23.4735 0.547634C23.6164 0.484265 23.7794 0.483985 23.9237 0.547618C23.9238 0.547688 23.924 0.547757 23.9241 0.547827L42.8818 8.97262L12.8611 13.691ZM14.2794 14.0714L13.9073 13.906L13.67 14.2369C12.188 16.3033 11.3719 18.8003 11.3719 21.3591C11.3719 28.1024 16.8566 33.5871 23.5993 33.5871C30.3419 33.5871 35.8273 28.1025 35.8273 21.3591C35.8273 18.8296 35.0295 16.359 33.5797 14.3071L33.343 13.9722L32.9683 14.1387L23.9237 18.1579C23.9237 18.1579 23.9236 18.1579 23.9236 18.1579C23.852 18.1896 23.7751 18.2055 23.6989 18.2055C23.6228 18.2055 23.5461 18.1897 23.4746 18.1581C23.4744 18.158 23.4743 18.1579 23.4742 18.1579L14.2794 14.0714ZM42.6171 27.4435L42.3044 28.1466H43.074H43.86H44.6092L44.3217 27.4548L43.942 26.541L43.4959 25.4673L43.0235 26.5297L42.6171 27.4435ZM23.902 1.49764L23.6989 1.4074L23.4959 1.49765L7.13231 8.77057L6.10431 9.22748L7.13231 9.68438L23.4959 16.9573L23.6989 17.0475L23.902 16.9573L40.2683 9.68439L41.2965 9.22748L40.2683 8.77056L23.902 1.49764Z" stroke="url(#paint0_linear)"/>
<path d="M0.5 61.6655L0.500001 61.6653C0.510995 48.7163 11.0496 38.1846 24.0007 38.1846C36.9504 38.1846 47.489 48.7163 47.5 61.6653V61.6655C47.5004 61.9902 47.2483 62.238 46.9473 62.238H1.05272C0.751914 62.238 0.499614 61.9897 0.5 61.6655ZM1.63128 60.6088L1.60634 61.1325H2.13071H45.87H46.3944L46.3694 60.6088C45.8052 48.7573 35.9887 39.29 24.0007 39.29C12.0121 39.29 2.19553 48.7573 1.63128 60.6088Z" stroke="url(#paint1_linear)"/>
<defs>
<linearGradient id="paint0_linear" x1="3.68945" y1="17.7212" x2="44.0966" y2="17.7212" gradientUnits="userSpaceOnUse">
<stop stop-color="#61DCFB"/>
<stop offset="1" stop-color="#61A1FB"/>
</linearGradient>
<linearGradient id="paint1_linear" x1="2.90573e-07" y1="50.2113" x2="45.3171" y2="50.2113" gradientUnits="userSpaceOnUse">
<stop stop-color="#61DCFB"/>
<stop offset="1" stop-color="#61A1FB"/>
</linearGradient>
</defs>
</svg>
