<svg xmlns="http://www.w3.org/2000/svg" xmlns:xlink="http://www.w3.org/1999/xlink" viewBox="0 0 58 42"><defs><style>.cls-1{fill:url(#linear-gradient);}.cls-2{fill:url(#linear-gradient-2);}.cls-3{fill:url(#linear-gradient-3);}</style><linearGradient id="linear-gradient" x1="530.19" y1="-630.42" x2="530.19" y2="-750.69" gradientTransform="matrix(0.37, 0, 0, -0.37, -168.28, -235.57)" gradientUnits="userSpaceOnUse"><stop offset="0" stop-color="#bef264"/><stop offset="1" stop-color="#6a6"/></linearGradient><linearGradient id="linear-gradient-2" x1="529.44" y1="-668.72" x2="529.44" y2="-709.04" xlink:href="#linear-gradient"/><linearGradient id="linear-gradient-3" x1="530.76" y1="-630.42" x2="530.76" y2="-750.69" gradientTransform="matrix(0.37, 0, 0, -0.37, -168.28, -235.57)" gradientUnits="userSpaceOnUse"><stop offset="0" stop-color="#bef264"/><stop offset="0.02" stop-color="#baef64"/><stop offset="0.18" stop-color="#9cd665"/><stop offset="0.36" stop-color="#84c365"/><stop offset="0.54" stop-color="#73b566"/><stop offset="0.75" stop-color="#69ad66"/><stop offset="1" stop-color="#6a6"/></linearGradient></defs><g id="Layer_2" data-name="Layer 2"><g id="Layer_1-2" data-name="Layer 1"><g id="surface149639911"><path class="cls-1" d="M29,42c-6.36,0-12.72-.19-19.3-.58A9.93,9.93,0,0,1,.39,32.23a161.88,161.88,0,0,1,0-22.46A10,10,0,0,1,9.7.58a322.79,322.79,0,0,1,38.6,0,9.93,9.93,0,0,1,9.3,9.19,160.34,160.34,0,0,1,0,22.46,9.93,9.93,0,0,1-9.31,9.19C41.71,41.81,35.36,42,29,42Zm19.18-2.58.06,1-.06-1a7.92,7.92,0,0,0,7.43-7.33,157.87,157.87,0,0,0,0-22.18,7.93,7.93,0,0,0-7.43-7.33,318.79,318.79,0,0,0-38.36,0A7.92,7.92,0,0,0,2.39,9.91a157.87,157.87,0,0,0,0,22.18,7.91,7.91,0,0,0,7.43,7.33A314.71,314.71,0,0,0,48.18,39.42Z"/><path class="cls-2" d="M22,28.84V13.16L35.44,21Z"/><path class="cls-3" d="M21,30.58V11.42L37.42,21ZM23,14.9V27.1L33.46,21Z"/></g></g></g></svg>