<svg xmlns="http://www.w3.org/2000/svg" xmlns:xlink="http://www.w3.org/1999/xlink" viewBox="0 0 62 42"><defs><style>.cls-1{fill:url(#linear-gradient);}.cls-2{fill:url(#linear-gradient-2);}</style><linearGradient id="linear-gradient" y1="21" x2="62" y2="21" gradientUnits="userSpaceOnUse"><stop offset="0" stop-color="#66a666"/><stop offset="1" stop-color="#bef264"/></linearGradient><linearGradient id="linear-gradient-2" x1="22" y1="20.97" x2="44.1" y2="20.97" xlink:href="#linear-gradient"/></defs><g id="Layer_2" data-name="Layer 2"><g id="Layer_1-2" data-name="Layer 1"><g id="yt"><path class="cls-1" d="M49,42H13A13,13,0,0,1,0,29V13A13,13,0,0,1,13,0H49A13,13,0,0,1,62,13V29A13,13,0,0,1,49,42ZM13,2A11,11,0,0,0,2,13V29A11,11,0,0,0,13,40H49A11,11,0,0,0,60,29V13A11,11,0,0,0,49,2Z"/><path class="cls-2" d="M23,32a4.33,4.33,0,0,1-.5-.1A1.19,1.19,0,0,1,22,31V11a1.19,1.19,0,0,1,.5-.9.91.91,0,0,1,1,0l20,10a1.15,1.15,0,0,1,.6.9,1,1,0,0,1-.6.9l-20,10A.9.9,0,0,1,23,32Zm1-19.4V29.4L40.8,21Z"/></g></g></g></svg>