<svg width="32" height="32" viewBox="0 0 32 32" fill="none" xmlns="http://www.w3.org/2000/svg">
<path d="M30.7527 6.67296C29.5976 5.29985 27.465 4.73975 23.3921 4.73975H8.60759C4.4415 4.73975 2.27272 5.33598 1.12196 6.79786C0 8.2232 0 10.3233 0 13.23V18.77C0 24.4011 1.3312 27.2601 8.60759 27.2601H23.3922C26.9242 27.2601 28.8813 26.7659 30.1475 25.5541C31.446 24.3115 32 22.2826 32 18.77V13.23C32 10.1647 31.9132 8.05216 30.7527 6.67296ZM20.5441 16.7648L13.8305 20.2736C13.6804 20.352 13.5163 20.3909 13.3524 20.3909C13.1668 20.3909 12.9816 20.341 12.8175 20.2417C12.5087 20.0545 12.3201 19.7198 12.3201 19.3587V12.3637C12.3201 12.0032 12.5082 11.6688 12.8164 11.4815C13.1247 11.2943 13.5082 11.2815 13.8281 11.4477L20.5417 14.9338C20.8833 15.1112 21.0978 15.4638 21.0983 15.8485C21.0987 16.2335 20.8852 16.5867 20.5441 16.7648Z" fill="#BEF264"/>
</svg>
